<svg xmlns="http://www.w3.org/2000/svg" width="127.9" height="131.6" viewBox="0 0 127.9 131.6">
  <g id="витамины" transform="translate(-32.1 -30.8)">
    <path id="Path_1" data-name="Path 1" d="M96.8,147.9H46.1a14.041,14.041,0,0,1-14-14V74a14.041,14.041,0,0,1,14-14H96.9a14.041,14.041,0,0,1,14,14v59.9a14.127,14.127,0,0,1-14.1,14ZM46.1,64a10.029,10.029,0,0,0-10,10v59.9a10.029,10.029,0,0,0,10,10H96.9a10.029,10.029,0,0,0,10-10V74a10.029,10.029,0,0,0-10-10Z" fill="#b8b8b8"/>
    <path id="Path_2" data-name="Path 2" d="M100.5,53H42.4V30.8h58.1ZM46.4,49H96.5V34.8H46.4Z" fill="#b8b8b8"/>
    <rect id="Rectangle_1" data-name="Rectangle 1" width="29.2" height="40.9" transform="translate(34.1 85.4)" fill="#eef5e8"/>
    <path id="Path_3" data-name="Path 3" d="M65.3,128.3H32.1V83.4H65.3Zm-29.2-4H61.3V87.4H36.1Z" fill="#b8b8b8"/>
    <circle id="Ellipse_1" data-name="Ellipse 1" cx="23.4" cy="23.4" r="23.4" transform="translate(78.2 80.6)" fill="#fff"/>
    <path id="Path_4" data-name="Path 4" d="M101.6,129.3A25.4,25.4,0,1,1,127,104h0A25.415,25.415,0,0,1,101.6,129.3Zm0-46.7A21.4,21.4,0,1,0,123,104.1,21.424,21.424,0,0,0,101.6,82.6Z" fill="#b8b8b8"/>
    <circle id="Ellipse_2" data-name="Ellipse 2" cx="27.2" cy="27.2" r="27.2" transform="translate(103.6 106.1)" fill="#fff"/>
    <path id="Path_5" data-name="Path 5" d="M130.8,162.4A29.2,29.2,0,1,1,160,133.2h0A29.234,29.234,0,0,1,130.8,162.4Zm0-54.3A25.2,25.2,0,1,0,156,133.3h0A25.287,25.287,0,0,0,130.8,108.1Z" fill="#b8b8b8"/>
    <circle id="Ellipse_3" data-name="Ellipse 3" cx="18.4" cy="18.4" r="18.4" transform="translate(79.3 123.6)" fill="#fff"/>
    <path id="Path_6" data-name="Path 6" d="M97.7,162.4a20.45,20.45,0,1,1,20.4-20.5h0A20.316,20.316,0,0,1,97.7,162.4Zm0-36.9A16.45,16.45,0,1,0,114.1,142h0A16.431,16.431,0,0,0,97.7,125.5Z" fill="#b8b8b8"/>
    <path id="Path_7" data-name="Path 7" d="M89.5,150l6.8-16.4h3.3l6.8,16.4h-4l-1.4-3.4H94.5L93.1,150Zm8.4-11.6L96.1,143h3.7Z" fill="#b8b8b8"/>
    <path id="Path_8" data-name="Path 8" d="M124.9,144.5V123.4h12.5v4.5h-7.7v3.7h6.8v4.5h-6.8V140h8v4.5Z" fill="#b8b8b8"/>
    <path id="Path_9" data-name="Path 9" d="M106.4,106.9l1.4,2.8a6.356,6.356,0,0,1-2.2,1.4,9.614,9.614,0,0,1-9.3-1.8,8.136,8.136,0,0,1-2.4-6.1,8.074,8.074,0,0,1,8.6-8.5,9.291,9.291,0,0,1,2.9.5,7.193,7.193,0,0,1,2.1,1.2l-1.7,2.8a6.682,6.682,0,0,0-3.3-1,4.6,4.6,0,0,0-3.3,1.3,4.966,4.966,0,0,0-1.3,3.7,4.789,4.789,0,0,0,4.5,5h.5A6.251,6.251,0,0,0,106.4,106.9Z" fill="#b8b8b8"/>
    <path id="Path_10" data-name="Path 10" d="M130.2,112.9s15.5,1.9,19.7,15.4" fill="#fff"/>
    <path id="Path_11" data-name="Path 11" d="M149.8,129.3a.961.961,0,0,1-.9-.7c-3.9-12.7-18.7-14.7-18.8-14.7a1.172,1.172,0,0,1-.9-1.1h0a1.172,1.172,0,0,1,1.1-.9h0c.2,0,16.2,2.2,20.5,16.1a1.015,1.015,0,0,1-.7,1.3Z" fill="#b8b8b8"/>
  </g>
</svg>
