<svg xmlns="http://www.w3.org/2000/svg" width="100.7" height="131.814" viewBox="0 0 100.7 131.814">
  <g id="защитные_средства_антисептики_маски_" data-name="защитные средства (антисептики, маски)" transform="translate(-38.4 -30.3)">
    <path id="Path_12" data-name="Path 12" d="M88.4,43.2a1.974,1.974,0,0,1-1.4-.6,1.933,1.933,0,0,1,0-2.8h0l5-5.1a1.974,1.974,0,0,1,1.4-.6h33.4a2,2,0,1,1,0,4H94.3l-4.5,4.5A1.974,1.974,0,0,1,88.4,43.2Z" fill="#b8b8b8"/>
    <path id="Path_13" data-name="Path 13" d="M121.9,63.4H107.5a6.018,6.018,0,0,1-6-6V46.6a6.018,6.018,0,0,1,6-6h14.4a6.018,6.018,0,0,1,6,6V57.5A6,6,0,0,1,121.9,63.4ZM107.5,44.6a2.006,2.006,0,0,0-2,2V57.5a2.006,2.006,0,0,0,2,2h14.4a2.006,2.006,0,0,0,2-2V46.6a2.006,2.006,0,0,0-2-2Z" fill="#b8b8b8"/>
    <path id="Path_14" data-name="Path 14" d="M113.7,32.4h2a4.012,4.012,0,0,1,4,4v2.3a4.012,4.012,0,0,1-4,4h-2a4.012,4.012,0,0,1-4-4V36.4A3.949,3.949,0,0,1,113.7,32.4Z" fill="#fff"/>
    <path id="Path_15" data-name="Path 15" d="M115.7,44.6h-2a6.018,6.018,0,0,1-6-6V36.3a6.018,6.018,0,0,1,6-6h2a6.018,6.018,0,0,1,6,6v2.3A6.017,6.017,0,0,1,115.7,44.6Zm0-10.2h-2a2.006,2.006,0,0,0-2,2v2.3a2.006,2.006,0,0,0,2,2h2a2.006,2.006,0,0,0,2-2V36.3A2.054,2.054,0,0,0,115.7,34.4Z" fill="#b8b8b8"/>
    <path id="Path_16" data-name="Path 16" d="M125.1,151.5H104.3a14.041,14.041,0,0,1-14-14V82.8a14.041,14.041,0,0,1,14-14h20.8a14.041,14.041,0,0,1,14,14v54.7A14.041,14.041,0,0,1,125.1,151.5ZM104.3,72.8a10.029,10.029,0,0,0-10,10v54.7a10.029,10.029,0,0,0,10,10h20.8a10.029,10.029,0,0,0,10-10V82.8a10.029,10.029,0,0,0-10-10Z" fill="#b8b8b8"/>
    <path id="Path_17" data-name="Path 17" d="M98.7,58.3h31.9a4.012,4.012,0,0,1,4,4v4.6a4.012,4.012,0,0,1-4,4H98.7a4.012,4.012,0,0,1-4-4V62.3A4.078,4.078,0,0,1,98.7,58.3Z" fill="#fff"/>
    <path id="Path_18" data-name="Path 18" d="M130.7,72.8h-32a6.018,6.018,0,0,1-6-6V62.2a6.018,6.018,0,0,1,6-6h31.9a6.018,6.018,0,0,1,6,6v4.7A5.911,5.911,0,0,1,130.7,72.8Zm-32-12.5a2.006,2.006,0,0,0-2,2h0v4.6a2.006,2.006,0,0,0,2,2h31.9a2.006,2.006,0,0,0,2-2V62.2a2.006,2.006,0,0,0-2-2Z" fill="#b8b8b8"/>
    <path id="Path_19" data-name="Path 19" d="M125.4,106.4H118V99a3.3,3.3,0,1,0-6.6,0v7.4H104a3.3,3.3,0,1,0,0,6.6h7.4v7.4a3.3,3.3,0,0,0,6.6,0V113h7.4a3.329,3.329,0,0,0,3.3-3.3A3.265,3.265,0,0,0,125.4,106.4Z" fill="#bae3fa"/>
    <path id="Path_20" data-name="Path 20" d="M53.7,140.8a15.35,15.35,0,1,1,15.4-15.3,15.625,15.625,0,0,1-1.1,5.7h0A15.562,15.562,0,0,1,53.7,140.8Zm0-27.7a12.323,12.323,0,1,0,4.6.9A12.543,12.543,0,0,0,53.7,113.1Z" fill="#bae3fa"/>
    <path id="Path_21" data-name="Path 21" d="M105.8,161.8a15.35,15.35,0,1,1,15.4-15.3,15.3,15.3,0,0,1-15.4,15.3Zm0-27.7a12.35,12.35,0,1,0,11.4,17h0a12.419,12.419,0,0,0-6.9-16.1A11.661,11.661,0,0,0,105.8,134.1Z" fill="#bae3fa"/>
    <path id="Path_22" data-name="Path 22" d="M66.2,110.2l41.1,16.5a5.976,5.976,0,0,1,3.3,7.7l-9.6,24a5.976,5.976,0,0,1-7.7,3.3L52.2,145.2a5.976,5.976,0,0,1-3.3-7.7l9.6-24A5.94,5.94,0,0,1,66.2,110.2Z" fill="#bae3fa"/>
    <path id="Path_23" data-name="Path 23" d="M60.1,126.3l40.4,16.2a1.553,1.553,0,0,1,.9,2h0a1.553,1.553,0,0,1-2,.9L59,129.2a1.553,1.553,0,0,1-.9-2h0A1.553,1.553,0,0,1,60.1,126.3Z" fill="#a2d9f1"/>
    <path id="Path_24" data-name="Path 24" d="M58,131.7l40.4,16.2a1.553,1.553,0,0,1,.9,2h0a1.553,1.553,0,0,1-2,.9L56.9,134.6a1.553,1.553,0,0,1-.9-2h0A1.553,1.553,0,0,1,58,131.7Z" fill="#a2d9f1"/>
    <path id="Path_25" data-name="Path 25" d="M55.8,137.1l40.4,16.2a1.553,1.553,0,0,1,.9,2h0a1.553,1.553,0,0,1-2,.9L54.7,140a1.553,1.553,0,0,1-.9-2h0A1.477,1.477,0,0,1,55.8,137.1Z" fill="#a2d9f1"/>
  </g>
</svg>
