<svg xmlns="http://www.w3.org/2000/svg" width="115.2" height="112.4" viewBox="0 0 115.2 112.4"><g transform="translate(-40.6 -42.2)"><circle cx="6.3" cy="6.3" r="6.3" transform="translate(107.1 103.2)" fill="#f8c7db"/><circle cx="6.3" cy="6.3" r="6.3" transform="translate(130.9 103.2)" fill="#f8c7db"/><circle cx="6.3" cy="6.3" r="6.3" transform="translate(107.1 126.4)" fill="#f8c7db"/><circle cx="6.3" cy="6.3" r="6.3" transform="translate(130.9 126.4)" fill="#f8c7db"/><rect width="39.2" height="28" transform="translate(43 94.4)" fill="#aedbf4"/><path d="M108,110a6.753,6.753,0,0,0,.2,1.4v-2.7A5.067,5.067,0,0,0,108,110Z" fill="#b8b8b8"/><path d="M108.2,134.1v-2.7a4.65,4.65,0,0,0,0,2.7Z" fill="#b8b8b8"/><path d="M52.6,142.7a7.917,7.917,0,0,1-7.9-7.9V124.6H41.5V92.5h3.2V80.1a7.917,7.917,0,0,1,7.9-7.9h7l.5-1.2a7.934,7.934,0,0,1,7.2-4.6H58.4A21.964,21.964,0,0,0,57,68.2H52.5A11.928,11.928,0,0,0,40.6,80.1h0v54.6a11.865,11.865,0,0,0,11.9,11.9H95.4a13.821,13.821,0,0,1-1-4H52.6Z" fill="#b8b8b8"/><path d="M92.8,71l.5,1.2h7a7.917,7.917,0,0,1,7.9,7.9V88h4V80.1a11.865,11.865,0,0,0-11.9-11.9H95.8a21.966,21.966,0,0,0-1.4-1.8H85.6A8.044,8.044,0,0,1,92.8,71Z" fill="#b8b8b8"/><path d="M84.4,92.5H44.6v32.1H84.4V92.5Zm-4,28.1h-35V96.5h35Z" fill="#b8b8b8"/><rect width="3.2" height="32.1" transform="translate(41.4 92.5)" fill="#b8b8b8"/><path d="M67.3,62.4H57.1V47.2a.945.945,0,0,1,1-1H94.8a.945.945,0,0,1,1,1V62.4H85.6a11.754,11.754,0,0,1,8.8,4h5.4V47.2a4.951,4.951,0,0,0-5-5H58.1a4.951,4.951,0,0,0-5,5V66.4h5.4A11.754,11.754,0,0,1,67.3,62.4Z" fill="#b8b8b8"/><path d="M85.6,66.4h8.8a11.916,11.916,0,0,0-8.8-4H67.3a12.132,12.132,0,0,0-8.9,4Z" fill="#b8b8b8"/><path d="M142.8,88H112.2v4h30.6a8.963,8.963,0,0,1,9,9v40.6a8.963,8.963,0,0,1-9,9H107.4a9.076,9.076,0,0,1-7.5-4H95.4a13.1,13.1,0,0,0,12,8h35.4a12.974,12.974,0,0,0,13-13V101A13.038,13.038,0,0,0,142.8,88Z" fill="#b8b8b8"/><path d="M98.4,101a8.963,8.963,0,0,1,9-9h.8V88h-.8a12.974,12.974,0,0,0-13,13v41.6h4c0-.3-.1-.7-.1-1Z" fill="#b8b8b8"/><rect width="4" height="4" transform="translate(108.2 88)" fill="#b8b8b8"/><path d="M98.5,142.7h-4a13.821,13.821,0,0,0,1,4H100A9.743,9.743,0,0,1,98.5,142.7Z" fill="#b8b8b8"/><path d="M137.2,119a9,9,0,1,0-9-9h0A8.963,8.963,0,0,0,137.2,119Zm0-14.1a5,5,0,1,1-5,5,5.15,5.15,0,0,1,5-5Z" fill="#b8b8b8"/><path d="M104,110a8.937,8.937,0,0,0,4.2,7.6v-6.3a5.9,5.9,0,0,1-.2-1.4,6.753,6.753,0,0,1,.2-1.4v-6.3A9.548,9.548,0,0,0,104,110Z" fill="#b8b8b8"/><path d="M113,105a5,5,0,0,1,0,10,1.95,1.95,0,0,1-.8-.1v4h.8a9.045,9.045,0,0,0,1.8-18,5.438,5.438,0,0,0-1.8,0h-.8v4A2.2,2.2,0,0,0,113,105Z" fill="#b8b8b8"/><path d="M112.2,105v-4a8.373,8.373,0,0,0-4,1.4v6.3A4.912,4.912,0,0,1,112.2,105Z" fill="#b8b8b8"/><path d="M108.2,111.3v6.3a9.585,9.585,0,0,0,4,1.4v-4A5.055,5.055,0,0,1,108.2,111.3Z" fill="#b8b8b8"/><path d="M137.2,141.8a9,9,0,1,0-9-9A8.963,8.963,0,0,0,137.2,141.8Zm0-14.1a5,5,0,1,1-5,5h0A4.951,4.951,0,0,1,137.2,127.7Z" fill="#b8b8b8"/><path d="M108.2,134.1a5.9,5.9,0,0,1-.2-1.4,6.753,6.753,0,0,1,.2-1.4V125a8.933,8.933,0,0,0-2.8,12.4,11.511,11.511,0,0,0,1.4,1.7,7.983,7.983,0,0,0,1.4-4.5Z" fill="#b8b8b8"/><path d="M113,127.7a5,5,0,1,1-1.2,9.8,12.214,12.214,0,0,1-1.6,3.7,6.578,6.578,0,0,0,2.8.4,9,9,0,1,0,0-18h-.8v4A2.2,2.2,0,0,0,113,127.7Z" fill="#b8b8b8"/><path d="M108.2,134.1v.6a7.983,7.983,0,0,1-1.4,4.5,12.034,12.034,0,0,0,3.4,2.1,12.214,12.214,0,0,0,1.6-3.7A4.91,4.91,0,0,1,108.2,134.1Z" fill="#b8b8b8"/><path d="M108.2,131.4a4.94,4.94,0,0,1,4-3.6v-4a8.373,8.373,0,0,0-4,1.4Z" fill="#b8b8b8"/></g></svg>