<svg xmlns="http://www.w3.org/2000/svg" width="131" height="87.7" viewBox="0 0 131 87.7"><g transform="translate(-32.4 -52.4)"><path d="M46.4,64.6h78.5a12.035,12.035,0,0,1,12,12v49.5a12.035,12.035,0,0,1-12,12H46.4a12.035,12.035,0,0,1-12-12V76.6A12.035,12.035,0,0,1,46.4,64.6Z" fill="#fff"/><path d="M124.9,140.1H46.4a14.041,14.041,0,0,1-14-14V76.6a14.041,14.041,0,0,1,14-14h78.5a14.041,14.041,0,0,1,14,14h0v49.5a14.041,14.041,0,0,1-14,14ZM46.4,66.6a10.029,10.029,0,0,0-10,10v49.5a10.029,10.029,0,0,0,10,10h78.5a10.029,10.029,0,0,0,10-10h0V76.6a10.029,10.029,0,0,0-10-10Z" fill="#b8b8b8"/><path d="M34.4,104.9H58.8L66.4,81l7,40,7-16.1h25.1" fill="#fff"/><path d="M72.6,127.9,65.8,89.4l-5.5,17.5H34.4v-4H57.3L67,72.6l7.2,41.5,4.9-11.2h26.4v4H81.7Z" fill="#b8b8b8"/><path d="M136.9,62.7c0-.1.1-.1.1-.2a25.893,25.893,0,0,1,3.2-4.2,12.43,12.43,0,0,1,3.5-2.5,10.6,10.6,0,0,1,3-1,7.412,7.412,0,0,1,2.1-.1,11.906,11.906,0,0,1,4.9,1.3,17.481,17.481,0,0,1,2.9,1.8,7.518,7.518,0,0,1,1.5,1.6,14.69,14.69,0,0,1,2.2,4.1c.3,1,.6,2,.8,3a10.751,10.751,0,0,1,.1,3.1,15.616,15.616,0,0,1-1.5,6,21.11,21.11,0,0,1-2.8,4.5,30.923,30.923,0,0,1-4,4.1c-1.2,1-2.5,2-3.7,2.9-1.7,1.3-3.4,2.6-5.2,4a30.918,30.918,0,0,0-3.9,3.3,13.65,13.65,0,0,0-1.7,1.7c-.5.5-.9,1.1-1.4,1.7l-.1.1a.1.1,0,0,1-.1-.1,21.978,21.978,0,0,0-2-2.3,47.161,47.161,0,0,0-4.8-4.1c-1.8-1.5-3.7-2.9-5.6-4.3-1.1-.8-2.2-1.7-3.3-2.6a29.565,29.565,0,0,1-4-3.9,21.422,21.422,0,0,1-3.2-5.2,15.773,15.773,0,0,1-1.1-3.7,11.019,11.019,0,0,1-.2-1.8V68.8a12.1,12.1,0,0,1,.1-1.9,16.9,16.9,0,0,1,1.2-4.4,13.846,13.846,0,0,1,2-3.3,7.518,7.518,0,0,1,1.6-1.5,14.135,14.135,0,0,1,3.4-1.9,9.006,9.006,0,0,1,2.8-.8,7.412,7.412,0,0,1,2.1-.1,11.043,11.043,0,0,1,5.2,1.7,11.39,11.39,0,0,1,3.1,2.7,21.141,21.141,0,0,1,2.6,3.5l.2-.1Z" fill="#f6b4b7"/><path d="M136.9,99.8a2.234,2.234,0,0,1-1.8-1,16.32,16.32,0,0,0-1.7-2,52.388,52.388,0,0,0-4.6-4c-1.4-1.1-3-2.3-4.5-3.5l-1.2-.9a39.186,39.186,0,0,1-3.2-2.5,27.8,27.8,0,0,1-4.2-4.2,23.588,23.588,0,0,1-3.5-5.7,19.562,19.562,0,0,1-1.3-4.1l-.3-2.1V68.6a16.951,16.951,0,0,1,.1-2.2,19.641,19.641,0,0,1,1.3-4.9,18.325,18.325,0,0,1,2.3-3.8,11.9,11.9,0,0,1,2-1.9,17.927,17.927,0,0,1,3.8-2.2,11.543,11.543,0,0,1,3.3-1,21.053,21.053,0,0,1,2.5-.2,11.961,11.961,0,0,1,6.1,2,16.892,16.892,0,0,1,3.6,3c.4.5.9,1,1.3,1.5a12.865,12.865,0,0,1,1.9-2.1,14.115,14.115,0,0,1,4-2.9,10.924,10.924,0,0,1,3.6-1.2,19.482,19.482,0,0,1,2.5-.2,14.663,14.663,0,0,1,5.8,1.5,21.365,21.365,0,0,1,3.2,2,9.024,9.024,0,0,1,1.9,2,17.183,17.183,0,0,1,2.5,4.6,21.361,21.361,0,0,1,.9,3.4,20.554,20.554,0,0,1,.2,3.5,18.415,18.415,0,0,1-1.7,6.8,19.334,19.334,0,0,1-3.1,4.9,29.134,29.134,0,0,1-4.3,4.3c-1,.8-2.1,1.7-3.1,2.5l-1.6,1.2c-1.4,1.1-2.8,2.1-4.2,3.2s-2.7,2.2-3.8,3.2a12.068,12.068,0,0,0-1.6,1.6c-.4.5-.8.9-1.2,1.4l-.6.8-1,.2Zm1.6-3ZM125.4,56.7a6.6,6.6,0,0,0-1.4.1,8.78,8.78,0,0,0-2.3.7,14.586,14.586,0,0,0-3,1.7,4.894,4.894,0,0,0-1.3,1.2,10.532,10.532,0,0,0-1.7,2.9,16.368,16.368,0,0,0-1,3.8,8.6,8.6,0,0,0-.1,1.6v1a7.719,7.719,0,0,0,.2,1.5,13.853,13.853,0,0,0,1,3.3,17.546,17.546,0,0,0,2.9,4.7,31.463,31.463,0,0,0,3.7,3.6c1,.8,2.1,1.6,3.1,2.4l1.2.9c1.5,1.1,3.1,2.3,4.6,3.5,1.7,1.3,3.3,2.8,4.9,4.3a4.62,4.62,0,0,1,.7.7c.6-.7,1.3-1.3,1.8-1.8,1.2-1.1,2.5-2.2,4-3.4s2.8-2.2,4.2-3.3l1.6-1.2,3-2.4a27.292,27.292,0,0,0,3.8-3.8,15.537,15.537,0,0,0,2.5-4.1,14.238,14.238,0,0,0,1.3-5.3,13.676,13.676,0,0,0-.8-5.3,10.778,10.778,0,0,0-1.9-3.5,11.985,11.985,0,0,0-1.1-1.2,22.606,22.606,0,0,0-2.6-1.6,9.074,9.074,0,0,0-5.7-1,6.805,6.805,0,0,0-2.4.8,12.875,12.875,0,0,0-3,2.2,20.558,20.558,0,0,0-2.9,3.7c0,.1-.1.1-.1.2l-.7,1.1-2.2-.3-.5-.8c-.1-.1-.1-.2-.2-.3a24.283,24.283,0,0,0-2.4-3.2,11.777,11.777,0,0,0-2.7-2.3,9.119,9.119,0,0,0-4.2-1.4Z" fill="#b8b8b8"/></g></svg>