<svg xmlns="http://www.w3.org/2000/svg" width="135.3" height="92.6" viewBox="0 0 135.3 92.6"><g transform="translate(-27.2 -57.5)"><path d="M152.7,66.7a9.64,9.64,0,0,0-9.5-9.2h-6.4v6h6.4a3.478,3.478,0,0,1,3.5,3.5h0v.3l10,52.3a3.424,3.424,0,0,1-3.5,3.2H36.9a3.565,3.565,0,0,1-3.5-3.2l9.9-52.1V67a3.478,3.478,0,0,1,3.5-3.5h6.4v-6H46.8a9.569,9.569,0,0,0-9.5,9.2l-10,52.1-.1.3v.3a9.5,9.5,0,0,0,9.5,9.5H153a9.5,9.5,0,0,0,9.5-9.5v-.3Z" fill="#b8b8b8"/><circle cx="22.3" cy="22.3" r="22.3" transform="translate(100.5 103.5)" fill="#d1ebf9"/><path d="M122.8,150.1a24.3,24.3,0,1,1,24.3-24.3A24.326,24.326,0,0,1,122.8,150.1Zm0-44.6a20.3,20.3,0,1,0,20.3,20.3A20.315,20.315,0,0,0,122.8,105.5Z" fill="#b8b8b8"/><circle cx="22.3" cy="22.3" r="22.3" transform="translate(45 103.5)" fill="#d1ebf9"/><path d="M67.3,150.1a24.3,24.3,0,1,1,24.3-24.3A24.326,24.326,0,0,1,67.3,150.1Zm0-44.6a20.3,20.3,0,1,0,20.3,20.3A20.315,20.315,0,0,0,67.3,105.5Z" fill="#b8b8b8"/><g opacity="0.4"><path d="M74,104.8,46.1,132.7a22.719,22.719,0,0,0,4.8,8.4l31.4-31.5A22.9,22.9,0,0,0,74,104.8Z" fill="#fff"/><path d="M85,112.6,53.8,143.8a25,25,0,0,0,4.1,2.5l29.6-29.6A19.6,19.6,0,0,0,85,112.6Z" fill="#fff"/><path d="M130.4,105.2l-28.6,28.6a22.51,22.51,0,0,0,5.2,8.1l31.5-31.5A21.687,21.687,0,0,0,130.4,105.2Z" fill="#fff"/><path d="M141.1,113.4l-31,31a22.156,22.156,0,0,0,4.3,2.3l29-29A25.488,25.488,0,0,0,141.1,113.4Z" fill="#fff"/></g></g></svg>