<svg xmlns="http://www.w3.org/2000/svg" width="111.5" height="114.9" viewBox="0 0 111.5 114.9"><g transform="translate(-39.3 -42.2)" opacity="0.6"><path d="M45.2,96.3c-3.7-8.2-5.9-16.4-5.9-24.6,0-16.3,12.5-29.5,27.9-29.5,12,0,18.8,3.6,25,14V96.4h-47Z" fill="#fd0"/><path d="M92.2,157.1c-17.3-18.3-34.2-36.7-44-55h44Z" fill="#4da734"/><path d="M142.1,102.1c-9.9,18.3-26.8,36.7-44,55v-55Z" fill="#e30613"/><path d="M98,56.2c6.1-10.4,12.9-14,24.9-14,15.4,0,27.9,13.2,27.9,29.5,0,8.2-2.2,16.4-5.9,24.6H98Z" fill="#008bd2"/></g></svg>