<svg xmlns="http://www.w3.org/2000/svg" width="112.136" height="112.103" viewBox="0 0 112.136 112.103"><g transform="translate(-43.88 -50.778)"><path d="M99.88,50.78h-49a7,7,0,0,0-7,7v49a7,7,0,0,0,2.06,5l49,49a7,7,0,0,0,10,0l49-49a7.06,7.06,0,0,0,0-10l-49-49a7,7,0,0,0-5.06-2Z" fill="#e94e56"/><path d="M99.88,53.42h-49a4.4,4.4,0,0,0-4.4,4.4v49a4.38,4.38,0,0,0,1.29,3.11l49,49a4.41,4.41,0,0,0,6.22,0l49-49a4.41,4.41,0,0,0,0-6.23l-49-49a4.36,4.36,0,0,0-3.11-1.28Z" fill="#fff"/><path d="M99.88,57.82H50.91v48.97l48.97,48.96,48.97-48.96L99.88,57.82Z" fill="#e94e56"/><path d="M99.88,158.25a2.49,2.49,0,0,1-1.77-.73l-49-49a2.47,2.47,0,0,1-.74-1.76v-49a2.5,2.5,0,0,1,2.5-2.5h49a2.51,2.51,0,0,1,1.77.73l49,49a2.49,2.49,0,0,1,0,3.53l-49,49a2.49,2.49,0,0,1-1.76.73Zm-46.47-52.5,46.47,46.47,45.43-45.43L98.84,60.32H53.41Z" fill="#e94e56"/><path d="M83.31,119.67a9.36,9.36,0,0,1-7.51-3,9.22,9.22,0,0,1-2.94-7.46A13.8,13.8,0,0,1,84.54,97.55,9.19,9.19,0,0,1,92,100.49,9.34,9.34,0,0,1,95,108a13.59,13.59,0,0,1-11.67,11.67Zm-2.13-8.35a3.46,3.46,0,0,0,2.69,1.15,4.48,4.48,0,0,0,3.95-4,3.53,3.53,0,0,0-1.19-2.64,3.37,3.37,0,0,0-2.59-1.1,4.51,4.51,0,0,0-4,4,3.37,3.37,0,0,0,1.14,2.59Zm18.78,18L93.5,84.7l5.65-.8,6.37,44.39Zm14.57-14a9.38,9.38,0,0,1-7.51-3,9.25,9.25,0,0,1-2.94-7.47,13.8,13.8,0,0,1,11.68-11.68,9.19,9.19,0,0,1,7.47,2.94,9.32,9.32,0,0,1,3,7.51,13.56,13.56,0,0,1-11.67,11.67ZM112.4,107a3.46,3.46,0,0,0,2.69,1.15,4,4,0,0,0,2.65-1.27,3.92,3.92,0,0,0,1.3-2.68,3.54,3.54,0,0,0-1.19-2.65,3.37,3.37,0,0,0-2.59-1.1,4.51,4.51,0,0,0-4,4A3.4,3.4,0,0,0,112.4,107Z" fill="#fff"/><circle cx="7.12" cy="7.12" r="7.12" transform="translate(58.7 65.61)" fill="#fff"/></g></svg>