<svg xmlns="http://www.w3.org/2000/svg" width="102.2" height="111.8" viewBox="0 0 102.2 111.8"><g transform="translate(-36.4 -30.5)"><path d="M103.6,60.6A30.03,30.03,0,0,0,91,63.3a30.7,30.7,0,0,0-12.6-2.7c-18.2,0-33,15.9-33,35.5s14.8,35.5,33,35.5A30.7,30.7,0,0,0,91,128.9a30.7,30.7,0,0,0,12.6,2.7c18.2,0,33-15.9,33-35.5S121.8,60.6,103.6,60.6Z" fill="#f4cfce"/><path d="M103.6,133.7A32.193,32.193,0,0,1,91,131.2a32.193,32.193,0,0,1-12.6,2.5c-19.3,0-35-16.8-35-37.5s15.7-37.5,35-37.5A32.193,32.193,0,0,1,91,61.2a32.193,32.193,0,0,1,12.6-2.5c19.3,0,35,16.8,35,37.5S122.9,133.7,103.6,133.7ZM91,126.8l.8.4a28.1,28.1,0,0,0,11.8,2.5c17.1,0,31-15.1,31-33.5s-13.9-33.5-31-33.5a29.733,29.733,0,0,0-11.8,2.5l-.8.3-.8-.4a28.1,28.1,0,0,0-11.8-2.5c-17.1,0-31,15-31,33.5s13.9,33.5,31,33.5a29.733,29.733,0,0,0,11.8-2.5Z" fill="#b8b8b8"/><path d="M80.3,41.8S91.4,50,91,63.3" fill="#fff"/><path d="M93,63.4l-4-.1c.3-12.1-9.8-19.7-9.9-19.8l2.4-3.2C82,40.6,93.4,49.1,93,63.4Z" fill="#b8b8b8"/><path d="M95,52.6s-4.8-18.8,22.7-19.9C117.7,32.7,113.5,56.8,95,52.6Z" fill="#dee9bc"/><path d="M99.2,55.1a18.933,18.933,0,0,1-4.7-.6l-1.2-.3L93,53a17.278,17.278,0,0,1,2.8-13.6c4-5.4,11.3-8.3,21.7-8.8l2.5-.1-.4,2.4c-.1.5-2.4,13.5-11.2,19.3A15.94,15.94,0,0,1,99.2,55.1Zm-2.5-4.2a13.222,13.222,0,0,0,9.5-1.9c5.2-3.5,7.8-10.4,8.8-14.1-7.7.7-13.1,3-16,7A13.584,13.584,0,0,0,96.7,50.9Z" fill="#b8b8b8"/><path d="M38.5,93.4s16,14.3,68.9,12.3v33.5s-44.7,6.3-68.9-13Z" fill="#fff"/><path d="M90.4,142.3c-15.5,0-38-2.4-53.2-14.4l-.8-.6V88.9l3.3,3c.3.2,16.5,13.8,67.5,11.8l2.1-.1V141l-1.7.2A123.19,123.19,0,0,1,90.4,142.3Zm-49.9-17c20.8,15.7,56.6,13.1,64.9,12.2V107.9c-39.3,1.2-58-6.6-64.9-10.7Z" fill="#b8b8b8"/><rect width="4" height="18.3" transform="translate(96 105.9)" fill="#b8b8b8"/><rect width="4" height="18.3" transform="translate(71.3 104.6)" fill="#b8b8b8"/><rect width="4" height="18.3" transform="translate(47.8 98.7)" fill="#b8b8b8"/><rect width="2" height="10.9" transform="translate(91.1 105.9)" fill="#b8b8b8"/><rect width="2" height="10.9" transform="translate(86.5 105.9)" fill="#b8b8b8"/><rect width="2" height="10.9" transform="translate(82.3 105.9)" fill="#b8b8b8"/><rect width="2" height="10.9" transform="translate(78.2 105.9)" fill="#b8b8b8"/><rect width="2" height="10.9" transform="translate(66.7 103.5)" fill="#b8b8b8"/><rect width="2" height="10.9" transform="translate(62.1 102.5)" fill="#b8b8b8"/><rect width="2" height="10.9" transform="translate(57.9 101.5)" fill="#b8b8b8"/><rect width="2" height="10.9" transform="translate(53.8 100.5)" fill="#b8b8b8"/><rect width="2" height="10.9" transform="translate(44.5 97.4)" fill="#b8b8b8"/></g></svg>