<svg xmlns="http://www.w3.org/2000/svg" width="132.975" height="132.3" viewBox="0 0 132.975 132.3"><g transform="translate(-32.9 -32.6)"><circle cx="49.1" cy="49.1" r="49.1" transform="translate(34.9 34.6)" fill="#fff"/><path d="M84,134.8a51.1,51.1,0,1,1,51.1-51.1h0A51.192,51.192,0,0,1,84,134.8Zm0-98.1a47.05,47.05,0,1,0,47.1,47h0A47.031,47.031,0,0,0,84,36.7Z" fill="#b8b8b8"/><path d="M111.6,72.3H95.4V56.1H72.6V72.3H56.3V95.1H72.6v16.3H95.4V95.1h16.2Z" fill="#fff"/><path d="M97.4,113.4H70.6V97.1H54.3V70.3H70.5V54.1H97.3V70.3h16.2V97.1H97.4Zm-22.8-4H93.4V93.1h16.2V74.3H93.4V58.1H74.6V74.3H58.3V93.1H74.5v16.3Z" fill="#b8b8b8"/><path d="M152.8,81l8,8a12.011,12.011,0,0,1,0,17l-53.9,53.9a12.011,12.011,0,0,1-17,0l-8-8a12.011,12.011,0,0,1,0-17L135.8,81A12.011,12.011,0,0,1,152.8,81Z" fill="#fff6e6"/><path d="M98.4,164.9a13.386,13.386,0,0,1-9.5-3.9l-8-8a13.46,13.46,0,0,1,0-19.1L134.8,80a13.46,13.46,0,0,1,19.1,0l8,8a13.46,13.46,0,0,1,0,19.1L108,161A13.621,13.621,0,0,1,98.4,164.9ZM144.3,79a10.2,10.2,0,0,0-7.4,3.1L83,135.9a10.562,10.562,0,0,0,0,14.9l8,8a10.442,10.442,0,0,0,14.8,0l53.9-53.9a10.442,10.442,0,0,0,0-14.8l-8-8A10.2,10.2,0,0,0,144.3,79Z" fill="#b8b8b8"/><rect width="36.5" height="22.2" transform="translate(99.947 126.26) rotate(-45)" fill="#fff6e6"/><path d="M115.6,144,97.8,126.2l27.9-27.9,17.8,17.8Zm-13.5-17.8,13.5,13.5L139.3,116l-13.5-13.5Z" fill="#b8b8b8"/><circle cx="2.1" cy="2.1" r="2.1" transform="translate(136 92.6)" fill="#b8b8b8"/><circle cx="2.1" cy="2.1" r="2.1" transform="translate(140.9 97.5)" fill="#b8b8b8"/><circle cx="2.1" cy="2.1" r="2.1" transform="translate(145.8 102.4)" fill="#b8b8b8"/><circle cx="2.1" cy="2.1" r="2.1" transform="translate(129.9 94)" fill="#b8b8b8"/><circle cx="2.1" cy="2.1" r="2.1" transform="translate(134.8 98.9)" fill="#b8b8b8"/><circle cx="2.1" cy="2.1" r="2.1" transform="translate(139.7 103.8)" fill="#b8b8b8"/><circle cx="2.1" cy="2.1" r="2.1" transform="translate(144.4 108.5)" fill="#b8b8b8"/><circle cx="2.1" cy="2.1" r="2.1" transform="translate(143.4 85.2)" fill="#b8b8b8"/><circle cx="2.1" cy="2.1" r="2.1" transform="translate(148.3 90.1)" fill="#b8b8b8"/><circle cx="2.1" cy="2.1" r="2.1" transform="translate(153.2 95)" fill="#b8b8b8"/><circle cx="2.1" cy="2.1" r="2.1" transform="translate(137.3 86.6)" fill="#b8b8b8"/><circle cx="2.1" cy="2.1" r="2.1" transform="translate(142.2 91.5)" fill="#b8b8b8"/><circle cx="2.1" cy="2.1" r="2.1" transform="translate(147.1 96.4)" fill="#b8b8b8"/><circle cx="2.1" cy="2.1" r="2.1" transform="translate(151.8 101.1)" fill="#b8b8b8"/><circle cx="2.1" cy="2.1" r="2.1" transform="translate(101.9 146.3)" fill="#b8b8b8"/><circle cx="2.1" cy="2.1" r="2.1" transform="translate(97 141.4)" fill="#b8b8b8"/><circle cx="2.1" cy="2.1" r="2.1" transform="translate(92.1 136.5)" fill="#b8b8b8"/><circle cx="2.1" cy="2.1" r="2.1" transform="translate(108 144.9)" fill="#b8b8b8"/><circle cx="2.1" cy="2.1" r="2.1" transform="translate(103.1 140)" fill="#b8b8b8"/><circle cx="2.1" cy="2.1" r="2.1" transform="translate(98.2 135.1)" fill="#b8b8b8"/><circle cx="2.1" cy="2.1" r="2.1" transform="translate(93.5 130.4)" fill="#b8b8b8"/><circle cx="2.1" cy="2.1" r="2.1" transform="translate(94.5 153.7)" fill="#b8b8b8"/><circle cx="2.1" cy="2.1" r="2.1" transform="translate(89.6 148.8)" fill="#b8b8b8"/><circle cx="2.1" cy="2.1" r="2.1" transform="translate(84.7 143.9)" fill="#b8b8b8"/><circle cx="2.1" cy="2.1" r="2.1" transform="translate(100.6 152.3)" fill="#b8b8b8"/><circle cx="2.1" cy="2.1" r="2.1" transform="translate(95.7 147.4)" fill="#b8b8b8"/><circle cx="2.1" cy="2.1" r="2.1" transform="translate(90.8 142.5)" fill="#b8b8b8"/><circle cx="2.1" cy="2.1" r="2.1" transform="translate(86.1 137.8)" fill="#b8b8b8"/></g></svg>