<svg xmlns="http://www.w3.org/2000/svg" width="108.783" height="130.5" viewBox="0 0 108.783 130.5"><g transform="translate(-45.564 -29.5)"><path d="M95.6,160H59.3a4.268,4.268,0,0,1-4.3-4.3V142.2a4.268,4.268,0,0,1,4.3-4.3H95.7a4.268,4.268,0,0,1,4.3,4.3v13.5a4.354,4.354,0,0,1-4.4,4.3ZM59.3,141.8a.319.319,0,0,0-.3.3v13.5a.319.319,0,0,0,.3.3H95.7a.319.319,0,0,0,.3-.3V142.1a.319.319,0,0,0-.3-.3Z" fill="#b8b8b8"/><path d="M147.9,114.6a5.9,5.9,0,0,1-1.4-.2l-34.4-11.7a4.279,4.279,0,0,1-2.7-5.5l2.1-6.2a4.279,4.279,0,0,1,5.5-2.7h0L151.4,100a4.279,4.279,0,0,1,2.7,5.5h0l-2.2,6.2a4.524,4.524,0,0,1-2.2,2.5A4.776,4.776,0,0,1,147.9,114.6ZM115.6,92h-.2c-.1,0-.1.1-.2.2l-2.1,6.2c-.1.2,0,.4.2.4l34.4,11.7h.3c.1,0,.1-.1.2-.2l2.1-6.2v-.3c0-.1-.1-.1-.2-.2L115.7,92Z" fill="#b8b8b8"/><path d="M92.9,133.9H62a7.509,7.509,0,0,1-7.5-6.8L45.6,37.8a7.551,7.551,0,0,1,6.8-8.3h49.5a7.6,7.6,0,0,1,7.6,7.6v.7l-8.9,89.3A7.769,7.769,0,0,1,92.9,133.9ZM53.1,33.5a3.571,3.571,0,0,0-2.7,1.2,3.658,3.658,0,0,0-.9,2.8l8.9,89.3A3.589,3.589,0,0,0,62,130H92.9a3.663,3.663,0,0,0,3.6-3.2l8.9-89.3a3.658,3.658,0,0,0-.9-2.8,3.424,3.424,0,0,0-2.7-1.2Z" fill="#b8b8b8"/><path d="M144.2,159.3H113.8a4.313,4.313,0,0,1-4.3-4.2l-3-29.9a4.268,4.268,0,0,1,4.3-4.3h3.3v-4.3H144v4.3h3.3a4.268,4.268,0,0,1,4.3,4.3v.2l-3,29.7A4.4,4.4,0,0,1,144.2,159.3ZM110.5,125l3,29.9a.265.265,0,0,0,.3.3h30.4a.319.319,0,0,0,.3-.3v-.2l3-29.7a.319.319,0,0,0-.3-.3H140v-4.3H118.1v4.3h-7.3A.319.319,0,0,0,110.5,125Z" fill="#b8b8b8"/><rect width="27.2" height="71.3" transform="translate(63.9 42.5)" fill="#cbe8f0"/><path d="M93,115.8H61.9V40.5H93Zm-27.2-4H89V44.5H65.9Z" fill="#b8b8b8"/><rect width="23" height="9.3" transform="translate(117.5 134.3)" fill="#e6ebb1"/><path d="M142,145.2H116V132.9h26Zm-23-3h20v-6.3H119Z" fill="#b8b8b8"/></g></svg>