<svg xmlns="http://www.w3.org/2000/svg" width="110.146" height="91.899" viewBox="0 0 110.146 91.899"><g transform="translate(-39.968 -54.331)"><path d="M94.8,145.6c-.8-1.4-1.6-2.7-2.3-4a2.232,2.232,0,0,1-.3-1.4c.4-2.2,1-4.4,1.4-6.6s1.8-3.2,3.4-4.3a31.015,31.015,0,0,0,4.6-3.5,19.414,19.414,0,0,1,6.2-4c.4-.1.7-.6,1-.9-.4-.4-.8-1-1.2-1.1a10.987,10.987,0,0,0-3.6.3,31.742,31.742,0,0,0-4.2,1.9,5.518,5.518,0,0,1,.3-5c1.6-2.6,3.3-5.1,5-7.6a14.8,14.8,0,0,0,.8-1.3c.3-.7.5-1.3-.3-1.8a1.417,1.417,0,0,0-1.9.3.1.1,0,0,1-.1.1l-4.4,5.5c-.4.5-.9,1.1-1.3,1.5a6.117,6.117,0,0,1-1.2.5,5.067,5.067,0,0,1-.2-1.3,5.274,5.274,0,0,1,.3-1.2l2.7-7.5c.1-.1.1-.3.2-.4.3-1.2,0-2.1-.8-2.5s-1.4.2-1.9,1.5c-1.2,3-2.5,6-3.8,9a4.129,4.129,0,0,1-.7,1.1l-.3-.1a8.083,8.083,0,0,1-.1-1.6c.3-2.6.6-5.1,1-7.7a7.569,7.569,0,0,0,.1-1.5,1.408,1.408,0,0,0-1.3-1.4h0c-.8-.1-1,.6-1.1,1.2-.7,3.3-1.4,6.6-2.1,9.8a16.18,16.18,0,0,1-1,1.8,9.908,9.908,0,0,1-1.1-1.7c-.6-1.8-1-3.8-1.5-5.6a2.384,2.384,0,0,0-.6-1.1,1.128,1.128,0,0,0-1.1-.3c-.3.1-.5.6-.6,1a6.6,6.6,0,0,0,.1,1.4c.3,2.1.8,4.1.9,6.2a24.786,24.786,0,0,1-.1,4.7c-.3,3.4-.7,6.7-1.1,10.1a7.754,7.754,0,0,0-.1.9,2.7,2.7,0,0,1-.7-.8c-1.8-2.7-3.5-5.4-5.2-8a52.706,52.706,0,0,0-3.1-4.6,24.433,24.433,0,0,0-2.7-2.9,45.087,45.087,0,0,0-4.7-4c-2.5-2-5.1-4-7.7-6-1.1-1-2.3-1.8-3.3-2.8-.8-.8-1.5-1.7-.9-2.9a3.56,3.56,0,0,1,3.5-1.5,6.715,6.715,0,0,1,2.3,1c4.3,2.8,8.5,5.6,12.8,8.3.8.6,1.9,1.3,2.8.4s.2-1.9-.3-2.7c-3.7-6.4-7.3-12.7-11.1-19l-1.8-3.2c-1-1.7-1-2.6-.1-3.5a3.628,3.628,0,0,1,4.3-.5A14.21,14.21,0,0,1,69,78.8c3.3,4.6,6.5,9.2,9.7,13.8.9,1.2,1.9,2.4,2.9,3.5.2.3.7.3,1,.5.1-.4.3-.8.2-1.1l-2.7-8.1c-1.8-5.4-3.6-10.6-5.4-15.9a10.891,10.891,0,0,1-.5-2.6c-.1-2.3,1.5-3.6,3.8-3,2,.5,3,2.1,3.7,3.9,1.1,2.5,2.1,5,3.2,7.6,1.5,3.5,2.9,7.1,4.4,10.6a20.16,20.16,0,0,0,1.8,3.2c.8,1.1,1.9.8,2.1-.5a32.523,32.523,0,0,0,.2-5.4c-.2-4.1-.6-8.2-.9-12.3a3.194,3.194,0,0,0-.3-1.4c-4-7.6-10-13.4-18.6-16A26.173,26.173,0,0,0,45,64.4a24.791,24.791,0,0,0-5,16.2c.1,7.3,2.5,14,6,20.3,5,9.1,11.8,16.7,19.3,23.7A212.038,212.038,0,0,0,92.9,146C93.8,146.5,94.2,146.1,94.8,145.6Z" fill="#d2ea8f"/><path d="M110.1,100.9c.2-.6.4-1,.6-1.5,1.1-2.8,2.1-5.6,3.3-8.3a13.137,13.137,0,0,1,5.9-6.4,5.834,5.834,0,0,1,2.6-.6c2,.1,2.6,1.4,1.7,3.2a62.837,62.837,0,0,0-2.7,5.9,34.08,34.08,0,0,0-2.1,11c-.4,4.6-.8,9.1-2.4,13.5a51.711,51.711,0,0,0-1.6,6.8,5.073,5.073,0,0,0,.4,2.4,35.882,35.882,0,0,0,1.7,3.4c1.9-1.6,3.8-3.1,5.6-4.7a102.053,102.053,0,0,0,17.8-19.3A49.928,49.928,0,0,0,149.7,86c2.2-13.1-4.5-24.9-16.8-28.9-10-3.2-19.1-1-27.1,5.5a66.3,66.3,0,0,0-5.2,5.4,2.779,2.779,0,0,0-.8,2.6c1.2,7.2,2.2,14.4,3.5,21.6C103.9,96.1,106.8,98.6,110.1,100.9Z" fill="#d2ea8f"/></g></svg>