<svg xmlns="http://www.w3.org/2000/svg" width="97.854" height="128.9" viewBox="0 0 97.854 128.9"><g transform="translate(-46.073 -31.5)"><path d="M116.1,160.4c-11,0-17.5-6.5-21.6-11.7-4.8-6.1-15.9-14.9-27.1-21.4-1.6-.9-3.3-1.8-4.9-2.7-9.2-5-18.8-10.3-15.9-20.3a34.153,34.153,0,0,1,7.5-13.4,22.361,22.361,0,0,0,3.8-5.8c1.6-4,5-34.3,6.9-53.6l4,.4c-.5,5-4.8,48.8-7.2,54.7a25.607,25.607,0,0,1-4.4,6.8,33.535,33.535,0,0,0-6.8,12c-1.9,6.5,4,10.3,14,15.7,1.6.9,3.3,1.8,5,2.8,9.4,5.5,22.3,14.9,28.2,22.4,6.5,8.3,13.6,11.3,22.9,9.8,12.2-2,17.2-8.5,18.1-10.6.2-.4.3-.7.5-1.1.6-1.4,1.3-2.9.8-3.8s-1.8-1.7-3.9-2.3c-.4-.1-11-3.2-15.2-6.4-2.6-2-4.2-6.2-6.4-12.1a120.921,120.921,0,0,0-6.7-15.2c-1.4-2.6-2.8-4.8-4-6.8-4.2-6.7-7-11.1-5.4-22.4,1.9-13.7,9.1-39.4,9.4-40.5l3.8,1.1c-.1.3-7.5,26.5-9.3,39.9-1.3,9.8.7,13.2,4.8,19.8,1.2,2,2.6,4.2,4.1,7a115.075,115.075,0,0,1,6.9,15.7c1.8,4.8,3.4,9,5.1,10.3,2.9,2.3,11,4.9,13.9,5.7,3.4,1,5.5,2.5,6.4,4.5,1.2,2.6.1,5.1-.8,7.1-.1.3-.3.7-.4,1-1.6,4.1-8.6,11-21.1,13.1C119.5,160.2,117.8,160.4,116.1,160.4Z" fill="#b8b8b8"/><path d="M64.5,44.2s37.8,6.8,40.1,7.6,2.3,1.8,2,3.1-5.2,21.2-4.6,26.5,1.7,8.9,4.7,12.9,7.9,13.6,9.6,17.1,2,4.6,1.5,6.1-25.5,26.1-27.3,27.2-5.5-3.4-11.2-7.4a126.72,126.72,0,0,0-13.2-8.2c-3.4-1.8-6.4-2-5.9-6.5s1.1-14.7,0-22.4a39.811,39.811,0,0,0-4.8-13.8c-.7-1.5-.3-2.8,1.4-8.3s4-30.5,4.8-32.3A2.967,2.967,0,0,1,64.5,44.2Z" fill="#b8b8b8"/></g></svg>