<?xml version="1.0" encoding="utf-8"?>
<!-- Generator: Adobe Illustrator 22.1.0, SVG Export Plug-In . SVG Version: 6.00 Build 0)  -->
<svg version="1.1" id="Слой_1" xmlns="http://www.w3.org/2000/svg" xmlns:xlink="http://www.w3.org/1999/xlink" x="0px" y="0px"
	 viewBox="0 0 190 190" style="enable-background:new 0 0 190 190;" xml:space="preserve">
<style type="text/css">
	.st0{fill:#B8B8B8;}
	.st1{fill:#EEF5E8;}
	.st2{fill:#FFFFFF;}
</style>
<title>иконки2 svg</title>
<path class="st0" d="M96.8,147.9H46.1c-7.7,0-14-6.3-14-14V74c0-7.7,6.3-14,14-14h50.8c7.7,0,14,6.3,14,14v59.9
	C110.8,141.6,104.6,147.9,96.8,147.9C96.8,147.9,96.8,147.9,96.8,147.9z M46.1,64c-5.5,0-10,4.5-10,10v59.9c0,5.5,4.5,10,10,10h50.8
	c5.5,0,10-4.5,10-10V74c0-5.5-4.5-10-10-10H46.1z"/>
<path class="st0" d="M100.5,53H42.4V30.8h58.1V53z M46.4,49h50.1V34.8H46.4V49z"/>
<rect x="34.1" y="85.4" class="st1" width="29.2" height="40.9"/>
<path class="st0" d="M65.3,128.3H32.1V83.4h33.2V128.3z M36.1,124.3h25.2V87.4H36.1L36.1,124.3z"/>
<circle class="st2" cx="101.6" cy="104" r="23.4"/>
<path class="st0" d="M101.6,129.3c-14,0-25.4-11.4-25.4-25.4s11.4-25.4,25.4-25.4S127,89.9,127,104c0,0,0,0,0,0
	C126.9,118,115.6,129.3,101.6,129.3z M101.6,82.6c-11.8,0-21.4,9.6-21.4,21.4s9.6,21.4,21.4,21.4c11.8,0,21.4-9.5,21.4-21.3
	C123,92.2,113.4,82.6,101.6,82.6z"/>
<circle class="st2" cx="130.8" cy="133.3" r="27.2"/>
<path class="st0" d="M130.8,162.4c-16.1,0-29.2-13.1-29.2-29.2c0-16.1,13.1-29.2,29.2-29.2c16.1,0,29.2,13.1,29.2,29.2l0,0
	C159.9,149.4,146.9,162.4,130.8,162.4z M130.8,108.1c-13.9,0-25.2,11.3-25.2,25.2s11.3,25.2,25.2,25.2s25.2-11.3,25.2-25.2l0,0
	C155.9,119.4,144.7,108.1,130.8,108.1z"/>
<circle class="st2" cx="97.7" cy="142" r="18.4"/>
<path class="st0" d="M97.7,162.4c-11.3,0-20.5-9.1-20.5-20.4c0-11.3,9.1-20.5,20.4-20.5s20.5,9.1,20.5,20.4c0,0,0,0,0,0
	C118.2,153.3,109,162.4,97.7,162.4z M97.7,125.5c-9.1,0-16.5,7.4-16.5,16.4c0,9.1,7.4,16.5,16.4,16.5s16.5-7.4,16.5-16.4
	c0,0,0,0,0,0C114.2,132.9,106.8,125.6,97.7,125.5z"/>
<path class="st0" d="M89.5,150l6.8-16.4h3.3l6.8,16.4h-4l-1.4-3.4h-6.5l-1.4,3.4H89.5z M97.9,138.4l-1.8,4.6h3.7L97.9,138.4z"/>
<path class="st0" d="M124.9,144.5v-21.1h12.5v4.5h-7.7v3.7h6.8v4.5h-6.8v3.9h8v4.5L124.9,144.5z"/>
<path class="st0" d="M106.4,106.9l1.4,2.8c-0.6,0.6-1.4,1.1-2.2,1.4c-1,0.4-2.1,0.5-3.1,0.5c-2.3,0.1-4.5-0.7-6.2-2.3
	c-1.6-1.6-2.5-3.8-2.4-6.1c-0.1-2.2,0.7-4.4,2.3-6.1c1.7-1.7,4-2.5,6.3-2.4c1,0,2,0.2,2.9,0.5c0.8,0.3,1.5,0.7,2.1,1.2l-1.7,2.8
	c-1-0.6-2.2-1-3.3-1c-1.2,0-2.4,0.4-3.3,1.3c-0.9,1-1.4,2.3-1.3,3.7c-0.1,2.6,1.9,4.9,4.5,5c0.2,0,0.3,0,0.5,0
	C104.2,108.1,105.4,107.7,106.4,106.9z"/>
<path class="st2" d="M130.2,112.9c0,0,15.5,1.9,19.7,15.4"/>
<path class="st0" d="M149.8,129.3c-0.4,0-0.8-0.3-0.9-0.7c-3.9-12.7-18.7-14.7-18.8-14.7c-0.5-0.1-0.9-0.6-0.9-1.1c0,0,0,0,0,0
	c0.1-0.5,0.6-0.9,1.1-0.9c0,0,0,0,0,0c0.2,0,16.2,2.2,20.5,16.1c0.2,0.5-0.1,1.1-0.7,1.3C150,129.3,149.9,129.3,149.8,129.3z"/>
</svg>
