<?xml version="1.0" encoding="utf-8"?>
<!-- Generator: Adobe Illustrator 22.1.0, SVG Export Plug-In . SVG Version: 6.00 Build 0)  -->
<svg version="1.1" id="Слой_1" xmlns="http://www.w3.org/2000/svg" xmlns:xlink="http://www.w3.org/1999/xlink" x="0px" y="0px"
	 viewBox="0 0 190 190" style="enable-background:new 0 0 190 190;" xml:space="preserve">
<style type="text/css">
	.st0{fill:#B8B8B8;}
	.st1{fill:#FFFFFF;}
	.st2{fill:#BAE3FA;}
	.st3{fill:#A2D9F1;}
</style>
<title>иконки2 svg</title>
<path class="st0" d="M88.4,43.2c-0.5,0-1-0.2-1.4-0.6c-0.8-0.8-0.8-2,0-2.8c0,0,0,0,0,0l5-5.1c0.4-0.4,0.9-0.6,1.4-0.6h33.4
	c1.1,0,2,0.9,2,2s-0.9,2-2,2H94.3l-4.5,4.5C89.4,43,88.9,43.2,88.4,43.2z"/>
<path class="st0" d="M121.9,63.4h-14.4c-3.3,0-6-2.7-6-6V46.6c0-3.3,2.7-6,6-6h14.4c3.3,0,6,2.7,6,6v10.9
	C127.8,60.8,125.2,63.4,121.9,63.4z M107.5,44.6c-1.1,0-2,0.9-2,2v10.9c0,1.1,0.9,2,2,2h14.4c1.1,0,2-0.9,2-2V46.6c0-1.1-0.9-2-2-2
	H107.5z"/>
<path class="st1" d="M113.7,32.4h2c2.2,0,4,1.8,4,4v2.3c0,2.2-1.8,4-4,4h-2c-2.2,0-4-1.8-4-4v-2.3C109.7,34.1,111.5,32.4,113.7,32.4
	z"/>
<path class="st0" d="M115.7,44.6h-2c-3.3,0-6-2.7-6-6v-2.3c0-3.3,2.7-6,6-6h2c3.3,0,6,2.7,6,6v2.3C121.6,42,119,44.6,115.7,44.6z
	 M115.7,34.4h-2c-1.1,0-2,0.9-2,2v2.3c0,1.1,0.9,2,2,2h2c1.1,0,2-0.9,2-2v-2.4C117.6,35.2,116.7,34.4,115.7,34.4z"/>
<path class="st0" d="M125.1,151.5h-20.8c-7.7,0-14-6.3-14-14V82.8c0-7.7,6.3-14,14-14h20.8c7.7,0,14,6.3,14,14v54.7
	C139.1,145.2,132.8,151.5,125.1,151.5z M104.3,72.8c-5.5,0-10,4.5-10,10v54.7c0,5.5,4.5,10,10,10h20.8c5.5,0,10-4.5,10-10V82.8
	c0-5.5-4.5-10-10-10H104.3z"/>
<path class="st1" d="M98.7,58.3h31.9c2.2,0,4,1.8,4,4v4.6c0,2.2-1.8,4-4,4H98.7c-2.2,0-4-1.8-4-4v-4.6
	C94.8,60.1,96.5,58.3,98.7,58.3z"/>
<path class="st0" d="M130.7,72.8H98.7c-3.3,0-6-2.7-6-6v-4.6c0-3.3,2.7-6,6-6h31.9c3.3,0,6,2.7,6,6v4.7
	C136.6,70.2,133.9,72.8,130.7,72.8z M98.7,60.3c-1.1,0-2,0.9-2,2c0,0,0,0,0,0v4.6c0,1.1,0.9,2,2,2h31.9c1.1,0,2-0.9,2-2v-4.7
	c0-1.1-0.9-2-2-2L98.7,60.3z"/>
<path class="st2" d="M125.4,106.4H118V99c0-1.8-1.5-3.3-3.3-3.3c-1.8,0-3.3,1.5-3.3,3.3v7.4H104c-1.8,0-3.3,1.5-3.3,3.3
	c0,1.8,1.5,3.3,3.3,3.3h7.4v7.4c0,1.8,1.5,3.3,3.3,3.3c1.8,0,3.3-1.5,3.3-3.3V113h7.4c1.8,0,3.3-1.5,3.3-3.3
	C128.7,107.8,127.2,106.4,125.4,106.4z"/>
<path class="st2" d="M53.7,140.8c-8.5,0-15.3-6.9-15.3-15.4c0-8.5,6.9-15.3,15.4-15.3c8.5,0,15.3,6.9,15.3,15.4c0,2-0.4,3.9-1.1,5.7
	l0,0C65.6,137,59.9,140.8,53.7,140.8z M53.7,113.1c-6.8,0-12.4,5.5-12.4,12.3s5.5,12.4,12.3,12.4c6.8,0,12.4-5.5,12.4-12.3
	c0-5.1-3.1-9.6-7.7-11.5C56.8,113.4,55.2,113.1,53.7,113.1z"/>
<path class="st2" d="M105.8,161.8c-8.5,0-15.3-6.9-15.3-15.4c0-8.5,6.9-15.3,15.4-15.3s15.3,6.9,15.3,15.4c0,2-0.4,3.9-1.1,5.7
	C117.7,158,112,161.8,105.8,161.8z M105.8,134.1c-6.8,0-12.3,5.5-12.4,12.3c0,6.8,5.5,12.3,12.3,12.4c5,0,9.6-3.1,11.5-7.7l0,0
	c2.5-6.3-0.5-13.5-6.9-16.1C108.9,134.4,107.3,134.1,105.8,134.1z"/>
<path class="st2" d="M66.2,110.2l41.1,16.5c3,1.2,4.5,4.7,3.3,7.7l-9.6,24c-1.2,3-4.7,4.5-7.7,3.3l-41.1-16.5
	c-3-1.2-4.5-4.7-3.3-7.7l9.6-24C59.7,110.5,63.1,109,66.2,110.2z"/>
<path class="st3" d="M60.1,126.3l40.4,16.2c0.8,0.3,1.2,1.2,0.9,2l0,0c-0.3,0.8-1.2,1.2-2,0.9L59,129.2c-0.8-0.3-1.2-1.2-0.9-2l0,0
	C58.4,126.4,59.3,126,60.1,126.3z"/>
<path class="st3" d="M58,131.7l40.4,16.2c0.8,0.3,1.2,1.2,0.9,2v0c-0.3,0.8-1.2,1.2-2,0.9l-40.4-16.2c-0.8-0.3-1.2-1.2-0.9-2l0,0
	C56.3,131.8,57.2,131.4,58,131.7z"/>
<path class="st3" d="M55.8,137.1l40.4,16.2c0.8,0.3,1.2,1.2,0.9,2l0,0c-0.3,0.8-1.2,1.2-2,0.9l-40.4-16.2c-0.8-0.3-1.2-1.2-0.9-2
	l0,0C54.1,137.1,55,136.8,55.8,137.1z"/>
</svg>
