<?xml version="1.0" encoding="utf-8"?>
<!-- Generator: Adobe Illustrator 22.1.0, SVG Export Plug-In . SVG Version: 6.00 Build 0)  -->
<svg version="1.1" id="Слой_1" xmlns="http://www.w3.org/2000/svg" xmlns:xlink="http://www.w3.org/1999/xlink" x="0px" y="0px"
	 viewBox="0 0 190 190" style="enable-background:new 0 0 190 190;" xml:space="preserve">
<style type="text/css">
	.st0{fill:#F4CFCE;}
	.st1{fill:#B8B8B8;}
	.st2{fill:#FFFFFF;}
	.st3{fill:#DEE9BC;}
</style>
<title>иконки2 svg</title>
<path class="st0" d="M103.6,60.6c-4.4,0-8.7,0.9-12.6,2.7c-4-1.8-8.3-2.7-12.6-2.7c-18.2,0-33,15.9-33,35.5s14.8,35.5,33,35.5
	c4.3,0,8.6-0.9,12.6-2.7c4,1.8,8.3,2.7,12.6,2.7c18.2,0,33-15.9,33-35.5S121.8,60.6,103.6,60.6z"/>
<path class="st1" d="M103.6,133.7c-4.3,0-8.6-0.8-12.6-2.5c-4,1.7-8.3,2.5-12.6,2.5c-19.3,0-35-16.8-35-37.5s15.7-37.5,35-37.5
	c4.3,0,8.6,0.8,12.6,2.5c4-1.7,8.3-2.5,12.6-2.5c19.3,0,35,16.8,35,37.5S122.9,133.7,103.6,133.7z M91,126.8l0.8,0.4
	c3.7,1.7,7.7,2.5,11.8,2.5c17.1,0,31-15.1,31-33.5s-13.9-33.5-31-33.5c-4.1,0-8.1,0.9-11.8,2.5L91,65.5l-0.8-0.4
	c-3.7-1.7-7.7-2.5-11.8-2.5c-17.1,0-31,15-31,33.5s13.9,33.5,31,33.5c4.1,0,8.1-0.9,11.8-2.5L91,126.8z"/>
<path class="st2" d="M80.3,41.8c0,0,11.1,8.2,10.7,21.5"/>
<path class="st1" d="M93,63.4l-4-0.1c0.3-12.1-9.8-19.7-9.9-19.8l2.4-3.2C82,40.6,93.4,49.1,93,63.4z"/>
<path class="st3" d="M95,52.6c0,0-4.8-18.8,22.7-19.9C117.7,32.7,113.5,56.8,95,52.6z"/>
<path class="st1" d="M99.2,55.1c-1.6,0-3.1-0.2-4.7-0.6l-1.2-0.3l-0.3-1.2c-1-4.7,0-9.7,2.8-13.6c4-5.4,11.3-8.3,21.7-8.8l2.5-0.1
	l-0.4,2.4c-0.1,0.5-2.4,13.5-11.2,19.3C105.7,54.1,102.5,55.1,99.2,55.1z M96.7,50.9c3.3,0.6,6.7-0.1,9.5-1.9
	c5.2-3.5,7.8-10.4,8.8-14.1c-7.7,0.7-13.1,3-16,7C97.2,44.5,96.4,47.7,96.7,50.9z"/>
<path class="st2" d="M38.5,93.4c0,0,16,14.3,68.9,12.3v33.5c0,0-44.7,6.3-68.9-13V93.4z"/>
<path class="st1" d="M90.4,142.3c-15.5,0-38-2.4-53.2-14.4l-0.8-0.6V88.9l3.3,3c0.3,0.2,16.5,13.8,67.5,11.8l2.1-0.1V141l-1.7,0.2
	C101.9,142,96.2,142.3,90.4,142.3z M40.5,125.3c20.8,15.7,56.6,13.1,64.9,12.2v-29.6c-39.3,1.2-58-6.6-64.9-10.7L40.5,125.3z"/>
<rect x="96" y="105.9" class="st1" width="4" height="18.3"/>
<rect x="71.3" y="104.6" class="st1" width="4" height="18.3"/>
<rect x="47.8" y="98.7" class="st1" width="4" height="18.3"/>
<rect x="91.1" y="105.9" class="st1" width="2" height="10.9"/>
<rect x="86.5" y="105.9" class="st1" width="2" height="10.9"/>
<rect x="82.3" y="105.9" class="st1" width="2" height="10.9"/>
<rect x="78.2" y="105.9" class="st1" width="2" height="10.9"/>
<rect x="66.7" y="103.5" class="st1" width="2" height="10.9"/>
<rect x="62.1" y="102.5" class="st1" width="2" height="10.9"/>
<rect x="57.9" y="101.5" class="st1" width="2" height="10.9"/>
<rect x="53.8" y="100.5" class="st1" width="2" height="10.9"/>
<rect x="44.5" y="97.4" class="st1" width="2" height="10.9"/>
</svg>
