<?xml version="1.0" encoding="utf-8"?>
<!-- Generator: Adobe Illustrator 22.1.0, SVG Export Plug-In . SVG Version: 6.00 Build 0)  -->
<svg version="1.1" id="Слой_1" xmlns="http://www.w3.org/2000/svg" xmlns:xlink="http://www.w3.org/1999/xlink" x="0px" y="0px"
	 viewBox="0 0 190 190" style="enable-background:new 0 0 190 190;" xml:space="preserve">
<style type="text/css">
	.st0{fill:#FFFFFF;}
	.st1{fill:#B8B8B8;}
	.st2{fill:#FFF6E6;}
</style>
<circle class="st0" cx="84" cy="83.7" r="49.1"/>
<path class="st1" d="M84,134.8c-28.2,0-51.1-22.9-51.1-51.1S55.8,32.6,84,32.6s51.1,22.9,51.1,51.1c0,0,0,0,0,0
	C135,111.9,112.2,134.8,84,134.8z M84,36.7c-26,0-47.1,21.1-47.1,47.1S58,130.8,84,130.8s47.1-21.1,47.1-47.1l0,0
	C131.1,57.7,110,36.7,84,36.7z"/>
<polygon class="st0" points="111.6,72.3 95.4,72.3 95.4,56.1 72.6,56.1 72.6,72.3 56.3,72.3 56.3,95.1 72.6,95.1 72.6,111.4 
	95.4,111.4 95.4,95.1 111.6,95.1 "/>
<path class="st1" d="M97.4,113.4H70.6V97.1H54.3V70.3h16.2V54.1h26.8v16.2h16.2v26.8H97.4V113.4z M74.6,109.4h18.8V93.1h16.2V74.3
	H93.4V58.1H74.6v16.2H58.3v18.8h16.2V109.4z"/>
<path class="st2" d="M152.8,81l8,8c4.7,4.7,4.7,12.3,0,17l-53.9,53.9c-4.7,4.7-12.3,4.7-17,0l-8-8c-4.7-4.7-4.7-12.3,0-17L135.8,81
	C140.5,76.3,148.1,76.3,152.8,81z"/>
<path class="st1" d="M98.4,164.9c-3.6,0-7-1.4-9.5-3.9l-8-8c-5.3-5.3-5.3-13.8,0-19.1L134.8,80c5.3-5.3,13.8-5.3,19.1,0l8,8
	c5.3,5.3,5.3,13.8,0,19.1L108,161C105.5,163.5,102,164.9,98.4,164.9z M144.3,79c-2.8,0-5.5,1.1-7.4,3.1L83,135.9
	c-4.1,4.1-4.1,10.7,0,14.9l8,8c4.1,4.1,10.7,4.1,14.8,0l53.9-53.9c4.1-4.1,4.1-10.7,0-14.8l-8-8C149.8,80.1,147.1,79,144.3,79z"/>
<rect x="102.4" y="110.1" transform="matrix(0.7071 -0.7071 0.7071 0.7071 -50.3115 120.8153)" class="st2" width="36.5" height="22.2"/>
<path class="st1" d="M115.6,144l-17.8-17.8l27.9-27.9l17.8,17.8L115.6,144z M102.1,126.2l13.5,13.5l23.7-23.7l-13.5-13.5
	L102.1,126.2z"/>
<circle class="st1" cx="138.1" cy="94.7" r="2.1"/>
<circle class="st1" cx="143" cy="99.6" r="2.1"/>
<circle class="st1" cx="147.9" cy="104.5" r="2.1"/>
<circle class="st1" cx="132" cy="96.1" r="2.1"/>
<circle class="st1" cx="136.9" cy="101" r="2.1"/>
<circle class="st1" cx="141.8" cy="105.9" r="2.1"/>
<circle class="st1" cx="146.5" cy="110.6" r="2.1"/>
<circle class="st1" cx="145.5" cy="87.3" r="2.1"/>
<circle class="st1" cx="150.4" cy="92.2" r="2.1"/>
<circle class="st1" cx="155.3" cy="97.1" r="2.1"/>
<circle class="st1" cx="139.4" cy="88.7" r="2.1"/>
<circle class="st1" cx="144.3" cy="93.6" r="2.1"/>
<circle class="st1" cx="149.2" cy="98.5" r="2.1"/>
<circle class="st1" cx="153.9" cy="103.2" r="2.1"/>
<circle class="st1" cx="104" cy="148.4" r="2.1"/>
<circle class="st1" cx="99.1" cy="143.5" r="2.1"/>
<circle class="st1" cx="94.2" cy="138.6" r="2.1"/>
<circle class="st1" cx="110.1" cy="147" r="2.1"/>
<circle class="st1" cx="105.2" cy="142.1" r="2.1"/>
<circle class="st1" cx="100.3" cy="137.2" r="2.1"/>
<circle class="st1" cx="95.6" cy="132.5" r="2.1"/>
<circle class="st1" cx="96.6" cy="155.8" r="2.1"/>
<circle class="st1" cx="91.7" cy="150.9" r="2.1"/>
<circle class="st1" cx="86.8" cy="146" r="2.1"/>
<circle class="st1" cx="102.7" cy="154.4" r="2.1"/>
<circle class="st1" cx="97.8" cy="149.5" r="2.1"/>
<circle class="st1" cx="92.9" cy="144.6" r="2.1"/>
<circle class="st1" cx="88.2" cy="139.9" r="2.1"/>
</svg>
