<?xml version="1.0" encoding="utf-8"?>
<!-- Generator: Adobe Illustrator 22.1.0, SVG Export Plug-In . SVG Version: 6.00 Build 0)  -->
<svg version="1.1" id="Слой_1" xmlns="http://www.w3.org/2000/svg" xmlns:xlink="http://www.w3.org/1999/xlink" x="0px" y="0px"
	 viewBox="0 0 190 190" style="enable-background:new 0 0 190 190;" xml:space="preserve">
<style type="text/css">
	.st0{fill:#B8B8B8;}
	.st1{fill:#CBE8F0;}
	.st2{fill:#E6EBB1;}
</style>
<title>иконки2 svg</title>
<path class="st0" d="M95.6,160H59.3c-2.4,0-4.3-1.9-4.3-4.3v-13.5c0-2.4,1.9-4.3,4.3-4.3h36.4c2.4,0,4.3,1.9,4.3,4.3v13.5
	C100,158,98.1,160,95.6,160C95.7,160,95.7,160,95.6,160z M59.3,141.8c-0.2,0-0.3,0.2-0.3,0.3v13.5c0,0.2,0.2,0.3,0.3,0.3h36.4
	c0.2,0,0.3-0.2,0.3-0.3v-13.5c0-0.2-0.2-0.3-0.3-0.3H59.3z"/>
<path class="st0" d="M147.9,114.6c-0.5,0-1-0.1-1.4-0.2l-34.4-11.7c-2.3-0.8-3.5-3.2-2.7-5.5l2.1-6.2c0.8-2.3,3.2-3.5,5.5-2.7
	c0,0,0,0,0,0l34.4,11.7c2.3,0.8,3.5,3.2,2.7,5.5c0,0,0,0,0,0l-2.2,6.2c-0.4,1.1-1.2,2-2.2,2.5C149.2,114.4,148.6,114.6,147.9,114.6z
	 M115.6,92c0,0-0.1,0-0.2,0c-0.1,0-0.1,0.1-0.2,0.2l-2.1,6.2c-0.1,0.2,0,0.4,0.2,0.4l34.4,11.7c0.1,0,0.2,0,0.3,0
	c0.1,0,0.1-0.1,0.2-0.2l2.1-6.2c0-0.1,0-0.2,0-0.3c0-0.1-0.1-0.1-0.2-0.2L115.7,92H115.6z"/>
<path class="st0" d="M92.9,133.9H62c-3.9,0-7.2-3-7.5-6.8l-8.9-89.3c-0.4-4.2,2.6-7.9,6.8-8.3c0.3,0,0.5,0,0.8,0h48.7
	c4.2,0,7.6,3.4,7.6,7.6c0,0.2,0,0.5,0,0.7l-8.9,89.3C100.1,131,96.8,133.9,92.9,133.9z M53.1,33.5c-1,0-2,0.4-2.7,1.2
	c-0.7,0.8-1,1.8-0.9,2.8l8.9,89.3c0.2,1.8,1.7,3.2,3.6,3.2h30.9c1.8,0,3.4-1.4,3.6-3.2l8.9-89.3c0.1-1-0.2-2-0.9-2.8
	c-0.7-0.8-1.6-1.2-2.7-1.2L53.1,33.5z"/>
<path class="st0" d="M144.2,159.3h-30.4c-2.3,0-4.3-1.9-4.3-4.2l-3-29.9c0-2.4,1.9-4.3,4.3-4.3h3.3v-4.3H144v4.3h3.3
	c2.4,0,4.3,1.9,4.3,4.3v0.2l-3,29.7C148.5,157.4,146.6,159.3,144.2,159.3z M110.5,125l3,29.9c0,0.2,0.1,0.3,0.3,0.3h30.4
	c0.2,0,0.3-0.2,0.3-0.3v-0.2l3-29.7c0-0.2-0.2-0.3-0.3-0.3H140v-4.3h-21.9v4.3h-7.3C110.7,124.7,110.5,124.8,110.5,125z"/>
<rect x="63.9" y="42.5" class="st1" width="27.2" height="71.3"/>
<path class="st0" d="M93,115.8H61.9V40.5H93V115.8z M65.8,111.8H89V44.5H65.9L65.8,111.8z"/>
<rect x="117.5" y="134.3" class="st2" width="23" height="9.3"/>
<path class="st0" d="M142,145.2h-26v-12.3h26V145.2z M119,142.2h20v-6.3h-20V142.2z"/>
</svg>
