<?xml version="1.0" encoding="utf-8"?>
<!-- Generator: Adobe Illustrator 22.1.0, SVG Export Plug-In . SVG Version: 6.00 Build 0)  -->
<svg version="1.1" id="Слой_1" xmlns="http://www.w3.org/2000/svg" xmlns:xlink="http://www.w3.org/1999/xlink" x="0px" y="0px"
	 viewBox="0 0 190 190" style="enable-background:new 0 0 190 190;" xml:space="preserve">
<style type="text/css">
	.st0{fill:#F8C7DB;}
	.st1{fill:#AEDBF4;}
	.st2{fill:#B8B8B8;}
</style>
<title>иконки2 svg</title>
<circle class="st0" cx="113.4" cy="109.5" r="6.3"/>
<circle class="st0" cx="137.2" cy="109.5" r="6.3"/>
<circle class="st0" cx="113.4" cy="132.7" r="6.3"/>
<circle class="st0" cx="137.2" cy="132.7" r="6.3"/>
<rect x="43" y="94.4" class="st1" width="39.2" height="28"/>
<path class="st2" d="M108,110c0,0.5,0.1,0.9,0.2,1.4v-2.7C108.1,109.1,108,109.5,108,110z"/>
<path class="st2" d="M108.2,134.1v-2.7c-0.1,0.4-0.2,0.9-0.2,1.4C108,133.2,108.1,133.7,108.2,134.1z"/>
<path class="st2" d="M52.6,142.7c-4.4,0-7.9-3.6-7.9-7.9v-10.2h-3.2V92.5h3.2V80.1c0-4.4,3.6-7.9,7.9-7.9h7l0.5-1.2
	c1.3-2.8,4.1-4.6,7.2-4.6h-8.9c-0.5,0.6-1,1.2-1.4,1.8h-4.5c-6.6,0-11.9,5.4-11.9,11.9c0,0,0,0,0,0v54.6c0,6.6,5.3,11.9,11.9,11.9
	h42.9c-0.5-1.3-0.9-2.6-1-4H52.6z"/>
<path class="st2" d="M92.8,71l0.5,1.2h7c4.4,0,7.9,3.6,7.9,7.9V88h4v-7.9c0-6.6-5.3-11.9-11.9-11.9h-4.5c-0.4-0.6-0.9-1.2-1.4-1.8
	h-8.8C88.6,66.4,91.5,68.2,92.8,71z"/>
<path class="st2" d="M84.4,92.5H44.6v32.1h39.8V92.5z M80.4,120.6h-35V96.5h35V120.6z"/>
<rect x="41.4" y="92.5" class="st2" width="3.2" height="32.1"/>
<path class="st2" d="M67.3,62.4H57.1V47.2c0-0.6,0.4-1,1-1h36.7c0.6,0,1,0.4,1,1v15.2H85.6c3.4,0,6.6,1.5,8.8,4h5.4V47.2
	c0-2.8-2.2-5-5-5H58.1c-2.8,0-5,2.2-5,5v19.2h5.4C60.7,63.9,63.9,62.4,67.3,62.4z"/>
<path class="st2" d="M85.6,66.4h8.8c-2.2-2.5-5.5-4-8.8-4H67.3c-3.4,0-6.6,1.5-8.9,4H85.6z"/>
<path class="st2" d="M142.8,88h-30.6v4h30.6c5,0,9,4,9,9v40.6c0,5-4,9-9,9h-35.4c-3,0-5.8-1.5-7.5-4h-4.5c2,4.8,6.8,8,12,8h35.4
	c7.2,0,13-5.8,13-13V101C155.8,93.9,150,88,142.8,88z"/>
<path class="st2" d="M98.4,101c0-5,4-9,9-9h0.8v-4h-0.8c-7.2,0-13,5.8-13,13v40.6c0,0.3,0,0.7,0,1h4c0-0.3-0.1-0.7-0.1-1L98.4,101z"
	/>
<rect x="108.2" y="88" class="st2" width="4" height="4"/>
<path class="st2" d="M98.5,142.7h-4c0.1,1.4,0.5,2.7,1,4h4.5C99.2,145.5,98.7,144.1,98.5,142.7z"/>
<path class="st2" d="M137.2,119c5,0,9-4,9-9s-4-9-9-9s-9,4-9,9l0,0C128.2,115,132.2,119,137.2,119z M137.2,104.9c2.8,0,5,2.2,5,5
	s-2.2,5-5,5s-5-2.2-5-5C132.2,107.2,134.5,105,137.2,104.9L137.2,104.9z"/>
<path class="st2" d="M104,110c0,3.1,1.6,6,4.2,7.6v-6.3c-0.1-0.4-0.2-0.9-0.2-1.4c0-0.5,0.1-0.9,0.2-1.4v-6.3
	C105.6,104,104,106.9,104,110z"/>
<path class="st2" d="M113,105c2.8,0,5,2.2,5,5s-2.2,5-5,5c-0.3,0-0.6,0-0.8-0.1v4c0.3,0,0.6,0,0.8,0c4.9,0.5,9.4-3.1,9.9-8.1
	s-3.1-9.4-8.1-9.9c-0.6-0.1-1.2-0.1-1.8,0c-0.3,0-0.5,0-0.8,0v4C112.5,105,112.7,105,113,105z"/>
<path class="st2" d="M112.2,105v-4c-1.4,0.1-2.8,0.6-4,1.4v6.3C108.7,106.7,110.3,105.3,112.2,105z"/>
<path class="st2" d="M108.2,111.3v6.3c1.2,0.8,2.6,1.2,4,1.4v-4C110.3,114.7,108.7,113.2,108.2,111.3z"/>
<path class="st2" d="M137.2,141.8c5,0,9-4,9-9c0-5-4-9-9-9s-9,4-9,9C128.2,137.8,132.2,141.8,137.2,141.8z M137.2,127.7
	c2.8,0,5,2.2,5,5c0,2.8-2.2,5-5,5s-5-2.2-5-5c0,0,0,0,0,0C132.2,129.9,134.4,127.7,137.2,127.7z"/>
<path class="st2" d="M108.2,134.1c-0.1-0.4-0.2-0.9-0.2-1.4c0-0.5,0.1-0.9,0.2-1.4v-6.3c-4.2,2.6-5.5,8.2-2.8,12.4
	c0.4,0.6,0.9,1.2,1.4,1.7c0.9-1.3,1.4-2.9,1.4-4.5V134.1z"/>
<path class="st2" d="M113,127.7c2.8,0,5,2.3,5,5c0,2.8-2.3,5-5,5c-0.4,0-0.8-0.1-1.2-0.2c-0.3,1.3-0.9,2.6-1.6,3.7
	c0.9,0.3,1.8,0.5,2.8,0.4c5,0,9-4,9-9s-4-9-9-9c-0.3,0-0.6,0-0.8,0v4C112.5,127.7,112.7,127.7,113,127.7z"/>
<path class="st2" d="M108.2,134.1v0.6c0,1.6-0.5,3.2-1.4,4.5c1,0.9,2.2,1.6,3.4,2.1c0.7-1.1,1.3-2.4,1.6-3.7
	C110.1,137.2,108.7,135.9,108.2,134.1z"/>
<path class="st2" d="M108.2,131.4c0.5-1.9,2.1-3.3,4-3.6v-4c-1.4,0.1-2.8,0.6-4,1.4V131.4z"/>
</svg>
