<?xml version="1.0" encoding="utf-8"?>
<!-- Generator: Adobe Illustrator 22.1.0, SVG Export Plug-In . SVG Version: 6.00 Build 0)  -->
<svg version="1.1" id="Слой_1" xmlns="http://www.w3.org/2000/svg" xmlns:xlink="http://www.w3.org/1999/xlink" x="0px" y="0px"
	 viewBox="0 0 190 190" style="enable-background:new 0 0 190 190;" xml:space="preserve">
<style type="text/css">
	.st0{fill:#FFFFFF;}
	.st1{fill:#B8B8B8;}
	.st2{fill:#F6B4B7;}
</style>
<title>иконки2 svg</title>
<path class="st0" d="M46.4,64.6h78.5c6.6,0,12,5.4,12,12v49.5c0,6.6-5.4,12-12,12H46.4c-6.6,0-12-5.4-12-12V76.6
	C34.4,70,39.8,64.6,46.4,64.6z"/>
<path class="st1" d="M124.9,140.1H46.4c-7.7,0-14-6.3-14-14V76.6c0-7.7,6.3-14,14-14h78.5c7.7,0,14,6.3,14,14v0v49.5
	C138.9,133.8,132.6,140.1,124.9,140.1L124.9,140.1z M46.4,66.6c-5.5,0-10,4.5-10,10v49.5c0,5.5,4.5,10,10,10l0,0h78.5
	c5.5,0,10-4.5,10-10v0V76.6c0-5.5-4.5-10-10-10H46.4z"/>
<polyline class="st0" points="34.4,104.9 58.8,104.9 66.4,81 73.4,121 80.4,104.9 105.5,104.9 "/>
<polygon class="st1" points="72.6,127.9 65.8,89.4 60.3,106.9 34.4,106.9 34.4,102.9 57.3,102.9 67,72.6 74.2,114.1 79.1,102.9 
	105.5,102.9 105.5,106.9 81.7,106.9 "/>
<path class="st2" d="M136.9,62.7c0-0.1,0.1-0.1,0.1-0.2c0.9-1.5,2-2.9,3.2-4.2c1-1,2.2-1.9,3.5-2.5c0.9-0.5,2-0.8,3-1
	c0.7-0.1,1.4-0.2,2.1-0.1c1.7,0.1,3.4,0.5,4.9,1.3c1,0.5,2,1.1,2.9,1.8c0.6,0.5,1.1,1,1.5,1.6c0.9,1.2,1.7,2.6,2.2,4.1
	c0.3,1,0.6,2,0.8,3c0.2,1,0.2,2.1,0.1,3.1c-0.1,2.1-0.6,4.1-1.5,6c-0.7,1.6-1.7,3.1-2.8,4.5c-1.2,1.5-2.5,2.8-4,4.1
	c-1.2,1-2.5,2-3.7,2.9c-1.7,1.3-3.4,2.6-5.2,4c-1.4,1-2.7,2.1-3.9,3.3c-0.6,0.5-1.2,1.1-1.7,1.7c-0.5,0.5-0.9,1.1-1.4,1.7l-0.1,0.1
	c-0.1,0-0.1-0.1-0.1-0.1c-0.6-0.8-1.3-1.6-2-2.3c-1.5-1.5-3.1-2.8-4.8-4.1c-1.8-1.5-3.7-2.9-5.6-4.3c-1.1-0.8-2.2-1.7-3.3-2.6
	c-1.5-1.2-2.8-2.5-4-3.9c-1.3-1.6-2.4-3.3-3.2-5.2c-0.5-1.2-0.9-2.4-1.1-3.7c-0.1-0.6-0.2-1.2-0.2-1.8c0-0.4,0-0.7,0-1.1
	c0-0.6,0-1.3,0.1-1.9c0.2-1.5,0.6-3,1.2-4.4c0.5-1.2,1.2-2.3,2-3.3c0.5-0.6,1-1.1,1.6-1.5c1-0.8,2.2-1.4,3.4-1.9
	c0.9-0.4,1.8-0.7,2.8-0.8c0.7-0.1,1.4-0.2,2.1-0.1c1.8,0.1,3.6,0.7,5.2,1.7c1.2,0.7,2.2,1.6,3.1,2.7c1,1.1,1.9,2.3,2.6,3.5
	L136.9,62.7L136.9,62.7z"/>
<path class="st1" d="M136.9,99.8c-0.7,0-1.4-0.4-1.8-1c-0.5-0.7-1.1-1.4-1.7-2c-1.5-1.5-3.2-2.9-4.6-4s-3-2.3-4.5-3.5l-1.2-0.9
	c-1.1-0.8-2.2-1.6-3.2-2.5c-1.5-1.3-3-2.6-4.2-4.2c-1.4-1.7-2.6-3.6-3.5-5.7c-0.6-1.3-1-2.7-1.3-4.1c-0.1-0.7-0.2-1.4-0.3-2.1v-0.2
	c0-0.3,0-0.7,0-1c0-0.7,0-1.4,0.1-2.2c0.2-1.7,0.7-3.4,1.3-4.9c0.6-1.4,1.4-2.6,2.3-3.8c0.6-0.7,1.3-1.4,2-1.9
	c1.2-0.9,2.4-1.6,3.8-2.2c1-0.5,2.1-0.8,3.3-1c0.8-0.1,1.7-0.2,2.5-0.2c2.2,0.1,4.3,0.8,6.1,2c1.3,0.8,2.5,1.8,3.6,3
	c0.4,0.5,0.9,1,1.3,1.5c0.6-0.8,1.2-1.5,1.9-2.1c1.2-1.2,2.5-2.2,4-2.9c1.1-0.6,2.3-1,3.6-1.2c0.8-0.1,1.6-0.2,2.5-0.2
	c2,0.1,4,0.6,5.8,1.5c1.1,0.6,2.2,1.2,3.2,2c0.7,0.6,1.4,1.2,1.9,2c1.1,1.4,1.9,3,2.5,4.6c0.4,1.1,0.7,2.3,0.9,3.4
	c0.2,1.2,0.2,2.3,0.2,3.5c-0.1,2.3-0.7,4.6-1.7,6.8c-0.8,1.8-1.8,3.4-3.1,4.9c-1.3,1.6-2.7,3-4.3,4.3c-1,0.8-2.1,1.7-3.1,2.5
	l-1.6,1.2c-1.4,1.1-2.8,2.1-4.2,3.2s-2.7,2.2-3.8,3.2c-0.5,0.4-1.1,1-1.6,1.6c-0.4,0.5-0.8,0.9-1.2,1.4l-0.6,0.8l-1,0.2L136.9,99.8z
	 M138.5,96.8L138.5,96.8z M125.4,56.7c-0.5,0-0.9,0-1.4,0.1c-0.8,0.1-1.6,0.4-2.3,0.7c-1.1,0.5-2.1,1-3,1.7
	c-0.5,0.3-0.9,0.7-1.3,1.2c-0.7,0.9-1.3,1.8-1.7,2.9c-0.5,1.2-0.8,2.5-1,3.8c-0.1,0.5-0.1,1.1-0.1,1.6c0,0.3,0,0.6,0,0.8v0.2
	c0,0.5,0.1,1,0.2,1.5c0.2,1.1,0.5,2.2,1,3.3c0.7,1.7,1.7,3.3,2.9,4.7c1.1,1.3,2.4,2.5,3.7,3.6c1,0.8,2.1,1.6,3.1,2.4l1.2,0.9
	c1.5,1.1,3.1,2.3,4.6,3.5c1.7,1.3,3.3,2.8,4.9,4.3c0.3,0.2,0.5,0.5,0.7,0.7c0.6-0.7,1.3-1.3,1.8-1.8c1.2-1.1,2.5-2.2,4-3.4
	s2.8-2.2,4.2-3.3l1.6-1.2c1-0.8,2-1.6,3-2.4c1.4-1.1,2.6-2.4,3.8-3.8c1-1.2,1.9-2.6,2.5-4.1c0.8-1.7,1.2-3.5,1.3-5.3
	c0.1-1.8-0.2-3.6-0.8-5.3c-0.4-1.3-1.1-2.5-1.9-3.5c-0.3-0.4-0.7-0.8-1.1-1.2c-0.8-0.6-1.7-1.1-2.6-1.6c-1.3-0.7-2.7-1.1-4.1-1.1
	c-0.5,0-1.1,0-1.6,0.1c-0.8,0.1-1.7,0.4-2.4,0.8c-1.1,0.6-2.1,1.3-3,2.2c-1.1,1.1-2.1,2.4-2.9,3.7c0,0.1-0.1,0.1-0.1,0.2l-0.7,1.1
	l-2.2-0.3l-0.5-0.8c-0.1-0.1-0.1-0.2-0.2-0.3c-0.7-1.1-1.5-2.2-2.4-3.2c-0.8-0.9-1.7-1.7-2.7-2.3c-1.3-0.8-2.7-1.3-4.2-1.4
	L125.4,56.7z"/>
</svg>
