<?xml version="1.0" encoding="utf-8"?>
<!-- Generator: Adobe Illustrator 22.1.0, SVG Export Plug-In . SVG Version: 6.00 Build 0)  -->
<svg version="1.1" id="Слой_1" xmlns="http://www.w3.org/2000/svg" xmlns:xlink="http://www.w3.org/1999/xlink" x="0px" y="0px"
	 viewBox="0 0 190 190" style="enable-background:new 0 0 190 190;" xml:space="preserve">
<style type="text/css">
	.st0{fill:#B8B8B8;}
	.st1{fill:#D1EBF9;}
	.st2{opacity:0.4;}
	.st3{fill:#FFFFFF;}
</style>
<title>иконки2 svg</title>
<path class="st0" d="M152.7,66.7c-0.2-5.1-4.4-9.1-9.5-9.2h-6.4v6h6.4c1.9,0,3.5,1.5,3.5,3.5c0,0,0,0,0,0v0.3l10,52.3
	c-0.1,1.8-1.6,3.2-3.5,3.2H36.9c-1.8,0-3.3-1.4-3.5-3.2l9.9-52.1l0-0.3V67c0-1.9,1.5-3.5,3.5-3.5h6.4v-6h-6.4
	c-5.1,0-9.3,4.1-9.5,9.2l-10,52.1l-0.1,0.3v0.3c0,5.2,4.2,9.5,9.5,9.5h116.3c5.2,0,9.5-4.2,9.5-9.5v-0.3L152.7,66.7z"/>
<circle class="st1" cx="122.8" cy="125.8" r="22.3"/>
<path class="st0" d="M122.8,150.1c-13.4,0-24.3-10.9-24.3-24.3c0-13.4,10.9-24.3,24.3-24.3c13.4,0,24.3,10.9,24.3,24.3
	C147,139.2,136.2,150.1,122.8,150.1z M122.8,105.5c-11.2,0-20.3,9.1-20.3,20.3s9.1,20.3,20.3,20.3s20.3-9.1,20.3-20.3
	C143,114.6,134,105.5,122.8,105.5z"/>
<circle class="st1" cx="67.3" cy="125.8" r="22.3"/>
<path class="st0" d="M67.3,150.1c-13.4,0-24.3-10.9-24.3-24.3c0-13.4,10.9-24.3,24.3-24.3c13.4,0,24.3,10.9,24.3,24.3
	C91.6,139.2,80.7,150.1,67.3,150.1z M67.3,105.5c-11.2,0-20.3,9.1-20.3,20.3c0,11.2,9.1,20.3,20.3,20.3c11.2,0,20.3-9.1,20.3-20.3
	C87.6,114.6,78.5,105.5,67.3,105.5z"/>
<g class="st2">
	<path class="st3" d="M74,104.8l-27.9,27.9c1,3.1,2.6,6,4.8,8.4l31.4-31.5C80,107.5,77.1,105.8,74,104.8z"/>
	<path class="st3" d="M85,112.6l-31.2,31.2c1.3,1,2.7,1.8,4.1,2.5l29.6-29.6C86.9,115.3,86,113.9,85,112.6z"/>
	<path class="st3" d="M130.4,105.2l-28.6,28.6c1.1,3,2.9,5.8,5.2,8.1l31.5-31.5C136.2,108.1,133.5,106.3,130.4,105.2z"/>
	<path class="st3" d="M141.1,113.4l-31,31c1.3,0.9,2.8,1.7,4.3,2.3l29-29C142.8,116.2,142,114.8,141.1,113.4z"/>
</g>
</svg>
