<?xml version="1.0" encoding="utf-8"?>
<!-- Generator: Adobe Illustrator 22.1.0, SVG Export Plug-In . SVG Version: 6.00 Build 0)  -->
<svg version="1.1" id="Слой_1" xmlns="http://www.w3.org/2000/svg" xmlns:xlink="http://www.w3.org/1999/xlink" x="0px" y="0px"
	 viewBox="0 0 190 190" style="enable-background:new 0 0 190 190;" xml:space="preserve">
<style type="text/css">
	.st0{fill:#B8B8B8;}
</style>
<title>иконки2 svg</title>
<path class="st0" d="M116.1,160.4c-11,0-17.5-6.5-21.6-11.7c-4.8-6.1-15.9-14.9-27.1-21.4c-1.6-0.9-3.3-1.8-4.9-2.7
	c-9.2-5-18.8-10.3-15.9-20.3c1.5-5,4-9.6,7.5-13.4c1.6-1.7,2.8-3.7,3.8-5.8c1.6-4,5-34.3,6.9-53.6l4,0.4c-0.5,5-4.8,48.8-7.2,54.7
	c-1.1,2.5-2.6,4.8-4.4,6.8c-2.4,3-5.1,6.4-6.8,12c-1.9,6.5,4,10.3,14,15.7c1.6,0.9,3.3,1.8,5,2.8c9.4,5.5,22.3,14.9,28.2,22.4
	c6.5,8.3,13.6,11.3,22.9,9.8c12.2-2,17.2-8.5,18.1-10.6c0.2-0.4,0.3-0.7,0.5-1.1c0.6-1.4,1.3-2.9,0.8-3.8s-1.8-1.7-3.9-2.3
	c-0.4-0.1-11-3.2-15.2-6.4c-2.6-2-4.2-6.2-6.4-12.1c-1.9-5.2-4.1-10.3-6.7-15.2c-1.4-2.6-2.8-4.8-4-6.8c-4.2-6.7-7-11.1-5.4-22.4
	c1.9-13.7,9.1-39.4,9.4-40.5l3.8,1.1c-0.1,0.3-7.5,26.5-9.3,39.9c-1.3,9.8,0.7,13.2,4.8,19.8c1.2,2,2.6,4.2,4.1,7
	c2.7,5.1,5,10.3,6.9,15.7c1.8,4.8,3.4,9,5.1,10.3c2.9,2.3,11,4.9,13.9,5.7c3.4,1,5.5,2.5,6.4,4.5c1.2,2.6,0.1,5.1-0.8,7.1
	c-0.1,0.3-0.3,0.7-0.4,1c-1.6,4.1-8.6,11-21.1,13.1C119.5,160.2,117.8,160.4,116.1,160.4z"/>
<path class="st0" d="M64.5,44.2c0,0,37.8,6.8,40.1,7.6s2.3,1.8,2,3.1s-5.2,21.2-4.6,26.5s1.7,8.9,4.7,12.9s7.9,13.6,9.6,17.1
	s2,4.6,1.5,6.1s-25.5,26.1-27.3,27.2s-5.5-3.4-11.2-7.4c-4.2-3-8.6-5.7-13.2-8.2c-3.4-1.8-6.4-2-5.9-6.5s1.1-14.7,0-22.4
	c-0.7-4.9-2.4-9.5-4.8-13.8c-0.7-1.5-0.3-2.8,1.4-8.3s4-30.5,4.8-32.3S64.5,44.2,64.5,44.2z"/>
</svg>
