<svg id="Слой_1" data-name="Слой 1" xmlns="http://www.w3.org/2000/svg" viewBox="0 0 190 190"><defs><style>.cls-1{fill:#e94e56;}.cls-2{fill:#fff;}</style></defs><title>иконки2 svg</title><path class="cls-1" d="M128.18,66.35H93a5.05,5.05,0,0,0-5.06,5.06v35.18a5,5,0,0,0,1.48,3.58l35.18,35.18a5.06,5.06,0,0,0,7.16,0l35.18-35.18a5.06,5.06,0,0,0,0-7.16L131.76,67.83A5,5,0,0,0,128.18,66.35Z"/><path class="cls-2" d="M128.18,68.25H93a3.16,3.16,0,0,0-3.17,3.16v35.18a3.14,3.14,0,0,0,.93,2.24L125.94,144a3.18,3.18,0,0,0,4.48,0l35.18-35.18a3.18,3.18,0,0,0,0-4.48L130.42,69.17A3.15,3.15,0,0,0,128.18,68.25Z"/><polygon class="cls-1" points="128.18 71.41 93 71.41 93 106.59 128.18 141.77 163.36 106.59 128.18 71.41 128.18 71.41"/><path class="cls-1" d="M128.18,143.27a1.47,1.47,0,0,1-1.06-.44L91.94,107.65a1.5,1.5,0,0,1-.44-1.06V71.41a1.5,1.5,0,0,1,1.5-1.5h35.18a1.5,1.5,0,0,1,1.06.44l35.18,35.18a1.5,1.5,0,0,1,0,2.12l-35.18,35.18A1.47,1.47,0,0,1,128.18,143.27ZM94.5,106l33.68,33.68,33.06-33.06L127.56,72.91H94.5Z"/><path class="cls-2" d="M116.27,115.85a6.72,6.72,0,0,1-5.39-2.14,6.6,6.6,0,0,1-2.11-5.37,9.91,9.91,0,0,1,8.39-8.38,6.56,6.56,0,0,1,5.36,2.11,6.69,6.69,0,0,1,2.14,5.39,9.74,9.74,0,0,1-8.39,8.39Zm-1.53-6a2.46,2.46,0,0,0,1.93.82,2.8,2.8,0,0,0,1.91-.91,2.85,2.85,0,0,0,.94-1.93,2.59,2.59,0,0,0-.86-1.9,2.42,2.42,0,0,0-1.86-.79,2.87,2.87,0,0,0-1.92.93A2.81,2.81,0,0,0,114,108,2.42,2.42,0,0,0,114.74,109.85Zm13.49,12.94L123.6,90.72l4.06-.57L132.24,122Zm10.48-10.06a6.71,6.71,0,0,1-5.4-2.14,6.59,6.59,0,0,1-2.11-5.36,9.91,9.91,0,0,1,8.39-8.39A6.59,6.59,0,0,1,145,99a6.75,6.75,0,0,1,2.14,5.39,9.77,9.77,0,0,1-8.39,8.39Zm-1.53-6a2.5,2.5,0,0,0,1.93.83,2.87,2.87,0,0,0,1.9-.91,2.83,2.83,0,0,0,.94-1.93,2.55,2.55,0,0,0-.86-1.91,2.46,2.46,0,0,0-1.86-.79,3.23,3.23,0,0,0-2.84,2.85A2.39,2.39,0,0,0,137.18,106.73Z"/><path class="cls-1" d="M105.82,96.82V61.63a5.07,5.07,0,0,0-5.07-5.06H65.57A5.06,5.06,0,0,0,62,58.05L26.81,93.24a5.08,5.08,0,0,0,0,7.16L62,135.58a5.08,5.08,0,0,0,7.16,0l35.18-35.18A5,5,0,0,0,105.82,96.82Z"/><path class="cls-2" d="M103.92,96.82V61.63a3.18,3.18,0,0,0-3.17-3.16H65.57a3.16,3.16,0,0,0-2.24.93L28.15,94.58a3.17,3.17,0,0,0,0,4.47l35.18,35.19a3.18,3.18,0,0,0,4.48,0L103,99.05A3.12,3.12,0,0,0,103.92,96.82Z"/><polygon class="cls-1" points="100.75 96.82 100.75 61.63 65.57 61.63 30.39 96.82 65.57 132 100.75 96.82 100.75 96.82"/><path class="cls-1" d="M65.57,133.5a1.51,1.51,0,0,1-1.06-.44L29.33,97.88a1.49,1.49,0,0,1,0-2.12L64.51,60.57a1.5,1.5,0,0,1,1.06-.44h35.18a1.5,1.5,0,0,1,1.5,1.5V96.82a1.51,1.51,0,0,1-.43,1.06L66.63,133.06A1.49,1.49,0,0,1,65.57,133.5ZM32.51,96.82l33.06,33.06L99.25,96.2V63.13H66.19Zm68.24,0h0Z"/><path class="cls-2" d="M56.31,84.91a6.75,6.75,0,0,1,2.14-5.39,6.58,6.58,0,0,1,5.37-2.11,9.91,9.91,0,0,1,8.39,8.38,6.63,6.63,0,0,1-2.11,5.37,6.74,6.74,0,0,1-5.4,2.14,9.77,9.77,0,0,1-8.39-8.39Zm6-1.53a2.48,2.48,0,0,0-.83,1.93,3.23,3.23,0,0,0,2.84,2.84,2.54,2.54,0,0,0,1.9-.85A2.41,2.41,0,0,0,67,85.43a3.23,3.23,0,0,0-2.84-2.84A2.42,2.42,0,0,0,62.32,83.38Zm-13,13.49,32.07-4.63L82,96.29l-31.9,4.58Zm10.06,10.47A6.72,6.72,0,0,1,61.57,102a6.6,6.6,0,0,1,5.37-2.11,9.91,9.91,0,0,1,8.39,8.39,6.6,6.6,0,0,1-2.12,5.36,6.69,6.69,0,0,1-5.39,2.14,9.77,9.77,0,0,1-8.39-8.39Zm6-1.53a2.46,2.46,0,0,0-.82,1.93,3.23,3.23,0,0,0,2.84,2.85,2.59,2.59,0,0,0,1.9-.86,2.42,2.42,0,0,0,.79-1.86,2.87,2.87,0,0,0-.93-1.92A2.79,2.79,0,0,0,67.3,105,2.44,2.44,0,0,0,65.43,105.81Z"/><circle class="cls-2" cx="90.04" cy="72.35" r="5.11"/></svg>