<svg width="296" height="220" viewBox="0 0 296 220" fill="none" xmlns="http://www.w3.org/2000/svg">
<g opacity="0.3">
<g clip-path="url(#clip0)">
<path d="M157.383 136.906C149.126 127.645 124.856 115.131 131.361 100.614C136.866 88.3504 162.888 89.8521 159.635 75.0854C157.884 66.3254 155.381 58.8169 161.136 48.8055C167.392 38.0433 185.657 43.7998 192.163 33.7884C197.667 25.0285 190.411 19.7725 201.671 13.7657C211.679 8.50971 225.691 13.7657 227.442 24.2776C229.944 37.793 216.933 36.041 215.682 45.8021C214.682 52.0592 220.436 54.0615 223.689 58.3163C226.692 62.3209 229.444 68.3277 229.694 73.5836C230.195 88.851 213.431 90.8533 205.424 100.614C197.917 109.625 211.679 115.381 209.677 125.393C207.425 135.904 192.413 141.911 181.654 141.661C174.147 141.411 162.638 142.662 157.383 136.906Z" fill="#008BD2"/>
<path d="M168.143 141.911C167.642 141.661 167.392 141.411 167.642 140.91C167.892 140.66 182.905 118.134 183.656 89.6019C184.156 70.5802 192.163 58.5666 198.668 48.5552C202.672 42.5484 205.924 37.2924 206.425 32.0364C206.425 31.5359 206.925 31.2856 207.426 31.2856C207.926 31.2856 208.176 31.7862 208.176 32.0364C207.676 37.5427 204.173 43.049 200.17 49.3061C193.914 59.0672 186.158 71.0808 185.407 89.6019C184.406 118.385 169.143 141.16 169.143 141.411C168.893 141.911 168.393 141.911 168.143 141.911Z" fill="white"/>
<path d="M185.156 89.8522C184.906 89.8522 184.656 89.3516 184.656 89.1013C184.656 88.6008 185.156 88.3505 185.406 88.3505C191.662 88.8511 200.169 85.0968 202.921 78.8397C203.171 78.0888 203.422 77.338 203.922 76.3368C205.423 72.082 207.425 66.826 211.428 65.074C213.43 64.0729 215.682 64.0729 218.184 65.074C218.684 65.3243 218.684 65.5746 218.684 66.0752C218.434 66.3255 218.184 66.5757 217.684 66.5757C215.432 65.8249 213.68 65.8249 212.179 66.5757C208.676 68.0774 206.925 73.0831 205.423 76.8374C205.173 77.8385 204.673 78.5894 204.422 79.3403C201.17 86.3482 192.162 90.3528 185.156 89.8522Z" fill="white"/>
<path d="M180.402 89.1012C177.4 88.3504 175.148 87.0989 173.647 85.3469C171.395 82.3435 170.894 77.8384 172.646 72.0819C172.896 71.5813 173.146 70.8305 173.146 70.0796C174.397 66.0751 176.399 59.8179 174.397 56.5642C173.647 55.3128 172.646 54.8123 171.144 54.3117C170.644 54.3117 170.394 53.8111 170.644 53.3105C170.644 52.81 171.144 52.5597 171.645 52.81C173.647 53.3105 174.898 54.3117 175.899 55.8134C178.15 59.8179 176.149 66.3253 174.647 70.5802C174.397 71.331 174.147 71.8316 174.147 72.5824C172.646 77.5881 172.896 81.843 175.148 84.3458C176.899 86.5984 180.152 87.8498 184.406 88.1001C184.906 88.1001 185.156 88.3504 185.156 88.8509C185.156 89.3515 184.656 89.6018 184.406 89.6018C182.904 89.6018 181.653 89.3515 180.402 89.1012Z" fill="white"/>
<path d="M176.9 132.901C175.899 132.651 175.148 132.401 174.398 131.9C174.148 131.65 173.897 131.399 174.148 130.899C174.398 130.649 174.898 130.649 175.148 130.649C178.902 132.901 186.658 129.898 189.911 127.645C191.162 126.644 192.413 124.892 193.914 123.14C196.166 119.886 198.668 116.633 202.672 116.382C203.172 116.382 203.422 116.633 203.422 116.883C203.422 117.133 203.172 117.634 202.672 117.634C199.669 117.634 197.417 120.637 195.416 123.641C193.914 125.643 192.663 127.395 191.162 128.396C188.159 131.149 181.654 133.902 176.9 132.901Z" fill="white"/>
<path d="M170.644 131.65C169.644 131.399 168.893 131.149 167.892 130.648C163.138 128.146 160.136 121.638 159.385 117.634C158.885 115.631 159.635 112.878 160.136 110.125C161.136 105.62 162.387 100.614 159.385 98.6121C159.135 98.3618 159.135 97.8612 159.385 97.6109C159.635 97.3606 160.136 97.3606 160.386 97.6109C164.139 100.364 162.888 105.62 161.637 110.375C160.886 113.129 160.386 115.631 160.886 117.634C161.637 121.138 164.139 127.395 168.643 129.647C170.394 130.648 172.146 130.648 173.897 130.398C174.398 130.398 174.648 130.398 174.898 130.899C174.898 131.149 174.648 131.65 174.398 131.65C173.147 131.65 171.895 131.9 170.644 131.65Z" fill="white"/>
<path d="M222.939 157.679C209.177 154.426 198.418 151.172 198.168 136.655C197.918 129.147 201.421 123.891 209.177 119.886C215.683 116.633 218.935 115.381 220.437 108.623C222.688 98.1115 217.684 87.5996 224.44 77.3379C231.946 65.8248 248.71 71.0808 256.467 60.8191C263.473 51.5586 267.226 39.2947 281.989 39.545C294.499 39.7953 299.503 52.5598 294.249 61.57C291.246 66.5757 285.992 70.0797 283.99 75.5859C281.989 80.8419 284.24 85.0967 286.242 89.6019C290.746 100.114 291.747 110.876 279.737 117.634C272.481 121.638 266.976 125.393 269.728 133.151C272.481 141.16 273.732 145.916 263.723 151.923C256.467 156.428 249.711 156.178 241.204 156.428C233.197 156.678 222.688 158.931 215.182 155.427L222.939 157.679Z" fill="#FFDD00"/>
<path d="M227.192 150.171C225.941 148.919 225.191 147.418 224.94 146.166C223.189 140.159 229.194 133.902 234.198 128.396C236.951 125.643 239.453 122.89 240.454 120.637C243.706 114.38 244.707 108.874 243.957 100.364C243.206 90.1024 245.958 85.8476 254.215 79.0899C261.221 73.3334 268.227 67.0763 270.229 60.8192C270.479 60.3186 270.979 60.0683 271.73 60.3186C272.23 60.5689 272.731 61.0694 272.481 61.57C270.479 68.0774 263.223 74.5848 255.967 80.5916C247.96 87.099 245.458 90.8533 246.208 100.614C246.709 107.873 246.459 114.38 242.455 121.638C241.204 124.141 238.702 126.644 235.95 129.647C230.946 134.903 225.191 140.91 226.692 146.166C227.192 148.168 228.944 150.171 231.446 152.173C231.946 152.423 231.946 152.924 231.696 153.174C231.446 153.424 230.946 153.424 230.445 153.174C229.194 152.173 228.193 151.172 227.192 150.171Z" fill="white"/>
<path d="M244.707 110.125C244.457 109.875 244.457 109.875 244.457 109.625C244.457 109.124 244.957 108.874 245.457 108.874C250.462 109.374 253.965 105.62 257.968 101.365C261.471 97.6109 265.224 93.8567 270.228 92.8555C270.729 92.8555 271.479 93.1058 271.73 93.6064C271.98 94.107 271.73 94.6075 271.229 94.6075C266.725 95.6087 263.222 99.1126 259.97 102.617C255.966 106.871 251.713 111.126 245.708 110.626C245.207 110.375 244.707 110.375 244.707 110.125Z" fill="white"/>
<path d="M240.703 122.639L240.453 122.389C239.953 121.138 239.703 120.137 239.452 119.135C239.202 117.383 238.952 116.132 237.451 114.38C236.7 113.379 235.95 112.628 234.949 111.877C233.197 110.125 231.446 108.373 230.695 105.62C229.444 101.616 229.694 96.6098 230.945 90.8533C231.195 90.1024 231.446 88.851 231.946 87.5996C232.697 85.8476 233.698 82.5939 233.447 81.843C233.197 81.3425 233.447 80.8419 233.948 80.8419C234.448 80.5916 234.949 80.8419 235.199 81.3425C235.949 82.5939 235.199 84.8465 233.948 88.3504C233.447 89.6019 233.197 90.603 232.947 91.3538C231.946 95.1081 231.195 100.865 232.697 105.37C233.447 107.622 234.698 109.124 236.45 110.876C237.201 111.627 238.201 112.628 239.202 113.629C240.954 115.882 241.204 117.634 241.704 119.135C241.955 120.137 241.955 121.138 242.455 122.139C242.705 122.639 242.455 122.89 241.704 123.14C241.454 123.14 240.954 122.89 240.703 122.639Z" fill="white"/>
<path d="M59.05 159.181C44.788 156.678 31.5268 157.679 25.7719 142.162C21.2681 129.898 31.777 118.134 21.2681 109.875C14.7626 104.869 4.75418 101.615 2.50228 93.1058C0.250374 84.0956 11.7601 78.339 9.7584 69.5791C8.00692 62.3208 -2.00153 61.8203 0.750796 52.5597C3.0027 44.3004 10.2588 42.0478 16.2639 43.7998C24.0204 46.0523 24.7711 53.0603 29.7753 58.066C33.2783 61.3197 38.0323 58.066 43.0365 57.5654C48.0407 57.0649 54.5462 57.3151 58.7998 59.5677C72.5614 66.826 61.5521 82.0933 64.0543 94.3572C66.5564 106.371 83.3205 99.1126 92.0779 108.123C102.337 118.635 94.58 136.906 84.5716 145.415C77.5657 150.922 68.5581 160.933 59.05 159.181Z" fill="#E30613"/>
<path d="M72.8114 156.177C72.8114 156.177 72.5612 156.177 72.8114 156.177C72.0607 156.428 71.5603 156.177 71.5603 155.677C71.5603 155.427 62.3025 124.391 39.7835 104.118C27.0227 92.6052 24.0202 80.8419 21.7683 71.5813C20.5172 66.0751 19.2662 61.57 16.5138 59.0671C16.2636 58.8168 16.2636 58.5666 16.5138 58.066C16.5138 57.5654 17.0143 57.5654 17.2645 57.8157C20.267 60.5688 21.2678 65.3242 22.7691 70.8305C25.021 79.8407 28.0236 91.6041 40.5341 102.867C63.5536 123.39 73.0616 154.926 73.0616 155.176C73.3118 155.427 73.0616 155.927 72.8114 156.177Z" fill="white"/>
<path d="M40.5345 103.117C40.2843 103.368 39.7839 103.368 39.5337 103.117C39.2835 102.867 39.2835 102.366 39.5337 102.116C44.0375 97.611 47.04 88.851 44.0375 83.595C43.7873 82.8442 43.2869 82.3436 42.7864 81.5928C40.7847 78.0888 38.2826 74.0842 39.5337 70.0797C40.2843 68.0774 41.5354 66.3254 44.0375 64.8237C44.2877 64.5734 44.7881 64.5734 45.0383 65.074C45.2885 65.3243 45.0383 65.8248 44.7881 66.0751C42.7864 67.3265 41.5354 68.8283 41.0349 70.33C40.0341 73.8339 42.286 77.5882 44.2877 80.8419C44.7881 81.5928 45.0383 82.3436 45.5388 82.8442C49.0417 88.851 45.5388 98.1115 40.5345 103.117Z" fill="white"/>
<path d="M37.0316 105.87C34.5295 107.622 32.2776 108.373 30.0257 108.123C26.5227 107.873 23.27 105.37 20.7679 101.115C20.5177 100.614 20.2674 100.114 20.0172 99.6133C18.2658 96.6099 15.7636 91.8545 12.7611 91.3539C11.7603 91.1036 10.7594 91.6042 9.75857 92.355C9.50836 92.6053 9.00794 92.6053 9.00794 92.355C8.75773 92.1048 9.00794 91.6042 9.25815 91.3539C10.5092 90.3528 11.7603 89.8522 13.2615 90.1025C16.7645 90.603 19.5168 95.6087 21.2683 98.8624C21.5185 99.363 21.7687 99.8636 22.0189 100.364C24.2708 104.369 27.2734 106.621 30.2759 106.872C33.0282 107.122 35.7805 105.62 38.7831 102.617C39.0333 102.366 39.5337 102.366 39.7839 102.617C40.0341 102.867 40.0341 103.368 39.7839 103.618C38.7831 104.369 38.0324 105.12 37.0316 105.87Z" fill="white"/>
<path d="M71.31 141.16C70.3092 141.661 69.5585 142.161 68.3075 142.161C67.8071 142.161 67.3066 141.911 67.3066 141.411C67.3066 140.91 67.5569 140.66 68.0573 140.41C73.5619 139.408 77.0649 130.648 77.5653 126.143C77.8155 124.141 77.0649 121.888 76.3142 119.386C75.0632 114.881 73.8121 110.375 77.0649 107.122C77.3151 106.871 78.0657 106.621 78.3159 106.871C78.5661 107.122 78.5661 107.622 78.3159 107.873C75.8138 110.375 77.0649 114.63 78.0657 118.635C78.8164 121.388 79.567 123.891 79.3168 125.893C78.8164 130.648 76.064 138.157 71.31 141.16Z" fill="white"/>
<path d="M64.8052 144.664C63.8043 145.165 62.8035 145.666 61.8027 145.916C55.7976 147.167 48.041 143.663 44.5381 141.16C42.5364 139.909 41.0351 137.156 39.2836 134.653C36.5313 130.398 33.779 126.394 30.276 126.894C30.0258 126.894 29.5254 126.644 29.5254 126.394C29.5254 125.893 29.7756 125.643 30.0258 125.643C34.2794 124.892 37.5322 129.647 40.2845 133.902C42.036 136.405 43.5372 138.908 45.2887 140.159C48.5415 142.412 56.0478 145.666 61.5524 144.664C63.8043 144.164 65.3056 142.912 66.5567 141.16C66.8069 140.66 67.3073 140.66 67.8077 140.91C68.3081 141.16 68.3081 141.661 68.0579 141.911C67.0571 142.912 66.0562 143.914 64.8052 144.664Z" fill="white"/>
<path d="M248.21 173.197H63.0536C59.3004 173.197 56.2979 170.193 56.2979 166.439V70.5802C56.2979 66.8259 59.3004 63.8225 63.0536 63.8225H248.21C251.963 63.8225 254.966 66.8259 254.966 70.5802V166.439C254.966 170.193 251.963 173.197 248.21 173.197Z" fill="#C8D9EB"/>
<path d="M248.21 169.943H66.3063C62.8033 169.943 59.8008 166.94 59.8008 163.436V70.3299C59.8008 66.8259 62.8033 63.8225 66.3063 63.8225H248.21C251.713 63.8225 254.715 66.8259 254.715 70.3299V163.436C254.715 167.19 251.713 169.943 248.21 169.943Z" fill="#F7FAFC"/>
<path d="M99.5843 90.6029C104.839 93.8566 104.338 90.1024 102.837 85.8475C101.836 83.0944 100.585 80.5916 99.5843 77.8384C97.5826 72.8328 96.0813 68.5779 95.0805 63.8225H79.5674C84.0712 74.3345 89.3256 84.3458 99.5843 90.6029Z" fill="#C8D9EB"/>
<path d="M131.361 89.8521C131.862 90.603 132.362 91.3538 132.862 91.8544C134.864 91.3538 136.616 90.603 137.867 89.6018C141.87 81.3424 131.611 69.8293 125.857 63.8225H118.851C121.603 67.5768 123.855 71.8316 126.107 75.5859C128.108 79.3402 132.112 85.0967 131.361 89.8521Z" fill="#C8D9EB"/>
<path d="M86.3226 107.372C94.1993 107.372 100.585 100.985 100.585 93.1058C100.585 85.2268 94.1993 78.8396 86.3226 78.8396C78.4459 78.8396 72.0605 85.2268 72.0605 93.1058C72.0605 100.985 78.4459 107.372 86.3226 107.372Z" fill="#C0D3E8"/>
<path d="M133.612 107.372C141.489 107.372 147.874 100.985 147.874 93.1058C147.874 85.2268 141.489 78.8396 133.612 78.8396C125.735 78.8396 119.35 85.2268 119.35 93.1058C119.35 100.985 125.735 107.372 133.612 107.372Z" fill="#C0D3E8"/>
<path d="M180.902 107.372C188.779 107.372 195.164 100.985 195.164 93.1058C195.164 85.2268 188.779 78.8396 180.902 78.8396C173.025 78.8396 166.64 85.2268 166.64 93.1058C166.64 100.985 173.025 107.372 180.902 107.372Z" fill="#C0D3E8"/>
<path d="M228.442 107.372C236.319 107.372 242.704 100.985 242.704 93.1058C242.704 85.2268 236.319 78.8396 228.442 78.8396C220.566 78.8396 214.18 85.2268 214.18 93.1058C214.18 100.985 220.566 107.372 228.442 107.372Z" fill="#C0D3E8"/>
<path d="M86.3226 154.926C94.1993 154.926 100.585 148.539 100.585 140.66C100.585 132.781 94.1993 126.394 86.3226 126.394C78.4459 126.394 72.0605 132.781 72.0605 140.66C72.0605 148.539 78.4459 154.926 86.3226 154.926Z" fill="#C0D3E8"/>
<path d="M133.612 154.926C141.489 154.926 147.874 148.539 147.874 140.66C147.874 132.781 141.489 126.394 133.612 126.394C125.735 126.394 119.35 132.781 119.35 140.66C119.35 148.539 125.735 154.926 133.612 154.926Z" fill="#C0D3E8"/>
<path d="M180.902 154.926C188.779 154.926 195.164 148.539 195.164 140.66C195.164 132.781 188.779 126.394 180.902 126.394C173.025 126.394 166.64 132.781 166.64 140.66C166.64 148.539 173.025 154.926 180.902 154.926Z" fill="#C0D3E8"/>
<path d="M228.442 154.926C236.319 154.926 242.704 148.539 242.704 140.66C242.704 132.781 236.319 126.394 228.442 126.394C220.566 126.394 214.18 132.781 214.18 140.66C214.18 148.539 220.566 154.926 228.442 154.926Z" fill="#C0D3E8"/>
<path d="M86.3226 105.119C92.9557 105.119 98.3328 99.7408 98.3328 93.1058C98.3328 86.4709 92.9557 81.0922 86.3226 81.0922C79.6896 81.0922 74.3125 86.4709 74.3125 93.1058C74.3125 99.7408 79.6896 105.119 86.3226 105.119Z" fill="#FFCC33"/>
<path d="M133.613 105.119C140.246 105.119 145.623 99.7408 145.623 93.1058C145.623 86.4709 140.246 81.0922 133.613 81.0922C126.98 81.0922 121.603 86.4709 121.603 93.1058C121.603 99.7408 126.98 105.119 133.613 105.119Z" fill="#FFCC33"/>
<path d="M88.3247 83.595C87.3239 83.595 86.323 83.8453 85.5724 84.0956C85.072 85.0967 84.8218 86.0979 84.8218 87.3493C84.8218 91.6041 88.0745 94.8578 92.3281 94.8578C93.329 94.8578 94.3298 94.6075 95.0804 94.3573C95.5809 93.3561 95.8311 92.355 95.8311 91.1036C95.8311 86.8487 92.5783 83.595 88.3247 83.595Z" fill="#FFE081"/>
<path d="M135.614 83.595C134.613 83.595 133.613 83.8453 132.862 84.0956C132.362 85.0967 132.111 86.0979 132.111 87.3493C132.111 91.6041 135.364 94.8578 139.618 94.8578C140.619 94.8578 141.619 94.6075 142.37 94.3573C142.87 93.3561 143.121 92.355 143.121 91.1036C143.121 86.8487 139.868 83.595 135.614 83.595Z" fill="#FFE081"/>
<path d="M180.903 105.119C187.536 105.119 192.913 99.7408 192.913 93.1058C192.913 86.4709 187.536 81.0922 180.903 81.0922C174.27 81.0922 168.893 86.4709 168.893 93.1058C168.893 99.7408 174.27 105.119 180.903 105.119Z" fill="#FFCC33"/>
<path d="M228.443 105.119C235.076 105.119 240.453 99.7408 240.453 93.1058C240.453 86.4709 235.076 81.0922 228.443 81.0922C221.81 81.0922 216.433 86.4709 216.433 93.1058C216.433 99.7408 221.81 105.119 228.443 105.119Z" fill="#FFCC33"/>
<path d="M86.3226 152.674C92.9557 152.674 98.3328 147.295 98.3328 140.66C98.3328 134.025 92.9557 128.646 86.3226 128.646C79.6896 128.646 74.3125 134.025 74.3125 140.66C74.3125 147.295 79.6896 152.674 86.3226 152.674Z" fill="#FFCC33"/>
<path d="M133.613 152.674C140.246 152.674 145.623 147.295 145.623 140.66C145.623 134.025 140.246 128.646 133.613 128.646C126.98 128.646 121.603 134.025 121.603 140.66C121.603 147.295 126.98 152.674 133.613 152.674Z" fill="#FFCC33"/>
<path d="M180.903 152.674C187.536 152.674 192.913 147.295 192.913 140.66C192.913 134.025 187.536 128.646 180.903 128.646C174.27 128.646 168.893 134.025 168.893 140.66C168.893 147.295 174.27 152.674 180.903 152.674Z" fill="#FFCC33"/>
<path d="M228.443 152.674C235.076 152.674 240.453 147.295 240.453 140.66C240.453 134.025 235.076 128.646 228.443 128.646C221.81 128.646 216.433 134.025 216.433 140.66C216.433 147.295 221.81 152.674 228.443 152.674Z" fill="#FFCC33"/>
<path d="M244.957 115.882H69.5586V118.385H244.957V115.882Z" fill="#C6D1DE"/>
<path d="M182.654 83.595C181.653 83.595 180.652 83.8453 179.902 84.0956C179.401 85.0967 179.151 86.0979 179.151 87.3493C179.151 91.6041 182.404 94.8578 186.657 94.8578C187.658 94.8578 188.659 94.6075 189.41 94.3573C189.91 93.3561 190.16 92.355 190.16 91.1036C190.16 86.8487 186.907 83.595 182.654 83.595Z" fill="#FFE081"/>
<path d="M229.944 83.595C228.944 83.595 227.943 83.8453 227.192 84.0956C226.692 85.0967 226.441 86.0979 226.441 87.3493C226.441 91.6041 229.694 94.8578 233.948 94.8578C234.949 94.8578 235.949 94.6075 236.7 94.3573C237.2 93.3561 237.451 92.355 237.451 91.1036C237.451 86.8487 234.198 83.595 229.944 83.595Z" fill="#FFE081"/>
<path d="M88.3247 131.65C87.3239 131.65 86.323 131.9 85.5724 132.15C85.072 133.151 84.8218 134.152 84.8218 135.404C84.8218 139.659 88.0745 142.912 92.3281 142.912C93.329 142.912 94.3298 142.662 95.0804 142.412C95.5809 141.411 95.8311 140.41 95.8311 139.158C95.8311 135.154 92.5783 131.65 88.3247 131.65Z" fill="#FFE081"/>
<path d="M135.614 131.65C134.613 131.65 133.613 131.9 132.862 132.15C132.362 133.151 132.111 134.152 132.111 135.404C132.111 139.659 135.364 142.912 139.618 142.912C140.619 142.912 141.619 142.662 142.37 142.412C142.87 141.411 143.121 140.41 143.121 139.158C143.121 135.154 139.868 131.65 135.614 131.65Z" fill="#FFE081"/>
<path d="M182.654 131.65C181.653 131.65 180.652 131.9 179.902 132.15C179.401 133.151 179.151 134.152 179.151 135.404C179.151 139.659 182.404 142.912 186.657 142.912C187.658 142.912 188.659 142.662 189.41 142.412C189.91 141.411 190.16 140.41 190.16 139.158C190.16 135.154 186.907 131.65 182.654 131.65Z" fill="#FFE081"/>
<path d="M229.944 131.65C228.944 131.65 227.943 131.9 227.192 132.15C226.692 133.151 226.441 134.152 226.441 135.404C226.441 139.659 229.694 142.912 233.948 142.912C234.949 142.912 235.949 142.662 236.7 142.412C237.2 141.411 237.451 140.41 237.451 139.158C237.451 135.154 234.198 131.65 229.944 131.65Z" fill="#FFE081"/>
<path d="M106.59 21.7748C107.341 23.0262 108.092 25.529 109.593 26.2799C111.344 27.281 114.097 27.281 115.848 27.281C114.597 24.7782 114.347 19.0217 116.849 17.0194C115.098 16.0182 115.098 19.2719 113.846 18.0205C113.346 17.5199 109.843 12.264 109.593 11.5131C108.592 12.7645 109.092 16.5188 108.092 19.7725C107.841 21.2742 106.59 21.7748 106.59 21.7748Z" fill="#E17C5E"/>
<path d="M114.597 3.50403C114.597 3.50403 123.355 4.50517 123.855 6.75773C124.355 9.26057 122.854 12.0137 122.854 13.5154C122.854 15.0171 124.105 17.2697 124.105 18.0205C124.105 18.5211 122.103 19.0217 121.853 19.2719C121.353 19.5222 118.851 23.7771 117.099 24.0274C115.348 24.5279 108.842 18.7714 108.592 14.5165C108.592 13.7657 107.341 12.264 107.591 11.2628C108.092 7.50858 112.595 3.75431 114.597 3.50403Z" fill="#FF9D8A"/>
<path d="M112.845 0.500577C109.342 8.16584e-06 111.344 2.00228 107.341 3.50399C104.338 4.75541 105.089 7.75883 105.839 9.26053C106.09 9.7611 106.09 10.2617 105.589 11.2628C105.339 13.2651 108.592 17.7702 109.843 16.2685C110.093 16.0182 109.092 14.0159 109.092 13.0148C108.842 11.5131 110.093 10.0114 111.344 11.5131C111.844 12.0137 112.095 12.5142 112.095 13.0148C112.095 14.7668 112.595 15.2674 113.346 14.5165C114.347 13.7657 113.095 10.2617 114.096 9.51082C116.098 7.75883 116.598 5.75655 116.598 5.75655C118.35 4.25484 116.348 1.25143 112.845 0.500577Z" fill="#110239"/>
<path d="M137.366 88.851C137.616 89.6018 138.867 90.603 138.367 91.3538C138.117 91.8544 136.866 90.603 136.615 90.3527C136.365 89.8521 133.863 85.0967 133.613 83.8453C133.363 82.8441 133.113 81.843 132.862 80.8419C133.863 80.3413 134.864 79.5905 135.865 78.8396C137.116 79.5905 138.617 80.8419 139.868 81.5927C140.619 82.0933 141.369 82.3436 142.12 82.5939C142.621 82.8441 143.621 83.0944 143.621 83.8453C143.621 84.5961 142.621 84.3458 142.12 84.0956C141.62 83.8453 140.619 83.3447 140.118 83.8453C139.368 84.8464 141.119 86.0978 141.62 86.8487C142.12 87.5996 144.122 89.6018 142.37 89.6018C142.12 89.6018 140.118 87.5995 139.868 87.099C139.868 87.099 141.119 88.6007 141.369 88.851C141.62 89.3515 142.621 90.603 142.37 90.8532C141.62 91.8544 139.618 88.851 139.368 88.3504L140.118 89.6018C140.869 90.603 141.119 91.3538 140.619 91.6041C139.368 92.1047 138.117 89.6018 137.366 88.851Z" fill="#FF9D8A"/>
<path d="M123.604 31.7861C123.604 31.7861 124.354 32.2867 124.855 35.0398C127.107 44.3004 129.108 57.0649 130.109 59.5677C131.36 62.8214 139.367 79.5905 139.367 79.5905L132.861 84.0956C132.861 84.0956 123.353 65.8248 122.102 62.5711C120.851 59.5677 114.846 43.7998 114.846 43.7998L123.604 31.7861Z" fill="#EDF6FF"/>
<path d="M126.357 62.8214C123.104 57.0649 120.602 47.0535 119.601 40.2958L114.597 43.7998C114.597 43.7998 120.602 59.5677 121.853 62.5711C123.104 65.5746 132.612 84.0956 132.612 84.0956L134.364 82.8442C131.612 75.8362 130.11 69.8294 126.357 62.8214Z" fill="#C6D1DE"/>
<path d="M118.6 27.5314C117.599 26.7805 116.348 25.7794 115.348 25.0285C115.348 25.0285 111.344 28.7828 106.84 21.5245C106.84 21.5245 106.59 21.5245 106.09 21.7748C105.089 23.5268 103.588 25.0285 102.086 27.0308C98.8336 30.5348 97.8328 34.289 97.3324 38.7942C96.0813 47.3038 94.58 55.5632 92.3281 63.8226H113.846C115.598 57.3152 117.599 50.8078 118.851 44.5507C119.851 38.7942 118.6 33.2879 118.6 27.5314Z" fill="#81EBEB"/>
<path d="M106.841 21.5245C106.841 21.5245 96.3318 24.2777 94.0799 25.2788C93.0791 25.5291 95.331 35.7907 92.8289 41.7976C90.577 47.0535 86.8238 61.57 85.5728 63.8226H102.587C103.838 55.8135 105.59 46.8033 106.34 39.7953C107.591 29.5336 107.341 22.776 106.841 21.5245Z" fill="#EDF6FF"/>
<path d="M123.605 31.7862C123.605 31.7862 120.102 28.7828 116.849 26.5302C117.85 31.5359 117.85 34.289 116.849 42.5484C115.848 50.0569 114.347 56.8146 113.096 64.0729H117.349C119.101 57.5655 121.353 49.3061 122.103 45.8021C123.605 37.0422 123.605 31.7862 123.605 31.7862Z" fill="#EDF6FF"/>
<path d="M97.0823 33.5381C95.581 36.2913 93.5793 39.545 92.078 42.0478C89.8261 47.5541 87.0738 61.57 85.8228 63.8226H99.5844C99.5844 62.8214 99.0839 61.0694 99.0839 59.818C99.0839 56.314 99.3342 53.0603 100.585 49.8066C101.836 46.8032 100.335 37.2924 99.5844 36.5416C98.8337 35.7907 98.0831 34.5393 97.0823 33.5381Z" fill="#C6D1DE"/>
<path d="M99.3339 91.1035C99.5841 91.8544 100.835 92.8555 100.335 93.6064C100.085 94.107 98.8335 92.8555 98.5833 92.6052C98.333 92.1047 95.8309 87.3493 95.5807 86.0979C95.3305 85.0967 95.0803 84.0956 94.8301 83.0944C95.8309 82.5939 96.8318 81.843 97.8326 81.0922C99.0837 81.843 100.585 83.0944 101.836 83.8453C102.587 84.3459 103.337 84.5961 104.088 84.8464C104.588 85.0967 105.589 85.347 105.589 86.0979C105.589 86.8487 104.588 86.5984 104.088 86.3481C103.587 86.0978 102.587 85.5973 102.086 86.0979C101.336 87.099 103.087 88.3504 103.587 89.1013C104.088 89.8521 106.09 91.8544 104.338 91.8544C104.088 91.8544 102.086 89.8521 101.836 89.3515C101.836 89.3515 103.087 90.8533 103.087 91.1035C103.337 91.6041 104.338 92.8555 104.088 93.1058C103.337 94.107 101.336 91.1035 101.085 90.603L101.836 91.8544C102.587 92.8555 102.837 93.6064 102.336 93.8567C101.586 94.3572 100.085 91.8544 99.3339 91.1035Z" fill="#FF9D8A"/>
<path d="M99.8345 81.5928L94.0796 85.0967C94.0796 85.0967 81.5691 63.322 81.3188 57.0649C81.0686 52.0592 82.0695 45.8021 87.0737 34.5393C90.3264 27.5313 93.5792 24.5279 95.0805 25.2788C96.0813 25.7793 101.836 28.2822 99.0838 37.0421C98.083 40.0455 91.8277 53.0603 91.5775 54.3118C91.5775 55.3129 99.8345 81.5928 99.8345 81.5928Z" fill="#EDF6FF"/>
<path d="M127.358 3.00344C127.358 3.00344 129.86 6.50742 124.105 8.75998C118.35 11.0125 110.343 5.00571 110.343 5.00571C110.343 5.00571 110.593 2.0023 115.097 0.500594C118.6 -0.500544 121.603 -0.250259 123.354 1.50173C126.357 5.00571 127.358 3.00344 127.358 3.00344Z" fill="#110239"/>
<path d="M212.68 72.082L219.936 72.8328C219.936 72.8328 223.689 73.3334 224.69 85.8476C225.691 98.3618 226.692 111.627 225.441 115.631C224.189 119.636 209.677 118.885 209.677 118.885C209.677 118.885 210.428 102.366 209.677 94.3573C208.927 86.3482 208.426 79.3402 208.927 77.3379C209.677 75.586 210.678 72.5825 212.68 72.082Z" fill="#81EBEB"/>
<path d="M206.175 77.5882C184.156 88.1001 189.41 86.3482 185.907 87.3493C182.404 88.3504 161.387 89.6018 161.387 89.6018L159.135 98.6121C159.135 98.6121 184.656 97.1104 188.159 96.3595C191.662 95.6087 206.425 89.8521 206.425 89.8521L206.175 77.5882Z" fill="#EDF6FF"/>
<path d="M161.386 89.6019C162.888 90.603 163.388 92.1047 165.39 92.6053C175.398 94.107 183.405 91.8544 184.906 91.6042C186.908 91.3539 188.159 92.1047 190.161 91.3539C193.664 90.3527 200.419 88.3505 206.174 84.5962V89.8522C206.174 89.8522 191.412 95.3584 187.909 96.3596C184.406 97.1104 158.884 98.6121 158.884 98.6121L161.386 89.6019C161.136 89.6019 161.136 89.6019 161.386 89.6019Z" fill="#C6D1DE"/>
<path d="M211.428 183.959C211.428 183.959 212.429 186.712 212.429 188.714C212.429 190.717 212.179 192.969 211.679 193.47C210.427 194.471 194.164 194.721 192.662 193.22C191.411 191.718 192.162 189.215 195.665 188.464C199.418 187.463 199.919 187.964 202.171 186.962C204.422 185.961 203.922 183.458 203.922 183.458L211.428 183.959Z" fill="#110239"/>
<path d="M235.449 184.209C235.449 184.209 236.7 186.712 236.7 188.965C236.95 190.967 236.95 193.22 236.45 193.97C235.199 195.222 218.935 196.724 217.684 195.472C216.183 193.97 216.933 191.468 220.186 190.466C223.689 189.215 224.44 189.465 226.692 188.464C228.943 187.463 228.193 184.71 228.193 184.71L235.449 184.209Z" fill="#110239"/>
<path d="M209.177 114.63L231.196 117.133C231.196 117.133 216.183 148.168 214.682 153.174C213.181 158.18 212.93 185.961 212.93 185.961H202.922C202.922 185.961 203.172 153.174 203.422 150.922C203.923 148.419 209.177 114.63 209.177 114.63Z" fill="#110239"/>
<path d="M217.684 116.382H235.199C235.199 116.382 238.201 124.141 236.7 129.898C235.449 135.654 234.198 149.67 234.198 151.923C234.198 154.175 236.95 185.961 236.95 185.961L227.442 186.212C227.442 186.212 223.189 155.677 222.438 152.173C220.687 143.413 217.684 116.382 217.684 116.382Z" fill="#110239"/>
<path d="M210.428 74.0842C210.678 72.8328 211.429 67.5768 210.929 64.3231C212.93 64.5734 215.182 64.3231 216.934 63.8225C217.684 63.5722 218.435 63.3219 218.935 63.0717C219.186 65.3242 219.686 70.5802 221.438 73.083C218.185 76.0865 214.181 76.3367 210.428 74.0842Z" fill="#FF9D8A"/>
<path d="M222.188 73.8339C222.188 73.8339 222.188 74.0842 222.188 73.8339C222.188 74.0842 222.188 74.0842 222.188 73.8339C222.188 74.0842 221.938 74.3345 221.938 74.3345C221.938 74.3345 221.688 74.5847 221.688 74.835C221.438 75.0853 221.187 75.3356 220.937 75.8362C220.687 76.0864 220.437 76.0864 220.187 76.3367C219.936 76.587 219.686 76.587 219.186 76.8373C218.935 75.5859 218.185 74.3345 217.184 73.3333C215.433 71.5813 213.181 70.8305 210.929 70.5802C211.179 68.5779 211.179 66.0751 211.179 64.3231C213.181 64.5734 215.433 64.3231 217.184 63.8225C217.935 63.5722 218.685 63.3219 219.186 63.0717C219.436 65.5745 220.187 71.5813 222.188 73.8339Z" fill="#E17C5E"/>
<path d="M219.436 49.3061C219.436 49.3061 210.678 47.0535 209.427 49.3061C208.176 51.5586 208.677 54.8123 208.176 56.314C207.676 57.8157 205.674 59.5677 205.424 60.0683C205.174 60.5689 206.925 61.8203 207.175 62.0706C207.426 62.5711 208.426 67.3265 210.178 68.3277C211.679 69.3288 219.686 66.0751 221.437 62.3209C223.189 58.5666 221.938 50.5575 219.436 49.3061Z" fill="#FF9D8A"/>
<path d="M210.928 107.372C211.179 110.876 210.678 129.147 209.928 131.9C208.927 135.905 208.176 139.909 207.425 143.663C204.923 143.163 202.421 142.412 199.669 141.661C199.669 141.661 205.424 120.887 205.424 118.885C205.424 112.628 205.174 97.611 205.174 92.6053C205.424 83.3448 205.674 77.5882 205.674 77.5882C205.674 77.5882 207.926 75.3357 210.428 73.3334C210.428 73.3334 210.928 74.3345 211.679 74.5848C211.179 80.5916 209.928 95.3584 210.928 107.372Z" fill="#EDF6FF"/>
<path d="M220.436 113.129C220.436 112.127 220.436 110.876 220.436 109.875C220.186 103.367 218.935 96.86 218.184 90.3527C217.684 84.8464 217.684 80.5916 218.184 75.0853C220.186 74.3344 220.687 73.8339 221.437 72.5825C221.437 72.5825 230.945 78.0887 232.196 78.5893C233.197 79.0899 230.445 88.6007 231.696 95.3583C232.697 100.865 235.449 112.628 236.7 116.883C239.202 125.142 239.452 142.662 239.452 142.662C239.452 142.662 230.695 145.916 217.684 144.915C219.936 134.653 222.438 123.891 220.436 113.129Z" fill="#EDF6FF"/>
<path d="M230.445 114.63C227.692 105.87 226.441 98.8624 228.693 89.8521C229.444 86.3482 230.945 83.0945 232.196 79.8408C231.696 84.5962 230.945 91.3538 231.696 95.6087C232.697 101.115 235.449 112.878 236.7 117.133C239.202 125.393 239.452 142.912 239.452 142.912C239.452 142.912 236.95 143.663 232.947 144.414C236.45 134.403 233.698 124.892 230.445 114.63Z" fill="#C6D1DE"/>
<path d="M215.682 50.5575C215.682 50.5575 215.432 52.5598 216.683 55.0626C217.183 56.0637 214.681 58.8169 215.682 60.0683C216.182 60.8191 216.933 60.5689 217.434 59.0672C217.684 58.5666 218.184 58.066 218.685 57.8157C220.686 56.8146 221.437 60.0683 219.435 61.0694C218.184 61.8203 219.185 65.074 219.185 65.074C220.686 66.0751 225.19 64.5734 224.69 61.0694C224.189 58.8169 224.189 58.066 224.94 57.5655C226.191 56.5643 227.942 53.8112 225.69 51.5586C222.438 48.5552 225.19 47.5541 221.437 46.8032C217.684 46.0524 214.931 48.3049 215.682 50.5575Z" fill="#110239"/>
<path d="M222.188 48.5552C221.937 47.8043 220.436 46.8032 219.686 46.3026C218.434 45.5518 217.183 45.0512 215.932 44.8009C214.681 44.5506 213.18 44.5506 211.679 44.8009C210.428 45.0512 209.427 45.5518 208.426 45.8021C207.425 46.0524 206.174 46.0524 205.423 45.3015C205.173 46.0524 205.173 47.5541 205.423 48.0546C205.674 49.0558 206.424 50.0569 207.175 51.058C208.926 53.5609 213.931 54.8123 217.183 53.3106C218.685 52.5598 220.186 51.8089 220.937 50.5575C221.187 49.5563 221.437 49.0558 222.188 48.5552Z" fill="#110239"/>
<path d="M156.882 96.1092C155.631 94.6075 156.132 91.8544 157.132 90.603C157.883 89.3516 159.384 89.6018 161.386 89.8521C162.887 90.1024 164.138 90.3527 164.389 90.603C165.139 92.6052 160.635 91.6041 159.384 91.6041C159.384 91.6041 164.389 92.1047 164.639 92.8555C165.139 94.6075 160.635 93.6064 159.384 93.6064C160.635 93.6064 162.637 93.8567 162.887 94.1069C163.888 94.3572 163.388 94.8578 163.388 95.1081C162.637 95.8589 158.884 95.1081 158.884 95.1081C159.635 95.3584 162.137 95.3584 161.386 96.1092C160.886 96.8601 159.885 96.6098 159.384 96.6098C158.384 96.8601 157.383 96.3595 156.882 96.1092Z" fill="#FF9D8A"/>
<path d="M144.372 82.0933L143.371 84.3458L135.865 81.3424L128.608 99.6132L136.115 102.617L135.114 104.869C133.613 108.623 135.364 112.878 139.117 114.38L179.652 130.148C183.405 131.65 187.658 129.898 189.16 126.143L198.167 103.618C199.668 99.8635 197.917 95.6086 194.164 94.1069L153.88 77.8384C150.127 76.587 145.873 78.339 144.372 82.0933Z" fill="#E30613"/>
<path opacity="0.56" d="M136.125 81.3659L128.852 99.4825L136.282 102.467L143.556 84.3509L136.125 81.3659Z" fill="#9F0031"/>
<path d="M159.57 88.462L150.732 110.534L176.515 120.863L185.352 98.7912L159.57 88.462Z" fill="#110239"/>
<path d="M147.875 109.374L145.373 108.373L154.13 86.0978L156.633 87.099L147.875 109.374Z" fill="#110239"/>
<path d="M140.118 80.5916L131.111 102.617C130.61 103.618 129.61 104.118 128.609 103.618L124.105 101.866C123.104 101.365 122.604 100.364 123.104 99.3629L131.861 77.3379C132.362 76.3368 133.363 75.8362 134.364 76.3368L138.867 78.0887C139.868 78.5893 140.369 79.5905 140.118 80.5916Z" fill="#110239"/>
<path d="M196.416 102.617C195.415 101.115 193.914 99.6132 192.663 98.3618C192.162 97.6109 191.662 96.8601 191.162 96.3595C190.911 95.8589 190.411 95.1081 189.66 95.1081C188.91 95.1081 189.41 96.1092 189.66 96.6098C189.911 97.1104 190.661 98.1115 190.161 98.6121C189.41 99.3629 187.909 97.8612 186.908 97.3607C186.157 96.8601 184.406 95.8589 184.656 97.3607C184.906 98.3618 186.908 99.1126 187.659 99.6132C186.908 98.8624 185.907 98.6121 184.906 98.1115C184.406 97.8612 183.405 97.3606 182.905 97.6109C182.154 98.1115 183.905 99.3629 184.156 99.6132C185.157 100.114 185.407 100.364 186.408 100.614C185.657 100.114 182.654 98.6121 182.654 100.114C182.404 100.865 185.407 101.615 186.157 102.116C185.407 102.116 184.406 100.865 183.655 101.615C183.405 101.866 184.156 102.366 184.656 102.617C185.157 102.867 185.907 103.117 186.408 103.367C186.908 103.618 187.158 103.618 187.909 103.868C189.16 104.369 189.911 104.869 191.162 105.119C192.413 105.119 193.664 105.37 194.665 105.62C194.414 103.618 196.416 104.118 196.416 102.617Z" fill="#FF9D8A"/>
<path d="M195.165 100.364L193.414 106.371C193.414 106.371 218.685 115.631 223.189 110.626C227.192 106.121 233.447 89.8522 234.198 84.8465C235.199 77.3379 226.692 75.3357 223.689 81.3425C220.436 88.1002 218.435 101.616 216.933 101.866C215.682 101.866 195.165 100.364 195.165 100.364Z" fill="#EDF6FF"/>
<path d="M99.5845 196.223H74.3132C71.0604 196.223 68.3081 193.47 68.3081 190.216C68.3081 186.962 71.0604 184.209 74.3132 184.209H99.8347C103.087 184.209 105.84 186.962 105.84 190.216C105.84 193.47 103.087 196.223 99.5845 196.223Z" fill="#008BD2"/>
<path d="M99.5845 183.959H86.8237V196.223H99.5845C102.837 196.223 105.59 193.47 105.59 190.216C105.84 186.462 103.087 183.959 99.5845 183.959Z" fill="#FFCC33"/>
<path d="M150.127 190.216H175.649C178.901 190.216 181.654 192.969 181.654 196.223C181.654 199.477 178.901 202.23 175.649 202.23H150.127C146.874 202.23 144.122 199.477 144.122 196.223C144.122 192.969 146.874 190.216 150.127 190.216Z" fill="white"/>
<path d="M150.127 202.48H162.888V190.216H150.127C146.874 190.216 144.122 192.969 144.122 196.223C144.122 199.727 146.874 202.48 150.127 202.48Z" fill="#E30613"/>
<path d="M120.102 190.466L143.121 179.454C146.124 177.952 149.877 179.204 151.128 182.207C152.629 185.211 151.378 188.965 148.375 190.216L125.356 201.229C122.353 202.73 118.6 201.479 117.349 198.476C115.598 195.472 116.849 191.968 120.102 190.466Z" fill="#FFCC33"/>
<path d="M125.356 201.479L136.865 195.973L131.611 184.96L120.101 190.466C117.099 191.968 115.848 195.472 117.349 198.476C118.6 201.729 122.353 202.981 125.356 201.479Z" fill="#E30613"/>
<path d="M106.59 211.741L97.833 218.749C95.3309 221.001 91.3275 220.501 89.3258 217.998C87.0739 215.495 87.5743 211.49 90.0764 209.488L98.8338 202.48C101.336 200.228 105.339 200.728 107.341 203.231C109.593 205.734 109.343 209.488 106.59 211.741Z" fill="#FFCC33"/>
<path d="M91.8279 207.736L90.0764 209.238C87.5743 211.49 87.0739 215.245 89.3258 217.747C91.5777 220.25 95.3308 220.751 97.833 218.498L99.3342 217.247L91.8279 207.736Z" fill="#E30613"/>
<path d="M102.337 207.236C100.335 204.733 96.5819 204.232 94.0798 205.984L91.8279 207.736H91.5776L99.3342 217.247L101.086 215.745C104.088 213.493 104.589 209.738 102.337 207.236Z" fill="#E30613"/>
</g>
</g>
<defs>
<clipPath id="clip0">
<rect width="296" height="220" fill="white"/>
</clipPath>
</defs>
</svg>
