<?xml version="1.0" encoding="utf-8"?>
<!-- Generator: Adobe Illustrator 20.0.0, SVG Export Plug-In . SVG Version: 6.00 Build 0)  -->
<svg version="1.1" id="Layer_1" xmlns="http://www.w3.org/2000/svg" xmlns:xlink="http://www.w3.org/1999/xlink" x="0px" y="0px"
	 width="59.7px" height="68px" viewBox="0 0 59.7 68" style="enable-background:new 0 0 59.7 68;" xml:space="preserve">
<title>Asset 1</title>
<g id="Layer_2">
	<g id="Layer_1-2">
		<path d="M20.8,38.9L20.8,38.9c-3.4-0.2-6.7-0.6-10-1.4c-0.8-0.2-1.2-0.9-1.1-1.7s0.9-1.2,1.7-1.1c3.1,0.7,6.2,1.2,9.4,1.4
			c0.8,0,1.4,0.6,1.4,1.4S21.6,38.9,20.8,38.9z"/>
		<path d="M11.1,37.5c-0.8,0-1.4-0.6-1.4-1.4V19.4c0-0.8,0.6-1.4,1.4-1.4s1.4,0.6,1.4,1.4v16.7C12.5,36.8,11.9,37.5,11.1,37.5z"/>
		<path d="M47.2,20.8c-0.8,0-1.4-0.6-1.4-1.4c0-9.2-7.5-16.7-16.7-16.7s-16.7,7.5-16.7,16.7c0,0.8-0.6,1.4-1.4,1.4s-1.4-0.6-1.4-1.4
			C9.7,8.7,18.4,0,29.1,0s19.4,8.7,19.4,19.4C48.6,20.2,47.9,20.8,47.2,20.8z"/>
		<path d="M47.2,37.5c-0.8,0-1.4-0.6-1.4-1.4V19.4c0-0.8,0.6-1.4,1.4-1.4s1.4,0.6,1.4,1.4v16.7C48.6,36.8,47.9,37.5,47.2,37.5z"/>
		<path d="M37.5,38.9c-0.8,0-1.4-0.6-1.5-1.3s0.6-1.4,1.3-1.5c3.8-0.3,9.5-1.4,9.6-1.4c0.8-0.1,1.5,0.4,1.6,1.1s-0.4,1.5-1.1,1.6
			c-0.2,0-5.9,1.1-9.8,1.4H37.5z"/>
		<path d="M29.1,41.6c-9.7,0-18-12.4-18-22.6c0-0.4,0.2-0.7,0.4-1c0.3-0.3,0.6-0.4,1-0.4c0.1,0,13.8,0.6,16.8-8.1
			c0.2-0.7,1-1.1,1.8-0.9c0.3,0.1,0.5,0.3,0.7,0.5c4.7,6.8,14.1,8.5,14.2,8.5c0.7,0.1,1.2,0.7,1.2,1.4
			C47.2,29.2,38.9,41.6,29.1,41.6z M13.9,20.4c0.8,8.5,7.6,18.4,15.3,18.4s14.7-10.2,15.3-18.7c-5.1-1.2-9.7-3.8-13.4-7.5
			C27,19.4,17.6,20.4,13.9,20.4z"/>
		<path d="M29.1,68C10.9,68,1.4,65.2,1,65.2c-0.6-0.2-1-0.8-1-1.4c0-16,8.1-18.8,15.1-19.4c6-0.6,5.7-5.3,5.7-5.5
			c-0.1-0.8,0.5-1.4,1.3-1.5c0.8-0.1,1.4,0.5,1.5,1.3c0.2,2.6-1.3,7.8-8.2,8.4C9,47.8,3.1,50.1,2.8,62.8c8.7,1.8,17.5,2.6,26.4,2.5
			c9.3,0.1,18.6-0.7,27.8-2.5c-0.3-13.5-6.2-15.9-12.6-16.6c-6.9-0.7-8.3-6.1-8.2-8.8c0.1-0.8,0.7-1.3,1.5-1.3s1.3,0.7,1.3,1.5
			c0,0.6-0.1,5.3,5.7,5.9c7,0.7,15.1,3.6,15.1,20.4c0,0.6-0.4,1.2-1,1.4C58.3,65.2,47.8,68,29.1,68z"/>
		<path d="M25,68c-0.3,0-0.6-0.1-0.9-0.3c-4.7-3.8-8.4-19.8-8.8-21.6c-0.2-0.8,0.3-1.5,1.1-1.7c0.8-0.2,1.5,0.3,1.7,1.1
			c1.1,4.7,4.6,17.4,7.9,20.1c0.6,0.5,0.7,1.4,0.2,2C25.8,67.8,25.4,68,25,68z"/>
		<path d="M33.3,68c-0.8,0-1.4-0.6-1.4-1.4c0-0.4,0.2-0.7,0.4-1c6.4-6.2,9.3-20,9.3-20.1c0.2-0.8,0.9-1.3,1.7-1.1
			c0.8,0.2,1.3,0.9,1.1,1.7l0,0c-0.1,0.6-3.1,14.7-10.1,21.5C34,67.9,33.7,68,33.3,68z"/>
		<path d="M51,59.1h-5.6c-0.8,0-1.4-0.6-1.4-1.4c0-0.8,0.6-1.4,1.4-1.4H51c0.8,0,1.4,0.6,1.4,1.4C52.3,58.5,51.7,59.1,51,59.1z"/>
		<path d="M48.2,61.9c-0.8,0-1.4-0.6-1.4-1.4v-5.6c0-0.8,0.6-1.4,1.4-1.4c0.8,0,1.4,0.6,1.4,1.4v5.6C49.6,61.2,48.9,61.9,48.2,61.9z
			"/>
		<path d="M29.9,60.5c-4.6,0-9.1-2.8-12.6-7.7c-0.4-0.6-0.3-1.5,0.3-1.9c0.6-0.4,1.5-0.3,1.9,0.3c2.9,4.2,6.7,6.6,10.3,6.6
			s7.4-2.4,10.3-6.6c0.5-0.6,1.4-0.6,2-0.1c0.5,0.4,0.6,1.1,0.3,1.6C39,57.7,34.4,60.5,29.9,60.5z"/>
	</g>
</g>
</svg>
