<?xml version="1.0" encoding="utf-8"?>
<!-- Generator: Adobe Illustrator 20.0.0, SVG Export Plug-In . SVG Version: 6.00 Build 0)  -->
<svg version="1.1" id="Layer_1" xmlns="http://www.w3.org/2000/svg" xmlns:xlink="http://www.w3.org/1999/xlink" x="0px" y="0px"
	 width="133.9px" height="99.7px" viewBox="0 0 133.9 99.7" style="enable-background:new 0 0 133.9 99.7;" xml:space="preserve">
<style type="text/css">
	.st0{fill:#CCCCCC;}
</style>
<title>Asset 1</title>
<g id="Layer_2">
	<g id="Layer_2-2">
		<path class="st0" d="M105.4,57.7c-0.5,0-0.9-0.1-1.3-0.4c-1.1-0.7-1.5-2.1-0.8-3.2c0.3-0.5,0.8-0.9,1.4-1
			c3.2-1.9,16.7-13.2,21.4-22.4c3.4-6.6,4-13.2,1.6-18.1c-2.2-4.2-6.3-7.1-11-7.8c-3.7-0.4-7.4,1-10,3.6c-0.9,0.7-2.1,0.7-3,0
			c-2.7-2.6-6.3-3.9-10-3.6C85.5,6.2,80.7,12,81,19.9c0,1.3-1,2.3-2.3,2.3s-2.3-1-2.3-2.3c-0.6-10.1,5.9-18,16.5-19.8
			c4.4-0.6,8.9,0.7,12.4,3.5c3.5-2.9,8-4.1,12.5-3.5c6.1,1,11.4,4.8,14.3,10.4c3,6.3,2.3,14.4-1.7,22.3
			c-5.5,10.6-20.8,23.2-23.8,24.6C106.2,57.6,105.8,57.7,105.4,57.7z"/>
		<path class="st0" d="M99.2,99.7H8.6c-4.7,0-8.6-3.8-8.6-8.6V26.2c0-4.7,3.8-8.6,8.6-8.6h70c1.3,0,2.3,1,2.3,2.3
			c0.3,3.7,1.5,7.4,3.4,10.5l0,0c6.5,11.2,20.6,21.7,22.3,22.7c0.7,0.4,1.2,1.2,1.2,2v35.8C107.8,95.8,104,99.7,99.2,99.7
			C99.2,99.7,99.2,99.7,99.2,99.7z M8.6,22.4c-2.1,0-3.9,1.7-3.9,3.9v64.8c0,2.1,1.7,3.9,3.9,3.9h90.6c2.1,0,3.9-1.7,3.9-3.9V56.5
			C99,53.6,86.7,43.8,80.2,32.9c-1.9-3.2-3.2-6.8-3.8-10.5H8.6z"/>
		<path class="st0" d="M33.2,83.9c-0.9,0-1.7-0.5-2.1-1.4L21.2,61H2.3C1,61,0,60,0,58.7c0-1.3,1-2.3,2.3-2.3h20.4
			c0.9,0,1.7,0.5,2.1,1.4l8.3,18.2l16.4-37.1c0.4-0.9,1.2-1.4,2.2-1.4c0.9,0,1.8,0.6,2.1,1.5l7.8,19.5h21.1c1.3,0,2.3,1,2.3,2.3
			s-1,2.3-2.3,2.3H60.2c-1,0-1.8-0.6-2.2-1.5l-6.3-15.8L35.3,82.5C34.9,83.4,34.1,83.9,33.2,83.9L33.2,83.9z"/>
	</g>
</g>
</svg>
