<svg id="Слой_1" data-name="Слой 1" xmlns="http://www.w3.org/2000/svg" viewBox="0 0 140.94 126.07"><defs><style>.cls-1{fill:#c3dff6;}.cls-2{fill:#fff;}</style></defs><title>icon</title><path class="cls-1" d="M96.68,17.42a6,6,0,0,0-6-6H69.35a6,6,0,0,0-6,6V37.08H96.68Z"/><path d="M96.68,39.08H63.35a2,2,0,0,1-2-2V17.42a8,8,0,0,1,8-8H90.68a8,8,0,0,1,8,8V37.08A2,2,0,0,1,96.68,39.08Zm-31.33-4H94.68V17.42a4,4,0,0,0-4-4H69.35a4,4,0,0,0-4,4Z"/><path class="cls-1" d="M63.35,118.07a6,6,0,0,0,6,6H90.68a6,6,0,0,0,6-6v-72H63.35Z"/><path d="M90.68,126.07H69.35a8,8,0,0,1-8-8v-72a2,2,0,0,1,2-2H96.68a2,2,0,0,1,2,2v72A8,8,0,0,1,90.68,126.07Zm-25.33-78v70a4,4,0,0,0,4,4H90.68a4,4,0,0,0,4-4v-70Z"/><path class="cls-2" d="M14.3,38.91A63.32,63.32,0,0,1,8.63,65.74C2.3,79.41-3.52,106.41,11.47,124.07H70.8s23-53.66-26-85.16Z"/><path d="M70.8,126.07H11.47a2,2,0,0,1-1.52-.7C-6,106.62.49,78.54,6.81,64.9A61.89,61.89,0,0,0,12.3,39a2,2,0,0,1,2-2.1H44.8a2,2,0,0,1,1.08.32C71.93,54,77.82,76.94,78.17,93.26a82.62,82.62,0,0,1-5.54,31.6A2,2,0,0,1,70.8,126.07Zm-58.39-4h57A81.94,81.94,0,0,0,74.17,93.2c-.52-22.07-10.6-39.66-30-52.29H16.31a65.77,65.77,0,0,1-5.87,25.67C4.6,79.19-1.44,104.86,12.41,122.07Z"/><path d="M37.15,117.75c-8.31,0-18.63-2.69-23.53-11.8-4.8-9-2.91-23.26.87-32.77,1.6-4.05,5.08-11.09,10.29-12.83s10.46-1,13.72,2,4.37,8.27,2.82,14.43C41.26,78.29,41.06,89.49,48,96c5.55,5.22,6.12,9.73,5.61,12.59a10.17,10.17,0,0,1-6.19,7.46A28.41,28.41,0,0,1,37.15,117.75ZM30.35,63.4a13.62,13.62,0,0,0-4.3.75C23.44,65,20.44,69,18.2,74.66c-3.45,8.67-5.25,21.57-1.05,29.39,6.3,11.75,24,10.4,28.72,8.36a6.09,6.09,0,0,0,3.83-4.47c.47-2.68-1.09-5.87-4.41-9-8.84-8.31-8-22-7.95-22.6A2.25,2.25,0,0,1,37.4,76c1.23-4.77.65-8.57-1.63-10.7A7.75,7.75,0,0,0,30.35,63.4Z"/><path d="M61.79,96.58a5.78,5.78,0,0,1-.71,0c-4.16-.5-7.53-5.26-8.81-12.42a35.16,35.16,0,0,1,3.65-22,2,2,0,0,1,1.73-1h0a2,2,0,0,1,1.73,1c1.27,2.17,12.4,21.37,8.9,29.3C66.81,94.73,64.47,96.58,61.79,96.58Zm-3.94-29A30.84,30.84,0,0,0,56.21,83.4c1.07,6,3.52,8.94,5.35,9.16,1.56.21,2.66-1.88,3.06-2.78C66.36,85.84,61.94,75.22,57.85,67.57Z"/><path d="M44.26,34.88H14.68a2,2,0,0,1-2-2V19a2,2,0,0,1,2-2H44.26a2,2,0,0,1,2,2V32.88A2,2,0,0,1,44.26,34.88Zm-27.58-4H42.26V21H16.68Z"/><path d="M35.47,14.93h-12a4.71,4.71,0,0,1-4.71-4.71V4.71A4.71,4.71,0,0,1,23.47,0h12a4.71,4.71,0,0,1,4.71,4.71v5.51A4.71,4.71,0,0,1,35.47,14.93ZM23.47,4a.71.71,0,0,0-.71.71v5.51a.71.71,0,0,0,.71.71h12a.71.71,0,0,0,.71-.71V4.71A.71.71,0,0,0,35.47,4Z"/><path d="M22.56,34.88a2,2,0,0,1-2-2V19a2,2,0,0,1,4,0V32.88A2,2,0,0,1,22.56,34.88Z"/><path d="M29.47,34.88a2,2,0,0,1-2-2V19a2,2,0,0,1,4,0V32.88A2,2,0,0,1,29.47,34.88Z"/><path d="M36.81,34.88a2,2,0,0,1-2-2V19a2,2,0,0,1,4,0V32.88A2,2,0,0,1,36.81,34.88Z"/><line class="cls-2" x1="101.93" y1="24.25" x2="128.43" y2="10.25"/><path d="M101.93,25.25a1,1,0,0,1-.47-1.88l1.33-.7a1,1,0,1,1,.93,1.76l-1.32.7A1,1,0,0,1,101.93,25.25Z"/><path d="M105.91,23.15a1,1,0,0,1-.47-1.88l2.65-1.4a1,1,0,1,1,.93,1.76L106.38,23A1,1,0,0,1,105.91,23.15Zm5.3-2.8a1,1,0,0,1-.47-1.88l2.65-1.4a1,1,0,1,1,.93,1.76l-2.65,1.4A.93.93,0,0,1,111.21,20.35Zm5.3-2.8a1,1,0,0,1-.47-1.88l2.65-1.4a1,1,0,1,1,.93,1.76L117,17.43A1,1,0,0,1,116.51,17.55Zm5.3-2.8a1,1,0,0,1-.47-1.88l2.65-1.4a1,1,0,1,1,.93,1.76l-2.65,1.4A1,1,0,0,1,121.81,14.75Z"/><path d="M127.11,12a1,1,0,0,1-.47-1.88l1.32-.7a1,1,0,1,1,.94,1.76l-1.33.7A1,1,0,0,1,127.11,12Z"/><line class="cls-2" x1="100.78" y1="28.34" x2="129.59" y2="20.07"/><path d="M100.78,29.34a1,1,0,0,1-.28-2l1.44-.42a1,1,0,0,1,1.24.69,1,1,0,0,1-.69,1.23l-1.44.42A.84.84,0,0,1,100.78,29.34Z"/><path d="M105.1,28.1a1,1,0,0,1-.28-2l2.88-.83a1,1,0,1,1,.55,1.92l-2.88.83A1.26,1.26,0,0,1,105.1,28.1Zm5.76-1.65a1,1,0,0,1-1-.73,1,1,0,0,1,.68-1.24l2.88-.82a1,1,0,0,1,.56,1.92l-2.89.83A1.26,1.26,0,0,1,110.86,26.45Zm5.76-1.66a1,1,0,0,1-.27-2l2.88-.83a1,1,0,0,1,.55,1.93l-2.88.82A1,1,0,0,1,116.62,24.79Zm5.76-1.65a1,1,0,0,1-1-.72,1,1,0,0,1,.69-1.24l2.88-.83a1,1,0,0,1,1.23.69,1,1,0,0,1-.68,1.23l-2.88.83A.9.9,0,0,1,122.38,23.14Z"/><path d="M128.14,21.49a1,1,0,0,1-1-.73,1,1,0,0,1,.69-1.23l1.44-.42a1,1,0,0,1,.55,1.93l-1.44.41A1.35,1.35,0,0,1,128.14,21.49Z"/><line class="cls-2" x1="100.22" y1="32.49" x2="130.14" y2="34.19"/><path d="M101.72,33.57h-.06l-1.5-.09a1,1,0,1,1,.12-2l1.49.08a1,1,0,0,1,0,2Z"/><path d="M125.65,34.93h-.05l-3-.17a1,1,0,1,1,.12-2l3,.17a1,1,0,0,1-.06,2Zm-6-.34h-.06l-3-.17a1,1,0,0,1,.11-2l3,.17a1,1,0,0,1,.94,1.06A1,1,0,0,1,119.67,34.59Zm-6-.34h-.06l-3-.17a1,1,0,0,1-1-1,1,1,0,0,1,1.06-1l3,.17a1,1,0,0,1,.94,1.06A1,1,0,0,1,113.69,34.25Zm-6-.34h-.06l-3-.17a1,1,0,0,1-.94-1.05,1,1,0,0,1,1.06-.95l3,.17A1,1,0,0,1,108.7,33,1,1,0,0,1,107.7,33.91Z"/><path d="M130.14,35.19h-.06l-1.49-.09a1,1,0,0,1-.94-1.05,1,1,0,0,1,1-.94l1.5.08a1,1,0,0,1-.06,2Z"/><line class="cls-2" x1="110.29" y1="29.94" x2="140.1" y2="26.89"/><path d="M110.29,30.94a1,1,0,0,1-.11-2l1.5-.15a1,1,0,0,1,.2,2l-1.49.15Z"/><path d="M114.76,30.48a1,1,0,0,1-.1-2l3-.31a1,1,0,1,1,.2,2l-3,.31Zm6-.61a1,1,0,0,1-.1-2l3-.31a1,1,0,1,1,.2,2l-3,.31Zm6-.61a1,1,0,0,1-.1-2l3-.3a1,1,0,1,1,.21,2l-3,.3Zm6-.61a1,1,0,0,1-.1-2l3-.31a1,1,0,0,1,.2,2l-3,.31Z"/><path d="M138.61,28a1,1,0,0,1-.1-2l1.49-.15a1,1,0,1,1,.2,2l-1.49.16Z"/></svg>