<svg id="Слой_1" data-name="Слой 1" xmlns="http://www.w3.org/2000/svg" viewBox="0 0 128.07 132.44"><defs><style>.cls-1{fill:#eef5e8;}.cls-2{fill:#fff;}</style></defs><title>icon</title><path d="M64.76,117.89H14a14,14,0,0,1-14-14V44A14,14,0,0,1,14,30H64.76a14,14,0,0,1,14,14v59.86A14,14,0,0,1,64.76,117.89ZM14,34A10,10,0,0,0,4,44v59.86a10,10,0,0,0,10,10H64.76a10,10,0,0,0,10-10V44a10,10,0,0,0-10-10Z"/><path d="M68.41,23H10.35V.83H68.41ZM14.35,19H64.41V4.83H14.35Z"/><rect class="cls-1" x="2" y="55.39" width="29.24" height="40.92"/><path d="M33.24,98.31H0V53.39H33.24ZM4,94.31H29.24V57.39H4Z"/><circle class="cls-2" cx="69.55" cy="73.96" r="23.38"/><path d="M69.55,99.34A25.38,25.38,0,1,1,94.93,74,25.41,25.41,0,0,1,69.55,99.34Zm0-46.76A21.38,21.38,0,1,0,90.93,74,21.4,21.4,0,0,0,69.55,52.58Z"/><circle class="cls-2" cx="98.72" cy="103.27" r="27.17"/><path d="M98.72,132.44a29.17,29.17,0,1,1,29.16-29.17A29.21,29.21,0,0,1,98.72,132.44Zm0-54.34a25.17,25.17,0,1,0,25.16,25.17A25.2,25.2,0,0,0,98.72,78.1Z"/><circle class="cls-2" cx="65.67" cy="111.99" r="18.44"/><path d="M65.67,132.44A20.45,20.45,0,1,1,86.12,112,20.47,20.47,0,0,1,65.67,132.44Zm0-36.89A16.45,16.45,0,1,0,82.12,112,16.46,16.46,0,0,0,65.67,95.55Z"/><path d="M57.49,120,64.3,103.6h3.35L74.46,120h-4l-1.36-3.44H62.62L61.26,120Zm8.38-11.59L64,113H67.7Z"/><path d="M92.87,114.5V93.36h12.54v4.53H97.7v3.71h6.8v4.53H97.7V110h8v4.53Z"/><path d="M74.35,76.89l1.42,2.81a5.31,5.31,0,0,1-2.22,1.37,9.19,9.19,0,0,1-3.11.53,8.5,8.5,0,0,1-6.2-2.33,8.16,8.16,0,0,1-2.39-6.14A8.55,8.55,0,0,1,64.09,67a8.28,8.28,0,0,1,6.32-2.39,8.54,8.54,0,0,1,2.91.48,5.72,5.72,0,0,1,2.1,1.23l-1.66,2.81a6.42,6.42,0,0,0-3.35-1,4.43,4.43,0,0,0-3.28,1.31,5,5,0,0,0-1.3,3.66,4.75,4.75,0,0,0,5,5A5.77,5.77,0,0,0,74.35,76.89Z"/><path class="cls-2" d="M98.09,82.86s15.5,1.92,19.67,15.42"/><path d="M117.76,99.28a1,1,0,0,1-1-.7C112.87,85.84,98.12,83.88,98,83.86a1,1,0,1,1,.25-2c.16,0,16.19,2.16,20.5,16.12a1,1,0,0,1-.66,1.25A1,1,0,0,1,117.76,99.28Z"/></svg>