<svg id="Слой_1" data-name="Слой 1" xmlns="http://www.w3.org/2000/svg" viewBox="0 0 100.81 131.4"><defs><style>.cls-1{fill:#fff;}.cls-2{fill:#bae3fa;}.cls-3{fill:#a2d9f1;}</style></defs><title>icon</title><path d="M50.09,12.86a2,2,0,0,1-1.41-.58,2,2,0,0,1,0-2.83l5-5a2,2,0,0,1,1.42-.59h33.4a2,2,0,1,1,0,4H56l-4.47,4.47A2,2,0,0,1,50.09,12.86Z"/><path d="M83.57,33.08H69.22a6,6,0,0,1-6-5.95V16.21a6,6,0,0,1,6-6H83.57a6,6,0,0,1,6,6V27.13A6,6,0,0,1,83.57,33.08ZM69.22,14.26a2,2,0,0,0-2,2V27.13a2,2,0,0,0,2,1.95H83.57a2,2,0,0,0,2-1.95V16.21a2,2,0,0,0-2-2Z"/><rect class="cls-1" x="71.45" y="2" width="9.89" height="10.26" rx="3.96" ry="3.96"/><path d="M77.38,14.26h-2a6,6,0,0,1-6-6V6a6,6,0,0,1,6-6h2a6,6,0,0,1,6,6V8.3A6,6,0,0,1,77.38,14.26ZM77.38,4h-2a2,2,0,0,0-2,2V8.3a2,2,0,0,0,2,2h2a2,2,0,0,0,2-2V6A2,2,0,0,0,77.38,4Z"/><path d="M86.81,121.14H66a14,14,0,0,1-14-14V52.46a14,14,0,0,1,14-14H86.81a14,14,0,0,1,14,14v54.68A14,14,0,0,1,86.81,121.14ZM66,42.46a10,10,0,0,0-10,10v54.68a10,10,0,0,0,10,10H86.81a10,10,0,0,0,10-10V52.46a10,10,0,0,0-10-10Z"/><rect class="cls-1" x="56.47" y="27.93" width="39.85" height="12.53" rx="3.96" ry="3.96"/><path d="M92.36,42.46H60.43a6,6,0,0,1-6-6V31.89a6,6,0,0,1,6-6H92.36a6,6,0,0,1,6,6V36.5A6,6,0,0,1,92.36,42.46ZM60.43,29.93a2,2,0,0,0-2,2V36.5a2,2,0,0,0,2,2H92.36a2,2,0,0,0,2-2V31.89a2,2,0,0,0-2-2Z"/><path class="cls-2" d="M87.07,76H79.69V68.63a3.3,3.3,0,0,0-6.59,0V76H65.72a3.3,3.3,0,0,0,0,6.6H73.1V90a3.3,3.3,0,0,0,6.59,0V82.61h7.38a3.3,3.3,0,1,0,0-6.6Z"/><path class="cls-2" d="M15.33,110.48a15.35,15.35,0,1,1,14.26-9.63h0A15.37,15.37,0,0,1,15.33,110.48Zm0-27.69a12.35,12.35,0,1,0,4.58.89A12.35,12.35,0,0,0,15.36,82.79Z"/><path class="cls-2" d="M67.47,131.4a15.19,15.19,0,0,1-5.69-1.1,15.35,15.35,0,1,1,5.69,1.1Zm0-27.69A12.34,12.34,0,1,0,79,120.65h0A12.35,12.35,0,0,0,67.5,103.71Z"/><rect class="cls-2" x="13.33" y="86.75" width="56.18" height="37.7" rx="5.94" ry="5.94" transform="translate(42.3 -7.83) rotate(21.86)"/><rect class="cls-3" x="18.15" y="103.98" width="46.59" height="3.08" rx="1.54" ry="1.54" transform="translate(42.27 -7.85) rotate(21.86)"/><rect class="cls-3" x="16" y="109.35" width="46.59" height="3.08" rx="1.54" ry="1.54" transform="matrix(0.93, 0.37, -0.37, 0.93, 44.12, -6.66)"/><rect class="cls-3" x="13.84" y="114.73" width="46.59" height="3.08" rx="1.54" ry="1.54" transform="translate(45.96 -5.47) rotate(21.86)"/></svg>