<svg id="Слой_1" data-name="Слой 1" xmlns="http://www.w3.org/2000/svg" viewBox="0 0 102.54 111.7"><defs><style>.cls-1{fill:#f4cfce;}.cls-2{fill:#e4e5e4;}.cls-3{fill:#fff;}.cls-4{fill:#dee9bc;}</style></defs><title>icon</title><path class="cls-1" d="M67.13,30.06a30.81,30.81,0,0,0-12.59,2.69A30.81,30.81,0,0,0,42,30.06C23.74,30.06,9,46,9,65.6s14.75,35.54,33,35.54a30.81,30.81,0,0,0,12.59-2.69,30.81,30.81,0,0,0,12.59,2.69c18.2,0,33-15.91,33-35.54S85.33,30.06,67.13,30.06Z"/><path class="cls-2" d="M67.13,103.14a32.63,32.63,0,0,1-12.59-2.51A32.63,32.63,0,0,1,42,103.14C22.67,103.14,7,86.3,7,65.6S22.67,28.06,42,28.06a32.64,32.64,0,0,1,12.59,2.52,32.64,32.64,0,0,1,12.59-2.52c19.27,0,35,16.84,35,37.54S86.4,103.14,67.13,103.14ZM54.54,96.26l.81.37a28.76,28.76,0,0,0,11.78,2.51c17.07,0,31-15,31-33.54s-13.89-33.54-31-33.54a28.77,28.77,0,0,0-11.78,2.52l-.81.36-.82-.36A28.69,28.69,0,0,0,42,32.06c-17.07,0-31,15-31,33.54S24.88,99.14,42,99.14a28.68,28.68,0,0,0,11.77-2.51Z"/><path class="cls-3" d="M43.83,11.27S54.91,19.4,54.54,32.75"/><path class="cls-2" d="M56.54,32.81l-4-.11c.34-12.1-9.79-19.74-9.89-19.82L45,9.66C45.5,10,56.93,18.58,56.54,32.81Z"/><path class="cls-4" d="M58.5,22S53.67,3.27,81.17,2.1C81.17,2.1,77,26.25,58.5,22Z"/><path class="cls-2" d="M62.72,24.51A20.84,20.84,0,0,1,58.05,24l-1.18-.27-.31-1.18a17.27,17.27,0,0,1,2.8-13.64C63.34,3.5,70.65.55,81.08.11L83.56,0l-.42,2.44C83,3,80.73,15.91,72,21.73A16.38,16.38,0,0,1,62.72,24.51Zm-2.48-4.2a13,13,0,0,0,9.5-1.9C75,15,77.54,8,78.59,4.28c-7.73.71-13.11,3.05-16,7A13,13,0,0,0,60.24,20.31Z"/><path class="cls-3" d="M2,62.83S18.05,77.19,70.9,75.19v33.5s-44.65,6.25-68.9-13Z"/><path class="cls-2" d="M53.91,111.7c-15.47,0-38-2.4-53.15-14.45L0,96.65V58.36l3.33,3c.25.22,16.54,13.78,67.49,11.85l2.08-.08v37.32l-1.73.24A134.35,134.35,0,0,1,53.91,111.7ZM4,94.71c20.77,15.73,56.64,13.06,64.9,12.2V77.26C29.64,78.44,11,70.63,4,66.6Z"/><rect class="cls-2" x="59.48" y="75.38" width="4" height="18.35"/><rect class="cls-2" x="34.75" y="74.04" width="4" height="18.35"/><rect class="cls-2" x="11.25" y="68.18" width="4" height="18.35"/><rect class="cls-2" x="54.55" y="75.31" width="2" height="10.93"/><rect class="cls-2" x="50" y="75.31" width="2" height="10.93"/><rect class="cls-2" x="45.75" y="75.31" width="2" height="10.93"/><rect class="cls-2" x="41.67" y="75.31" width="2" height="10.93"/><rect class="cls-2" x="30.17" y="72.89" width="2" height="10.93"/><rect class="cls-2" x="25.62" y="71.89" width="2" height="10.93"/><rect class="cls-2" x="21.37" y="70.89" width="2" height="10.93"/><rect class="cls-2" x="17.29" y="69.89" width="2" height="10.93"/><rect class="cls-2" x="7.99" y="66.81" width="2" height="10.93"/></svg>