<svg id="Слой_1" data-name="Слой 1" xmlns="http://www.w3.org/2000/svg" viewBox="0 0 132.93 132.24"><defs><style>.cls-1{fill:#fff;}.cls-2{fill:#fff6e6;}</style></defs><title>icon</title><circle class="cls-1" cx="51.08" cy="51.08" r="49.08"/><path d="M51.08,102.16a51.08,51.08,0,1,1,51.08-51.08A51.14,51.14,0,0,1,51.08,102.16ZM51.08,4A47.08,47.08,0,1,0,98.16,51.08,47.13,47.13,0,0,0,51.08,4Z"/><polygon class="cls-1" points="78.73 39.67 62.49 39.67 62.49 23.43 39.67 23.43 39.67 39.67 23.43 39.67 23.43 62.49 39.67 62.49 39.67 78.73 62.49 78.73 62.49 62.49 78.73 62.49 78.73 39.67"/><path d="M64.49,80.73H37.67V64.49H21.43V37.67H37.67V21.43H64.49V37.67H80.73V64.49H64.49Zm-22.82-4H60.49V60.49H76.73V41.67H60.49V25.43H41.67V41.67H25.43V60.49H41.67Z"/><rect class="cls-2" x="70.78" y="37.67" width="35.37" height="100.22" rx="12" ry="12" transform="translate(87.98 -36.85) rotate(45)"/><path d="M65.54,132.24A13.4,13.4,0,0,1,56,128.3l-8-8a13.5,13.5,0,0,1,0-19.09l53.89-53.9a13.52,13.52,0,0,1,19.09,0l8,8a13.5,13.5,0,0,1,0,19.09L75.09,128.3A13.41,13.41,0,0,1,65.54,132.24ZM111.4,46.32A10.47,10.47,0,0,0,104,49.39l-53.89,53.9a10.5,10.5,0,0,0,0,14.85l8,8a10.54,10.54,0,0,0,14.85,0l53.89-53.9a10.5,10.5,0,0,0,0-14.85l-8-8A10.43,10.43,0,0,0,111.4,46.32Z"/><rect class="cls-2" x="76.69" y="70.25" width="22.15" height="36.48" transform="translate(88.28 -36.14) rotate(45)"/><path d="M82.7,111.33,64.92,93.55,92.83,65.64l17.78,17.78ZM69.16,93.55,82.7,107.09l23.67-23.67L92.83,69.88Z"/><circle cx="105.2" cy="62.02" r="2.08"/><circle cx="110.1" cy="66.92" r="2.08"/><circle cx="115" cy="71.82" r="2.08"/><circle cx="99.11" cy="63.43" r="2.08"/><circle cx="104" cy="68.33" r="2.08"/><circle cx="108.9" cy="73.23" r="2.08"/><circle cx="113.59" cy="77.92" r="2.08"/><circle cx="112.6" cy="54.62" r="2.08"/><circle cx="117.5" cy="59.52" r="2.08"/><circle cx="122.4" cy="64.42" r="2.08"/><circle cx="106.51" cy="56.03" r="2.08"/><circle cx="111.4" cy="60.93" r="2.08"/><circle cx="116.3" cy="65.83" r="2.08"/><circle cx="120.99" cy="70.52" r="2.08"/><circle cx="71.1" cy="115.72" r="2.08"/><circle cx="66.2" cy="110.82" r="2.08"/><circle cx="61.3" cy="105.92" r="2.08"/><circle cx="77.19" cy="114.31" r="2.08"/><circle cx="72.3" cy="109.41" r="2.08"/><circle cx="67.4" cy="104.52" r="2.08"/><circle cx="62.71" cy="99.83" r="2.08"/><circle cx="63.7" cy="123.12" r="2.08"/><circle cx="58.8" cy="118.22" r="2.08"/><circle cx="53.9" cy="113.32" r="2.08"/><circle cx="69.8" cy="121.71" r="2.08"/><circle cx="64.9" cy="116.81" r="2.08"/><circle cx="60" cy="111.92" r="2.08"/><circle cx="55.31" cy="107.23" r="2.08"/></svg>