<svg id="Слой_1" data-name="Слой 1" xmlns="http://www.w3.org/2000/svg" viewBox="0 0 110.12 130.5"><defs><style>.cls-1{fill:#cbe8f0;}.cls-2{fill:#e6ebb1;}</style></defs><title>icon</title><path d="M51.38,130.5H15a4.34,4.34,0,0,1-4.34-4.34V112.68A4.34,4.34,0,0,1,15,108.34H51.38a4.35,4.35,0,0,1,4.34,4.34v13.48A4.35,4.35,0,0,1,51.38,130.5ZM15,112.34a.34.34,0,0,0-.34.34v13.48a.34.34,0,0,0,.34.34H51.38a.34.34,0,0,0,.34-.34V112.68a.34.34,0,0,0-.34-.34Z"/><path d="M103.68,85.14a4.57,4.57,0,0,1-1.41-.23L67.84,73.2a4.35,4.35,0,0,1-2.72-5.51l2.12-6.21a4.35,4.35,0,0,1,5.5-2.71l34.44,11.71a4.32,4.32,0,0,1,2.71,5.5l-2.11,6.21a4.35,4.35,0,0,1-4.1,3ZM71.34,62.54a.33.33,0,0,0-.15,0,.32.32,0,0,0-.17.19L68.91,69a.34.34,0,0,0,.21.43l34.44,11.71a.32.32,0,0,0,.26,0,.3.3,0,0,0,.17-.19l2.11-6.22a.29.29,0,0,0,0-.25.36.36,0,0,0-.2-.18L71.45,62.56A.22.22,0,0,0,71.34,62.54Z"/><path d="M48.66,104.45H17.73a7.56,7.56,0,0,1-7.55-6.83L1.29,8.34A7.6,7.6,0,0,1,8.84,0H57.55A7.59,7.59,0,0,1,65.1,8.34L56.21,97.62A7.56,7.56,0,0,1,48.66,104.45ZM8.84,4A3.59,3.59,0,0,0,5.27,7.94l8.89,89.28a3.58,3.58,0,0,0,3.57,3.23H48.66a3.58,3.58,0,0,0,3.57-3.23L61.12,7.94A3.59,3.59,0,0,0,57.55,4Z"/><path d="M100,129.8H69.6a4.35,4.35,0,0,1-4.34-4.23l-3-29.93a4.33,4.33,0,0,1,4.34-4.33h3.27V87H99.7v4.3H103a4.34,4.34,0,0,1,4.34,4.33v.2l-3,29.73A4.35,4.35,0,0,1,100,129.8ZM66.26,95.59l3,29.87a.34.34,0,0,0,.34.34H100a.34.34,0,0,0,.34-.34v-.2l3-29.67a.33.33,0,0,0-.33-.28H95.7V91H73.87v4.3H66.6A.34.34,0,0,0,66.26,95.59Z"/><rect class="cls-1" x="19.61" y="13.04" width="27.17" height="71.33"/><path d="M48.78,86.38H17.61V11H48.78Zm-27.17-4H44.78V15H21.61Z"/><rect class="cls-2" x="73.28" y="104.88" width="23" height="9.33"/><path d="M97.78,115.71h-26V103.38h26Zm-23-3h20v-6.33h-20Z"/></svg>