<svg id="Слой_1" data-name="Слой 1" xmlns="http://www.w3.org/2000/svg" viewBox="0 0 108.87 130.5"><defs><style>.cls-1{fill:#e4e5e4;}.cls-2{fill:#cbe8f0;}.cls-3{fill:#e6ebb1;}</style></defs><title>icon</title><path class="cls-1" d="M50.13,130.5H13.75a4.34,4.34,0,0,1-4.33-4.34V112.68a4.34,4.34,0,0,1,4.33-4.34H50.13a4.35,4.35,0,0,1,4.34,4.34v13.48A4.35,4.35,0,0,1,50.13,130.5ZM13.75,112.34a.34.34,0,0,0-.33.34v13.48a.34.34,0,0,0,.33.34H50.13a.34.34,0,0,0,.34-.34V112.68a.34.34,0,0,0-.34-.34Z"/><path class="cls-1" d="M102.42,85.14a4.51,4.51,0,0,1-1.4-.23L66.58,73.2a4.35,4.35,0,0,1-2.71-5.51L66,61.48a4.35,4.35,0,0,1,5.51-2.71l34.44,11.71a4.35,4.35,0,0,1,2.71,5.5l-2.11,6.21a4.35,4.35,0,0,1-4.11,3ZM70.09,62.54a.33.33,0,0,0-.15,0,.3.3,0,0,0-.17.19L67.66,69a.33.33,0,0,0,.21.43l34.44,11.71a.32.32,0,0,0,.26,0,.32.32,0,0,0,.17-.19l2.11-6.22a.29.29,0,0,0,0-.25.31.31,0,0,0-.19-.18L70.2,62.56A.23.23,0,0,0,70.09,62.54Z"/><path class="cls-1" d="M47.41,104.45H16.47a7.57,7.57,0,0,1-7.55-6.83L0,8.34A7.59,7.59,0,0,1,7.59,0H56.3a7.6,7.6,0,0,1,7.55,8.34L55,97.62A7.56,7.56,0,0,1,47.41,104.45ZM7.59,4A3.59,3.59,0,0,0,4,7.94l8.89,89.28a3.57,3.57,0,0,0,3.56,3.23H47.41A3.58,3.58,0,0,0,51,97.22L59.87,7.94A3.59,3.59,0,0,0,56.3,4Z"/><path class="cls-1" d="M98.72,129.8H68.34A4.34,4.34,0,0,1,64,125.57L61,95.64a4.34,4.34,0,0,1,4.34-4.33h3.27V87H98.45v4.3h3.27a4.34,4.34,0,0,1,4.34,4.33v.2l-3,29.73A4.34,4.34,0,0,1,98.72,129.8ZM65,95.59l3,29.87a.35.35,0,0,0,.34.34H98.72a.35.35,0,0,0,.34-.34v-.2l3-29.67a.33.33,0,0,0-.33-.28H94.45V91H72.61v4.3H65.34A.33.33,0,0,0,65,95.59Z"/><rect class="cls-2" x="18.36" y="13.04" width="27.17" height="71.33"/><path class="cls-1" d="M47.53,86.38H16.36V11H47.53Zm-27.17-4H43.53V15H20.36Z"/><rect class="cls-3" x="72.03" y="104.88" width="23" height="9.33"/><path class="cls-1" d="M96.53,115.71h-26V103.38h26Zm-23-3h20v-6.33h-20Z"/></svg>