<svg id="Слой_1" data-name="Слой 1" xmlns="http://www.w3.org/2000/svg" viewBox="0 0 115.18 112.44"><defs><style>.cls-1{fill:#f8c7db;}.cls-2{fill:#aedbf4;}</style></defs><title>icon</title><circle class="cls-1" cx="72.8" cy="67.29" r="6.32"/><circle class="cls-1" cx="96.57" cy="67.29" r="6.32"/><circle class="cls-1" cx="72.8" cy="90.51" r="6.32"/><circle class="cls-1" cx="96.57" cy="90.51" r="6.32"/><rect class="cls-2" x="2.4" y="52.2" width="39.22" height="28"/><path d="M67.38,67.75a5.16,5.16,0,0,0,.21,1.37V66.38A5.16,5.16,0,0,0,67.38,67.75Z"/><path d="M67.59,91.88V89.14a4.57,4.57,0,0,0,0,2.74Z"/><path d="M11.93,100.45A7.94,7.94,0,0,1,4,92.52V82.37H.8V50.23H4V37.89A7.94,7.94,0,0,1,11.93,30h7l.54-1.16a8,8,0,0,1,7.2-4.64H17.81A12,12,0,0,0,16.45,26H11.93A11.94,11.94,0,0,0,0,37.89V92.52a12,12,0,0,0,11.93,11.93H54.8a13.08,13.08,0,0,1-.95-4Z"/><path d="M52.13,28.8,52.66,30h7a7.94,7.94,0,0,1,7.93,7.93v7.93h4V37.89A11.94,11.94,0,0,0,59.66,26H55.14a12,12,0,0,0-1.36-1.8H44.93A8,8,0,0,1,52.13,28.8Z"/><path d="M43.78,50.23H4V82.37H43.78Zm-4,28.14H4.8V54.23h35Z"/><rect x="0.8" y="50.23" width="3.2" height="32.14"/><path d="M26.67,20.16H16.43V5a1,1,0,0,1,1-1H54.16a1,1,0,0,1,1,1V20.16H44.93a11.91,11.91,0,0,1,8.85,4h5.38V5a5,5,0,0,0-5-5H17.43a5,5,0,0,0-5,5V24.16h5.38A12,12,0,0,1,26.67,20.16Z"/><path d="M44.93,24.16h8.85a11.91,11.91,0,0,0-8.85-4H26.67a12,12,0,0,0-8.86,4H44.93Z"/><path d="M102.18,45.82H71.59v4h30.59a9,9,0,0,1,9,9V99.44a9,9,0,0,1-9,9H66.8a9,9,0,0,1-7.48-4H54.8a13,13,0,0,0,12,8h35.38a13,13,0,0,0,13-13V58.82A13,13,0,0,0,102.18,45.82Z"/><path d="M57.8,58.82a9,9,0,0,1,9-9h.79v-4H66.8a13,13,0,0,0-13,13V99.44c0,.34,0,.67.05,1h4a8.43,8.43,0,0,1-.06-1Z"/><rect x="67.59" y="45.82" width="4" height="4"/><path d="M57.86,100.45h-4a13.08,13.08,0,0,0,.95,4h4.52A9,9,0,0,1,57.86,100.45Z"/><path d="M96.57,76.79a9,9,0,1,0-9-9A9,9,0,0,0,96.57,76.79Zm0-14.08a5,5,0,1,1-5,5A5,5,0,0,1,96.57,62.71Z"/><path d="M63.38,67.75a9,9,0,0,0,4.21,7.63V69.12a4.57,4.57,0,0,1,0-2.74V60.12A9,9,0,0,0,63.38,67.75Z"/><path d="M72.41,62.71a5,5,0,1,1,0,10.08,4.48,4.48,0,0,1-.82-.09v4a7.52,7.52,0,0,0,.82.05,9,9,0,1,0,0-18.08,7.52,7.52,0,0,0-.82,0v4A4.48,4.48,0,0,1,72.41,62.71Z"/><path d="M71.59,62.8v-4a8.91,8.91,0,0,0-4,1.36v6.26A5,5,0,0,1,71.59,62.8Z"/><path d="M67.59,69.12v6.26a8.91,8.91,0,0,0,4,1.36v-4A5,5,0,0,1,67.59,69.12Z"/><path d="M96.57,99.55a9,9,0,1,0-9-9A9,9,0,0,0,96.57,99.55Zm0-14.07a5,5,0,1,1-5,5A5,5,0,0,1,96.57,85.48Z"/><path d="M67.59,91.88a4.57,4.57,0,0,1,0-2.74V82.88A9,9,0,0,0,66.17,97a7.82,7.82,0,0,0,1.42-4.51Z"/><path d="M72.41,85.48a5,5,0,1,1,0,10.07,5.09,5.09,0,0,1-1.18-.16,11.71,11.71,0,0,1-1.62,3.7,8.93,8.93,0,0,0,2.8.46,9,9,0,1,0,0-18.07,7.5,7.5,0,0,0-.82,0v4A4.47,4.47,0,0,1,72.41,85.48Z"/><path d="M67.59,91.88v.64A7.82,7.82,0,0,1,66.17,97a9.07,9.07,0,0,0,3.44,2.06,11.71,11.71,0,0,0,1.62-3.7A5,5,0,0,1,67.59,91.88Z"/><path d="M67.59,89.14a5,5,0,0,1,4-3.58v-4a9,9,0,0,0-4,1.36Z"/></svg>