<svg id="Слой_1" data-name="Слой 1" xmlns="http://www.w3.org/2000/svg" viewBox="0 0 109.98 91.87"><defs><style>.cls-1{fill:#e7eec3;}</style></defs><title>icon</title><path class="cls-1" d="M54.82,91.21c-.8-1.38-1.58-2.68-2.3-4a2.35,2.35,0,0,1-.32-1.37c.43-2.2,1-4.37,1.38-6.58S55.36,76.05,57,75a34.08,34.08,0,0,0,4.63-3.47,18.69,18.69,0,0,1,6.19-4c.39-.14.68-.57,1-.87-.39-.38-.76-1-1.17-1.07a10.34,10.34,0,0,0-3.56.27A30.74,30.74,0,0,0,59.9,67.8a5.39,5.39,0,0,1,.33-5c1.61-2.58,3.34-5.08,5-7.62A14.71,14.71,0,0,0,66,53.87c.34-.65.49-1.32-.28-1.79a1.34,1.34,0,0,0-1.92.33q-2.2,2.78-4.42,5.53a12.4,12.4,0,0,1-1.35,1.54,3.9,3.9,0,0,1-1.18.48,6.21,6.21,0,0,1-.2-1.27A4.45,4.45,0,0,1,57,57.48q1.35-3.75,2.72-7.51a3.09,3.09,0,0,0,.14-.43c.33-1.24.05-2.15-.76-2.46s-1.4.23-1.94,1.5q-1.92,4.52-3.86,9a10.46,10.46,0,0,1-.66,1.11l-.38-.05a8.11,8.11,0,0,1-.09-1.55c.29-2.57.64-5.14,1-7.71a8,8,0,0,0,.08-1.47A1.33,1.33,0,0,0,52,46.56c-.85-.08-1,.58-1.11,1.18-.71,3.27-1.38,6.55-2.14,9.81a7.65,7.65,0,0,1-1,1.77,7.75,7.75,0,0,1-1.06-1.72c-.55-1.86-1-3.76-1.46-5.63a2.23,2.23,0,0,0-.6-1.06,1.36,1.36,0,0,0-1.12-.32c-.28.1-.51.61-.57,1a4.56,4.56,0,0,0,.12,1.36c.32,2.06.76,4.11,1,6.19a25.71,25.71,0,0,1-.08,4.64c-.31,3.37-.72,6.73-1.09,10.09,0,.22,0,.44-.11.89a6.85,6.85,0,0,1-.74-.8c-1.75-2.67-3.48-5.35-5.23-8-1-1.56-2-3.16-3.12-4.64A22.49,22.49,0,0,0,30.9,58.4c-1.51-1.39-3-2.75-4.65-4-2.54-2.06-5.15-4-7.71-6-1.11-.87-2.23-1.73-3.24-2.69-.81-.77-1.5-1.72-1-2.94a3.37,3.37,0,0,1,3.47-1.46,7.91,7.91,0,0,1,2.27,1c4.29,2.76,8.54,5.57,12.82,8.33.85.55,1.87,1.26,2.81.39s.22-1.88-.26-2.7q-5.49-9.54-11-19c-.61-1.06-1.22-2.11-1.84-3.16-1-1.67-1-2.65-.09-3.53A3.48,3.48,0,0,1,26.79,22a11.23,11.23,0,0,1,2.42,2.54c3.28,4.58,6.47,9.22,9.74,13.81.88,1.23,1.88,2.39,2.88,3.53.23.27.7.33,1.05.48.07-.38.28-.81.17-1.13-.88-2.71-1.81-5.4-2.74-8.1-1.83-5.28-3.68-10.56-5.47-15.85a9.41,9.41,0,0,1-.48-2.57c-.12-2.32,1.51-3.62,3.77-3.06,2,.51,3,2.14,3.73,3.88C43,18.07,44,20.6,45,23.13c1.47,3.55,2.89,7.12,4.41,10.64A16.58,16.58,0,0,0,51.31,37c.79,1.08,1.93.86,2.12-.46a28.25,28.25,0,0,0,.21-5.44c-.21-4.1-.56-8.2-.86-12.3a3.76,3.76,0,0,0-.29-1.43C48.19,9.65,42.19,3.86,33.56,1.22A26.09,26.09,0,0,0,5,10,25,25,0,0,0,0,26.17c.13,7.34,2.56,14,6.06,20.35,5,9.07,11.78,16.71,19.28,23.74A205.2,205.2,0,0,0,52.92,91.62C53.75,92.17,54.15,91.69,54.82,91.21Z"/><path class="cls-1" d="M70.06,46.49c.24-.59.43-1,.61-1.48,1.08-2.76,2.06-5.57,3.25-8.28a13.29,13.29,0,0,1,5.92-6.44,5.25,5.25,0,0,1,2.61-.6c2,.08,2.6,1.41,1.74,3.17-1,1.94-1.93,3.88-2.74,5.89a36.46,36.46,0,0,0-2.13,11c-.36,4.58-.8,9.14-2.41,13.53a39.54,39.54,0,0,0-1.58,6.76,4.71,4.71,0,0,0,.4,2.4c.43,1.12,1.06,2.17,1.68,3.39,1.93-1.61,3.78-3.12,5.59-4.68A103.59,103.59,0,0,0,100.75,52a50.55,50.55,0,0,0,8.8-20.37c2.24-13.06-4.49-24.93-16.74-28.9-10-3.23-19.08-1.05-27.13,5.53a63.45,63.45,0,0,0-5.24,5.38,2.72,2.72,0,0,0-.77,2.57c1.19,7.21,2.19,14.44,3.5,21.63C63.89,41.75,66.75,44.26,70.06,46.49Z"/></svg>