<svg id="Слой_1" data-name="Слой 1" xmlns="http://www.w3.org/2000/svg" viewBox="0 0 130.78 87.4"><defs><style>.cls-1{fill:#fff;}.cls-2{fill:#f6b4b7;}</style></defs><title>icon</title><rect class="cls-1" x="2" y="11.92" width="102.46" height="73.48" rx="12" ry="12"/><path d="M92.46,87.4H14a14,14,0,0,1-14-14V23.92a14,14,0,0,1,14-14H92.46a14,14,0,0,1,14,14V73.4A14,14,0,0,1,92.46,87.4ZM14,13.92a10,10,0,0,0-10,10V73.4a10,10,0,0,0,10,10H92.46a10,10,0,0,0,10-10V23.92a10,10,0,0,0-10-10Z"/><polyline class="cls-1" points="2 52.23 26.4 52.23 34 28.32 41 68.32 48 52.23 73.06 52.23"/><polygon points="40.18 75.22 33.44 36.7 27.86 54.23 2 54.23 2 50.23 24.94 50.23 34.56 19.94 41.82 61.41 46.69 50.23 73.06 50.23 73.06 54.23 49.31 54.23 40.18 75.22"/><path class="cls-2" d="M104.48,10a1.63,1.63,0,0,1,.11-.17,19.67,19.67,0,0,1,3.21-4.16,14.26,14.26,0,0,1,3.47-2.55,10.32,10.32,0,0,1,3-1,9.39,9.39,0,0,1,2-.14,12,12,0,0,1,5,1.35,17.48,17.48,0,0,1,2.87,1.8,8.42,8.42,0,0,1,1.53,1.57,14.6,14.6,0,0,1,2.19,4.1,15.79,15.79,0,0,1,.75,3,15.35,15.35,0,0,1,.15,3.1A16.54,16.54,0,0,1,127.25,23a20.92,20.92,0,0,1-2.79,4.47,29.25,29.25,0,0,1-4,4.06c-1.21,1-2.47,2-3.72,2.91q-2.58,2-5.16,4c-1.34,1.05-2.66,2.14-3.91,3.3-.6.54-1.18,1.1-1.73,1.69a14.28,14.28,0,0,0-1.35,1.65l-.06.09c-.08,0-.1-.06-.13-.1a17.88,17.88,0,0,0-2-2.33,62.29,62.29,0,0,0-4.77-4.14c-1.84-1.47-3.73-2.88-5.6-4.31-1.1-.84-2.21-1.67-3.28-2.56a28.69,28.69,0,0,1-4-3.9,21,21,0,0,1-3.22-5.15A17.16,17.16,0,0,1,80.39,19a12.24,12.24,0,0,1-.21-1.81c0-.36,0-.73,0-1.1a14.85,14.85,0,0,1,.13-1.88,16,16,0,0,1,1.2-4.39,14.14,14.14,0,0,1,2-3.33,8.76,8.76,0,0,1,1.63-1.53A17.42,17.42,0,0,1,88.49,3a12.2,12.2,0,0,1,2.78-.83A10.84,10.84,0,0,1,93.4,2a10.55,10.55,0,0,1,5.17,1.67,15.49,15.49,0,0,1,3.16,2.66,20.52,20.52,0,0,1,2.61,3.53c0,.06.07.11.1.16Z"/><path d="M104.48,47.14a2.09,2.09,0,0,1-1.79-1,15.39,15.39,0,0,0-1.75-2,60.12,60.12,0,0,0-4.61-4c-1.47-1.17-3-2.34-4.49-3.46l-1.2-.91c-1.06-.81-2.15-1.64-3.21-2.51a31.65,31.65,0,0,1-4.24-4.17,22.85,22.85,0,0,1-3.52-5.64,18.93,18.93,0,0,1-1.25-4.14,15.33,15.33,0,0,1-.24-2.07v-.18l0-1a17.12,17.12,0,0,1,.14-2.14A17.78,17.78,0,0,1,79.64,9a15.94,15.94,0,0,1,2.29-3.8,10.61,10.61,0,0,1,2-1.9A20.21,20.21,0,0,1,87.7,1.13,14.24,14.24,0,0,1,91,.17,12.16,12.16,0,0,1,99.63,2a17.67,17.67,0,0,1,3.57,3q.66.72,1.26,1.5a22.63,22.63,0,0,1,1.94-2.19,15.75,15.75,0,0,1,4-2.91A12.62,12.62,0,0,1,113.94.17,11.35,11.35,0,0,1,116.4,0a14,14,0,0,1,5.76,1.56,19.43,19.43,0,0,1,3.19,2,10.06,10.06,0,0,1,1.91,1.94,17.09,17.09,0,0,1,2.49,4.65,18.09,18.09,0,0,1,.84,3.41,17.78,17.78,0,0,1,.17,3.5,18.8,18.8,0,0,1-1.69,6.76,22.45,22.45,0,0,1-3,4.9,31.08,31.08,0,0,1-4.32,4.35c-1,.86-2.1,1.67-3.13,2.46L117,36.76,112.77,40c-1.43,1.12-2.67,2.16-3.79,3.19-.46.43-1.07,1-1.62,1.59a13,13,0,0,0-1.18,1.43l-.54.77-1,.16Zm1.64-3.06v0ZM93,4a8,8,0,0,0-1.37.12,10,10,0,0,0-2.33.69,15.71,15.71,0,0,0-3,1.73A6.58,6.58,0,0,0,85,7.72a11.59,11.59,0,0,0-1.71,2.85,14,14,0,0,0-1.06,3.84A14.82,14.82,0,0,0,82.14,16c0,.28,0,.57,0,.85v.18a10.63,10.63,0,0,0,.18,1.53,15,15,0,0,0,1,3.27,18.73,18.73,0,0,0,2.91,4.66A27.29,27.29,0,0,0,90,30.16c1,.82,2.07,1.63,3.1,2.42l1.19.9c1.5,1.14,3,2.32,4.56,3.52a62.68,62.68,0,0,1,4.93,4.28c.25.24.48.49.71.73.64-.68,1.3-1.31,1.81-1.77,1.21-1.11,2.53-2.22,4-3.4s2.81-2.18,4.22-3.25l1.6-1.23c1-.76,2-1.55,3-2.35a26.84,26.84,0,0,0,3.76-3.79,18.3,18.3,0,0,0,2.53-4,14.73,14.73,0,0,0,1.33-5.32,13.61,13.61,0,0,0-.12-2.71A14.27,14.27,0,0,0,126,11.5,12.91,12.91,0,0,0,124.09,8a6.37,6.37,0,0,0-1.16-1.2,16,16,0,0,0-2.56-1.6A9.85,9.85,0,0,0,116.25,4a7,7,0,0,0-1.64.11,8.41,8.41,0,0,0-2.43.82,11.92,11.92,0,0,0-3,2.2,18.27,18.27,0,0,0-2.89,3.74l-.13.21-.74,1.14-2.2-.33-.47-.77-.16-.25a18.68,18.68,0,0,0-2.35-3.18,13.25,13.25,0,0,0-2.75-2.32A8.42,8.42,0,0,0,93.31,4Z"/></svg>