<svg id="Слой_1" data-name="Слой 1" xmlns="http://www.w3.org/2000/svg" viewBox="0 0 135.77 92.58"><defs><style>.cls-1{fill:#d1ebf9;}.cls-2{fill:#fff;}</style></defs><title>icon</title><path d="M125.25,9.15A9.48,9.48,0,0,0,115.79,0H109.4V6h6.39a3.46,3.46,0,0,1,3.46,3.46v.28l10,52.34a3.46,3.46,0,0,1-3.45,3.22H9.46A3.46,3.46,0,0,1,6,62.08L16,10,16,9.74V9.46A3.46,3.46,0,0,1,19.46,6h6.39V0H19.46A9.48,9.48,0,0,0,10,9.15L.05,61.28l0,.28v.28A9.47,9.47,0,0,0,9.46,71.3H125.79a9.47,9.47,0,0,0,9.46-9.46v-.28Z"/><circle class="cls-1" cx="95.34" cy="68.3" r="22.28"/><path d="M95.34,92.58A24.28,24.28,0,1,1,119.63,68.3,24.3,24.3,0,0,1,95.34,92.58Zm0-44.56A20.28,20.28,0,1,0,115.63,68.3,20.31,20.31,0,0,0,95.34,48Z"/><circle class="cls-1" cx="39.91" cy="68.3" r="22.28"/><path d="M39.91,92.58A24.28,24.28,0,1,1,64.19,68.3,24.3,24.3,0,0,1,39.91,92.58Zm0-44.56A20.28,20.28,0,1,0,60.19,68.3,20.3,20.3,0,0,0,39.91,48Z"/><path class="cls-2" d="M46.53,47.34l-27.9,27.9a22.2,22.2,0,0,0,4.85,8.43L55,52.19A22.2,22.2,0,0,0,46.53,47.34Z"/><path class="cls-2" d="M57.62,55.1,26.39,86.33a21.71,21.71,0,0,0,4.14,2.5L60.12,59.24A22,22,0,0,0,57.62,55.1Z"/><path class="cls-2" d="M103,47.7,74.42,76.3a22.28,22.28,0,0,0,5.18,8.09l31.52-31.51A22.27,22.27,0,0,0,103,47.7Z"/><path class="cls-2" d="M113.65,55.92l-31,31A21.74,21.74,0,0,0,87,89.26l29-29A22.69,22.69,0,0,0,113.65,55.92Z"/></svg>