<svg id="Слой_1" data-name="Слой 1" xmlns="http://www.w3.org/2000/svg" viewBox="0 0 98.96 128.93"><title>icon</title><path d="M71,128.93c-11,0-17.5-6.48-21.59-11.68-4.8-6.1-15.95-14.9-27.1-21.41-1.58-.92-3.25-1.83-4.86-2.71-9.25-5-18.8-10.25-15.93-20.31A35.52,35.52,0,0,1,9,59.39a23.66,23.66,0,0,0,3.82-5.78c1.61-4,5-34.27,6.93-53.61l4,.39c-.49,5-4.85,48.85-7.19,54.71a27.07,27.07,0,0,1-4.43,6.8c-2.4,3-5.13,6.36-6.74,12-1.86,6.51,4,10.27,14,15.7,1.64.89,3.33,1.81,5,2.77,9.44,5.5,22.29,14.86,28.22,22.38,6.54,8.31,13.6,11.33,22.88,9.78,12.15-2,17.23-8.47,18.05-10.57q.22-.56.48-1.14c.61-1.43,1.25-2.91.82-3.84s-1.78-1.67-3.91-2.31c-.41-.12-11-3.16-15.19-6.39-2.54-2-4.15-6.21-6.38-12.07A117.69,117.69,0,0,0,62.65,73c-1.45-2.64-2.82-4.83-4-6.76-4.2-6.71-7-11.14-5.43-22.42C55.07,30.19,62.32,4.49,62.62,3.4l3.85,1.09C66.4,4.75,59,31,57.17,44.4c-1.35,9.85.72,13.16,4.85,19.76,1.23,2,2.63,4.21,4.14,7a122.48,122.48,0,0,1,6.91,15.7c1.84,4.85,3.44,9,5.09,10.33,2.94,2.29,11,4.9,13.87,5.71,3.4,1,5.49,2.49,6.4,4.47,1.19,2.55.11,5.08-.77,7.1q-.22.52-.42,1c-1.61,4.1-8.56,11-21.13,13.06A30.74,30.74,0,0,1,71,128.93Z"/><path d="M19.5,12.79s37.83,6.85,40.07,7.63,2.25,1.76,2,3.11S56.43,44.67,57,50.06s1.65,8.87,4.7,12.91S69.56,76.55,71.25,80s2,4.64,1.5,6.1-25.56,26.12-27.28,27.25-5.54-3.45-11.23-7.41a130.33,130.33,0,0,0-13.17-8.24c-3.37-1.79-6.4-2-5.9-6.47s1.13-14.65-.05-22.4a39.28,39.28,0,0,0-4.83-13.8c-.73-1.46-.28-2.76,1.4-8.26s4-30.53,4.77-32.33S19.5,12.79,19.5,12.79Z"/></svg>