<svg id="Слой_1" data-name="Слой 1" xmlns="http://www.w3.org/2000/svg" viewBox="0 0 111.5 114.98"><defs><style>.cls-1{opacity:0.43;}.cls-2{fill:#fd0;}.cls-2,.cls-3,.cls-4,.cls-5{fill-rule:evenodd;}.cls-3{fill:#4da734;}.cls-4{fill:#e30613;}.cls-5{fill:#008bd2;}</style></defs><title>icon</title><g class="cls-1"><path class="cls-2" d="M5.88,54.16C2.16,46,0,37.74,0,29.52,0,13.23,12.49,0,27.87,0c12,0,18.83,3.62,25,14.05V54.16Z"/><path class="cls-3" d="M52.82,115c-17.28-18.32-34.19-36.65-44-55H52.82Z"/><path class="cls-4" d="M102.73,60C92.87,78.33,76,96.66,58.68,115V60Z"/><path class="cls-5" d="M58.68,14.05C64.79,3.62,71.63,0,83.62,0,99,0,111.5,13.23,111.5,29.52c0,8.22-2.16,16.43-5.88,24.64H58.68Z"/></g></svg>