<svg id="Слой_1" data-name="Слой 1" xmlns="http://www.w3.org/2000/svg" viewBox="0 0 143.09 90.26"><defs><style>.cls-1{fill:#e94e56;}.cls-2{fill:#fff;}</style></defs><title>icon</title><path class="cls-1" d="M102.85,9.77H67.67a5.07,5.07,0,0,0-5.06,5.07V50a5,5,0,0,0,1.48,3.58L99.27,88.78a5.08,5.08,0,0,0,7.16,0L141.61,53.6a5.06,5.06,0,0,0,0-7.16L106.43,11.26A5,5,0,0,0,102.85,9.77Z"/><path class="cls-2" d="M102.85,11.67H67.67a3.18,3.18,0,0,0-3.17,3.17V50a3.16,3.16,0,0,0,.93,2.24l35.18,35.18a3.18,3.18,0,0,0,4.48,0l35.18-35.18a3.18,3.18,0,0,0,0-4.48L105.09,12.6A3.14,3.14,0,0,0,102.85,11.67Z"/><polygon class="cls-1" points="102.85 14.84 67.67 14.84 67.67 50.02 102.85 85.2 138.03 50.02 102.85 14.84 102.85 14.84"/><path class="cls-1" d="M102.85,86.7a1.51,1.51,0,0,1-1.06-.44L66.61,51.08A1.5,1.5,0,0,1,66.17,50V14.84a1.5,1.5,0,0,1,1.5-1.5h35.18a1.46,1.46,0,0,1,1.06.44L139.09,49a1.5,1.5,0,0,1,0,2.12L103.91,86.26A1.51,1.51,0,0,1,102.85,86.7ZM69.17,49.4l33.68,33.68L135.91,50,102.23,16.34H69.17Z"/><path class="cls-2" d="M90.94,59.28a6.75,6.75,0,0,1-5.39-2.14,6.61,6.61,0,0,1-2.11-5.37,9.91,9.91,0,0,1,8.39-8.39,6.62,6.62,0,0,1,5.36,2.11,6.72,6.72,0,0,1,2.14,5.4,8.69,8.69,0,0,1-2.77,5.61A8.71,8.71,0,0,1,90.94,59.28Zm-1.53-6a2.48,2.48,0,0,0,1.93.83,3.23,3.23,0,0,0,2.85-2.84,2.59,2.59,0,0,0-.86-1.9,2.39,2.39,0,0,0-1.86-.79,2.9,2.9,0,0,0-1.92.92,2.81,2.81,0,0,0-.92,1.92A2.41,2.41,0,0,0,89.41,53.27Zm13.5,12.95L98.27,34.15l4.06-.58,4.58,31.9Zm10.47-10.06A6.74,6.74,0,0,1,108,54a6.6,6.6,0,0,1-2.11-5.37,8.86,8.86,0,0,1,2.8-5.59,8.83,8.83,0,0,1,5.59-2.8,6.63,6.63,0,0,1,5.37,2.12,6.75,6.75,0,0,1,2.14,5.39A8.71,8.71,0,0,1,119,53.38,8.66,8.66,0,0,1,113.38,56.16Zm-1.53-6a2.45,2.45,0,0,0,1.93.82,3.23,3.23,0,0,0,2.84-2.84,2.55,2.55,0,0,0-.86-1.9,2.42,2.42,0,0,0-1.86-.79,2.87,2.87,0,0,0-1.92.93,2.83,2.83,0,0,0-.92,1.91A2.42,2.42,0,0,0,111.85,50.16Z"/><path class="cls-1" d="M80.49,40.24V5.06A5.07,5.07,0,0,0,75.42,0H40.24a5.06,5.06,0,0,0-3.58,1.48L1.48,36.66a5.08,5.08,0,0,0,0,7.16L36.66,79a5.08,5.08,0,0,0,7.16,0L79,43.82A5,5,0,0,0,80.49,40.24Z"/><path class="cls-2" d="M78.59,40.24V5.06A3.16,3.16,0,0,0,75.42,1.9H40.24A3.15,3.15,0,0,0,38,2.82L2.82,38a3.17,3.17,0,0,0,0,4.47L38,77.66a3.15,3.15,0,0,0,4.47,0L77.66,42.48A3.14,3.14,0,0,0,78.59,40.24Z"/><polygon class="cls-1" points="75.42 40.24 75.42 5.06 40.24 5.06 5.06 40.24 40.24 75.43 75.42 40.24 75.42 40.24"/><path class="cls-1" d="M40.24,76.93a1.51,1.51,0,0,1-1.06-.44L4,41.3a1.49,1.49,0,0,1,0-2.12L39.18,4a1.5,1.5,0,0,1,1.06-.44H75.43a1.5,1.5,0,0,1,1.5,1.5V40.24a1.5,1.5,0,0,1-.44,1.06L41.3,76.49A1.49,1.49,0,0,1,40.24,76.93ZM7.18,40.24,40.24,73.31,73.93,39.62V6.56H40.86Zm68.25,0Z"/><path class="cls-2" d="M31,28.34a6.77,6.77,0,0,1,2.14-5.4,6.66,6.66,0,0,1,5.37-2.11,8.83,8.83,0,0,1,5.59,2.8,8.83,8.83,0,0,1,2.8,5.59,6.66,6.66,0,0,1-2.11,5.37,6.77,6.77,0,0,1-5.4,2.14A8.71,8.71,0,0,1,33.76,34,8.71,8.71,0,0,1,31,28.34Zm6-1.53a2.48,2.48,0,0,0-.83,1.93A3.23,3.23,0,0,0,39,31.58a2.53,2.53,0,0,0,1.9-.86,2.39,2.39,0,0,0,.79-1.86,2.9,2.9,0,0,0-.92-1.92A2.85,2.85,0,0,0,38.85,26,2.39,2.39,0,0,0,37,26.81ZM24,40.3l32.07-4.64.58,4.06L24.79,44.3ZM34.1,50.77a6.72,6.72,0,0,1,2.14-5.39,6.57,6.57,0,0,1,5.37-2.11,8.81,8.81,0,0,1,5.59,2.8A8.81,8.81,0,0,1,50,51.65,6.63,6.63,0,0,1,47.89,57a6.75,6.75,0,0,1-5.4,2.14,8.69,8.69,0,0,1-5.61-2.77A8.68,8.68,0,0,1,34.1,50.77Zm6-1.53a2.5,2.5,0,0,0-.82,1.93A3.23,3.23,0,0,0,42.12,54a2.54,2.54,0,0,0,1.9-.85,2.42,2.42,0,0,0,.79-1.86,2.87,2.87,0,0,0-.93-1.92A2.82,2.82,0,0,0,42,48.45,2.49,2.49,0,0,0,40.1,49.24Z"/><circle class="cls-2" cx="64.71" cy="15.77" r="5.11"/></svg>