<svg id="Слой_1" data-name="Слой 1" xmlns="http://www.w3.org/2000/svg" viewBox="0 0 112.02 112.02"><defs><style>.cls-1{fill:#e94e56;}.cls-2{fill:#fff;}</style></defs><title>icon</title><path class="cls-1" d="M56,0H7A7,7,0,0,0,0,7V56a7,7,0,0,0,2.06,5l49,49a7.06,7.06,0,0,0,10,0l49-49a7.06,7.06,0,0,0,0-10l-49-49A7,7,0,0,0,56,0Z"/><path class="cls-2" d="M56,2.64H7A4.4,4.4,0,0,0,2.64,7V56a4.36,4.36,0,0,0,1.29,3.11l49,49a4.39,4.39,0,0,0,6.22,0l49-49a4.39,4.39,0,0,0,0-6.22l-49-49A4.36,4.36,0,0,0,56,2.64Z"/><polygon class="cls-1" points="56.01 7.04 7.04 7.04 7.04 56.01 56.01 104.98 104.98 56.01 56.01 7.04 56.01 7.04"/><path class="cls-1" d="M56,107.48a2.5,2.5,0,0,1-1.77-.74l-49-49A2.52,2.52,0,0,1,4.54,56V7A2.5,2.5,0,0,1,7,4.54H56a2.52,2.52,0,0,1,1.77.74l49,49a2.5,2.5,0,0,1,0,3.54l-49,49A2.5,2.5,0,0,1,56,107.48ZM9.54,55,56,101.44,101.44,56,55,9.54H9.54Z"/><path class="cls-2" d="M39.44,68.89a9.35,9.35,0,0,1-7.51-3A9.25,9.25,0,0,1,29,58.45a12.26,12.26,0,0,1,3.9-7.78,12.26,12.26,0,0,1,7.78-3.9,9.25,9.25,0,0,1,7.47,2.94,9.35,9.35,0,0,1,3,7.51A12.08,12.08,0,0,1,47.25,65,12.08,12.08,0,0,1,39.44,68.89Zm-2.13-8.35A3.46,3.46,0,0,0,40,61.69a4,4,0,0,0,2.65-1.26A3.94,3.94,0,0,0,44,57.74a3.54,3.54,0,0,0-1.19-2.65A3.37,3.37,0,0,0,40.17,54a4.51,4.51,0,0,0-4,4A3.37,3.37,0,0,0,37.31,60.54Zm18.78,18L49.63,33.93l5.65-.81,6.38,44.4Zm14.57-14a9.35,9.35,0,0,1-7.51-3,9.25,9.25,0,0,1-2.94-7.47,12.28,12.28,0,0,1,3.9-7.78,12.28,12.28,0,0,1,7.78-3.9,9.25,9.25,0,0,1,7.47,2.94,9.36,9.36,0,0,1,3,7.51,12.12,12.12,0,0,1-3.86,7.81A12.08,12.08,0,0,1,70.66,64.55ZM68.53,56.2a3.43,3.43,0,0,0,2.69,1.15,4,4,0,0,0,2.65-1.26,3.94,3.94,0,0,0,1.3-2.69A3.54,3.54,0,0,0,74,50.75a3.4,3.4,0,0,0-2.59-1.1,4.51,4.51,0,0,0-4,4A3.4,3.4,0,0,0,68.53,56.2Z"/><circle class="cls-2" cx="21.95" cy="21.95" r="7.12"/></svg>