<svg width="16" height="16" viewBox="0 0 16 16" fill="none" xmlns="http://www.w3.org/2000/svg">
    <path d="M0.801844 7.60065C0.295082 6.5237 0.0224535 5.34839 0.00251248 4.15471C-0.0159904 3.62864 0.0678489 3.10404 0.249222 2.611C0.430595 2.11796 0.70593 1.66618 1.05943 1.28158C1.41293 0.896991 1.83765 0.587151 2.3092 0.369841C2.78075 0.152531 3.28986 0.0320277 3.80733 0.0152452C4.50355 -0.0516718 5.20326 0.0992727 5.81278 0.447868C6.42229 0.796463 6.91252 1.32607 7.21781 1.96578V7.54646L0.801844 7.60065Z" fill="#FFDD00"/>
    <path d="M7.21727 16.0002C4.90816 13.7184 2.88883 11.152 1.2063 8.3606H7.21727V16.0002Z" fill="#52AE32"/>
    <path d="M14.0391 8.3606C12.3496 11.1471 10.3309 13.7127 8.02808 16.0002V8.3606H14.0391Z" fill="#E30613"/>
    <path d="M8.01709 1.96659C8.32358 1.32787 8.81403 0.799146 9.42325 0.450724C10.0325 0.102303 10.7316 -0.0493056 11.4276 0.016059C11.9427 0.0314804 12.4498 0.14997 12.9198 0.364756C13.3899 0.579541 13.8137 0.886411 14.1671 1.26783C14.5204 1.64924 14.7964 2.09772 14.9792 2.58763C15.162 3.07754 15.248 3.59927 15.2324 4.12301C15.2094 5.30936 14.9368 6.47696 14.433 7.54728H8.0384L8.01709 1.96659Z" fill="#008BD2"/>
</svg>
