<svg width="17" height="18" viewBox="0 0 17 18" fill="none" xmlns="http://www.w3.org/2000/svg">
<path d="M16.7283 4.57267L16.1714 3.97896C15.9962 3.79355 15.763 3.6914 15.5138 3.6914C15.2647 3.6914 15.0313 3.79355 14.856 3.97896L8.5038 10.7052L2.14423 3.9715C1.96925 3.78608 1.73581 3.68408 1.48675 3.68408C1.23769 3.68408 1.00411 3.78608 0.828999 3.9715L0.272002 4.56155C-0.0906674 4.94526 -0.0906674 5.57029 0.272002 5.954L7.84384 14.0001C8.01881 14.1853 8.25198 14.3159 8.50325 14.3159H8.50615C8.75535 14.3159 8.98851 14.1852 9.16349 14.0001L16.7283 5.97581C16.9035 5.79054 16.9997 5.53619 17 5.27249C17 5.00863 16.9035 4.7578 16.7283 4.57267Z" fill="#595959"/>
</svg>
