<svg width="10" height="10" viewBox="0 0 10 10" fill="none" xmlns="http://www.w3.org/2000/svg">
    <g clip-path="url(#clip0_2646_4427)">
        <path d="M9.29349 2.54029L8.98412 2.21045C8.88676 2.10744 8.75722 2.0507 8.61878 2.0507C8.48041 2.0507 8.35072 2.10744 8.25336 2.21045L4.72433 5.94723L1.19124 2.20631C1.09403 2.1033 0.964339 2.04663 0.825973 2.04663C0.687607 2.04663 0.557841 2.1033 0.460555 2.20631L0.151112 2.53411C-0.0503708 2.74729 -0.0503708 3.09453 0.151112 3.3077L4.35769 7.77773C4.4549 7.88066 4.58443 7.95318 4.72403 7.95318H4.72564C4.86408 7.95318 4.99362 7.88058 5.09083 7.77773L9.29349 3.31981C9.39085 3.21688 9.44429 3.07558 9.44444 2.92908C9.44444 2.78249 9.39085 2.64314 9.29349 2.54029Z" fill="#595959"/>
    </g>
    <defs>
        <clipPath id="clip0_2646_4427">
            <rect width="9.44444" height="10" fill="white"/>
        </clipPath>
    </defs>
</svg>
