<svg width="8" height="8" viewBox="0 0 8 8" fill="none" xmlns="http://www.w3.org/2000/svg">
    <path d="M5.96737 7.87213L6.23125 7.61008C6.31365 7.52761 6.35905 7.41788 6.35905 7.30061C6.35905 7.18341 6.31365 7.07355 6.23125 6.99108L3.24182 4.00179L6.23456 1.00905C6.31697 0.926707 6.3623 0.816852 6.3623 0.699648C6.3623 0.582444 6.31697 0.472524 6.23456 0.390117L5.97232 0.128001C5.80178 -0.042667 5.52399 -0.042667 5.35345 0.128001L1.77742 3.69122C1.69508 3.77356 1.63706 3.88328 1.63706 4.00153V4.00289C1.63706 4.12016 1.69514 4.22989 1.77742 4.31223L5.34376 7.87213C5.4261 7.9546 5.53914 7.99987 5.65635 8C5.77362 8 5.8851 7.9546 5.96737 7.87213Z" fill="#333333"/>
</svg>
