<svg width="8" height="8" viewBox="0 0 8 8" fill="none" xmlns="http://www.w3.org/2000/svg">
    <path d="M2.03263 0.127872L1.76875 0.389922C1.68635 0.472394 1.64095 0.582119 1.64095 0.699388C1.64095 0.816592 1.68635 0.926447 1.76875 1.00892L4.75818 3.99821L1.76544 6.99095C1.68303 7.07329 1.6377 7.18315 1.6377 7.30035C1.6377 7.41756 1.68303 7.52748 1.76544 7.60988L2.02768 7.872C2.19822 8.04267 2.47601 8.04267 2.64655 7.872L6.22258 4.30878C6.30492 4.22644 6.36294 4.11672 6.36294 3.99847V3.99711C6.36294 3.87984 6.30486 3.77011 6.22258 3.68777L2.65624 0.127872C2.5739 0.0453992 2.46086 0.000130177 2.34365 0C2.22638 0 2.1149 0.0453992 2.03263 0.127872Z" fill="#333333"/>
</svg>
