<svg height="480pt" viewBox="0 -96 480 480" width="480pt" xmlns="http://www.w3.org/2000/svg">
    <path d="m472 0h-464c-4.417969 0-8 3.582031-8 8v272c0 4.417969 3.582031 8 8 8h464c4.417969 0 8-3.582031 8-8v-272c0-4.417969-3.582031-8-8-8zm-8 16v16h-448v-16zm0 48h-448v-16h448zm-448 208v-192h448v192zm0 0"/>
    <path d="m136 128h-80c-4.417969 0-8 3.582031-8 8v48c0 4.417969 3.582031 8 8 8h80c4.417969 0 8-3.582031 8-8v-48c0-4.417969-3.582031-8-8-8zm-8 48h-64v-32h64zm0 0"/>
    <path d="m392 208h-144c-4.417969 0-8 3.582031-8 8s3.582031 8 8 8h144c4.417969 0 8-3.582031 8-8s-3.582031-8-8-8zm0 0"/>
    <path d="m432 208h-8c-4.417969 0-8 3.582031-8 8s3.582031 8 8 8h8c4.417969 0 8-3.582031 8-8s-3.582031-8-8-8zm0 0"/>
    <path d="m392 240h-144c-4.417969 0-8 3.582031-8 8s3.582031 8 8 8h144c4.417969 0 8-3.582031 8-8s-3.582031-8-8-8zm0 0"/>
    <path d="m432 240h-8c-4.417969 0-8 3.582031-8 8s3.582031 8 8 8h8c4.417969 0 8-3.582031 8-8s-3.582031-8-8-8zm0 0"/>
    <path d="m360 96c-10.058594.003906-19.863281 3.191406-28 9.105469-8.136719-5.921875-17.9375-9.109375-28-9.105469-26.507812 0-48 21.492188-48 48s21.492188 48 48 48c10.0625.003906 19.867188-3.183594 28-9.105469 16.851562 12.1875 39.636719 12.136719 56.433594-.128906 16.792968-12.265625 23.78125-33.949219 17.304687-53.710937-6.476562-19.765626-24.941406-33.109376-45.738281-33.054688zm-88 48c0-17.671875 14.328125-32 32-32 5.84375.019531 11.570312 1.660156 16.535156 4.742188-11.375 16.390624-11.375 38.117187 0 54.503906-4.964844 3.089844-10.6875 4.734375-16.535156 4.753906-17.671875 0-32-14.328125-32-32zm88 32c-7.9375-.023438-15.582031-3.019531-21.425781-8.390625-.191407-.359375-.417969-.699219-.671875-1.015625-.371094-.304688-.773438-.574219-1.199219-.800781-11.933594-12.59375-11.550781-32.4375.863281-44.5625.042969 0 .097656-.054688.144532-.09375v-.058594c10.339843-10.074219 26.148437-11.976563 38.585937-4.644531 12.433594 7.332031 18.421875 22.085937 14.613281 36.011718-3.8125 13.925782-16.472656 23.574219-30.910156 23.554688zm0 0"/>
</svg>