<svg width="16" height="12" viewBox="0 0 16 12" fill="none" xmlns="http://www.w3.org/2000/svg">
<path d="M13.8182 3.09231H11.6364V0.183228H1.45456C0.650898 0.183228 0 0.834126 0 1.63779V9.6378H1.45456C1.45456 10.8415 2.43273 11.8196 3.63638 11.8196C4.84003 11.8196 5.8182 10.8415 5.8182 9.6378H10.1818C10.1818 10.8415 11.16 11.8196 12.3637 11.8196C13.5673 11.8196 14.5455 10.8415 14.5455 9.6378H16V6.00142L13.8182 3.09231ZM3.63638 10.7287C3.03273 10.7287 2.54547 10.2414 2.54547 9.63777C2.54547 9.03412 3.03273 8.54686 3.63638 8.54686C4.24003 8.54686 4.72729 9.03412 4.72729 9.63777C4.72729 10.2414 4.23999 10.7287 3.63638 10.7287ZM12.3637 10.7287C11.76 10.7287 11.2727 10.2414 11.2727 9.63777C11.2727 9.03412 11.76 8.54686 12.3637 8.54686C12.9673 8.54686 13.4546 9.03412 13.4546 9.63777C13.4546 10.2414 12.9673 10.7287 12.3637 10.7287ZM11.6364 6.00142V4.18325H13.4545L14.8836 6.00142H11.6364Z" fill="#FFDD00"/>
</svg>
