<svg width="29" height="29" viewBox="0 0 29 29" fill="none" xmlns="http://www.w3.org/2000/svg">
    <g clip-path="url(#clip0_2646_4540)">
        <path d="M26.4801 2.98402H5.19479C5.13069 2.98402 5.07218 3.00813 5.0121 3.02621L4.48892 1.30699C4.32255 0.760258 3.81825 0.386597 3.24674 0.386597H0.649371C0.290747 0.386597 0 0.677344 0 1.03597V2.33465C0 2.69327 0.290747 2.98402 0.649371 2.98402H2.28482L6.34201 16.3166L4.82673 18.0844C4.22782 18.7831 3.95814 19.7458 4.23379 20.6238C4.58633 21.7466 5.57734 22.4645 6.71993 22.4645H25.3247C25.6833 22.4645 25.9741 22.1737 25.9741 21.8151V20.5164C25.9741 20.1578 25.6833 19.8671 25.3247 19.8671H6.71987L8.77829 17.4656C8.83004 17.4052 8.86809 17.337 8.90735 17.2696H21.4907C22.4972 17.2696 23.4131 16.6884 23.8417 15.7777L28.373 6.14888C28.5029 5.87177 28.5714 5.56422 28.5714 5.25917V5.07526C28.5714 3.92037 27.6351 2.98402 26.4801 2.98402Z" fill="#7CC622"/>
        <path d="M7.79176 28.958C9.22628 28.958 10.3892 27.7951 10.3892 26.3606C10.3892 24.9261 9.22628 23.7632 7.79176 23.7632C6.35724 23.7632 5.19434 24.9261 5.19434 26.3606C5.19434 27.7951 6.35724 28.958 7.79176 28.958Z" fill="#7CC622"/>
        <path d="M23.3767 28.958C24.8112 28.958 25.9741 27.7951 25.9741 26.3606C25.9741 24.9261 24.8112 23.7632 23.3767 23.7632C21.9422 23.7632 20.7793 24.9261 20.7793 26.3606C20.7793 27.7951 21.9422 28.958 23.3767 28.958Z" fill="#7CC622"/>
    </g>
    <defs>
        <clipPath id="clip0_2646_4540">
            <rect width="28.5714" height="28.5714" fill="white" transform="translate(0 0.386597)"/>
        </clipPath>
    </defs>
</svg>
