<svg width="30" height="30" viewBox="0 0 30 30" fill="none" xmlns="http://www.w3.org/2000/svg">
    <path d="M16.7586 15.0083L29.6184 2.14852C30.1147 1.66918 30.1285 0.878265 29.6492 0.381932C29.1698 -0.1144 28.3789 -0.128163 27.8826 0.351186C27.8722 0.361215 27.8619 0.371464 27.8518 0.381932L14.992 13.2417L2.13218 0.381859C1.63584 -0.0974898 0.844931 -0.0837272 0.365582 0.412605C-0.102055 0.896786 -0.102055 1.66434 0.365582 2.14852L13.2254 15.0083L0.365582 27.8681C-0.122186 28.3559 -0.122186 29.1468 0.365582 29.6347C0.853423 30.1223 1.64433 30.1223 2.13218 29.6347L14.992 16.7749L27.8517 29.6347C28.3481 30.114 29.139 30.1002 29.6183 29.6039C30.0859 29.1197 30.0859 28.3522 29.6183 27.8681L16.7586 15.0083Z" fill="#333333"/>
</svg>
