<svg xmlns="http://www.w3.org/2000/svg" viewBox="0 0 480 480">
    <path d="M64 100h112v16H64zM360 124h-48a8 8 0 00-8 8v64a8 8 0 008 8h48a8 8 0 008-8v-64a8 8 0 00-8-8zm-8 64h-32v-48h32v48zM400 220h16v16h-16zM304 220h32v16h-32z"/>
    <path d="M386.48 364a48 48 0 0020.8-32H440a8 8 0 008-8V196a8 8 0 00-8-8h-40v-88a8 8 0 00-8-8H288V76a8 8 0 00-8-8H40a8 8 0 00-8 8v56H0v16h32v176a8 8 0 008 8h24.72a48 48 0 0020.8 32H0v16h480v-16h-93.52zM288 108h96v88a8 8 0 008 8h40v112h-24.72c-4.574-26.112-29.451-43.572-55.563-38.997-19.915 3.489-35.509 19.082-38.997 38.997H288V108zM64.72 316H48V148h72v-16H48V84h224v232H159.28c-4.574-26.112-29.451-43.572-55.563-38.997C83.802 280.491 68.209 296.085 64.72 316zM112 356c-17.673 0-32-14.327-32-32 0-17.673 14.327-32 32-32s32 14.327 32 32c0 17.673-14.327 32-32 32zm26.48 8a48 48 0 0020.8-32h153.44a48 48 0 0020.8 32H138.48zM360 356c-17.673 0-32-14.327-32-32 0-17.673 14.327-32 32-32 17.673 0 32 14.327 32 32 0 17.673-14.327 32-32 32zM16 396h136v16H16z"/>
</svg>