<svg width="17" height="17" viewBox="0 0 17 17" fill="none" xmlns="http://www.w3.org/2000/svg">
    <path fill-rule="evenodd" clip-rule="evenodd" d="M8.0525 0.0725584C9.25728 0.00646563 10.4614 0.213754 11.5748 0.678906C12.6881 1.14406 13.6818 1.85502 14.4815 2.75858C15.2811 3.66214 15.8661 4.73487 16.1924 5.89649C16.5188 7.05811 16.5783 8.27851 16.3662 9.46633C16.1542 10.6542 15.6762 11.7786 14.9681 12.7556C14.26 13.7325 13.34 14.5367 12.2771 15.1077C11.2142 15.6788 10.0359 16.0021 8.83041 16.0533C7.6249 16.1046 6.42341 15.8825 5.31589 15.4036C3.62832 14.6647 2.0715 15.4553 0.496436 16.0513L2.37253 13.2082C1.41645 12.071 0.795957 10.6899 0.580591 9.21988C0.365225 7.74983 0.563493 6.24883 1.15318 4.88512C1.74286 3.5214 2.70065 2.34883 3.91923 1.49882C5.13782 0.648812 6.56903 0.154943 8.0525 0.0725584ZM4.79594 7.33976C5.17888 7.26024 5.52566 7.05857 5.78416 6.76507L2.77998 4.79776C2.64176 5.10314 2.59036 5.4407 2.6314 5.77338C2.67244 6.10606 2.80434 6.421 3.01263 6.68364C3.22092 6.94628 3.49754 7.14645 3.81212 7.26219C4.12671 7.37794 4.4671 7.40477 4.79594 7.33976ZM12.6682 12.5089C13.0512 12.4294 13.398 12.2277 13.6564 11.9342L10.6523 9.96689C10.5141 10.2723 10.4626 10.6098 10.5037 10.9425C10.5447 11.2752 10.6766 11.5901 10.8849 11.8528C11.0932 12.1154 11.3698 12.3156 11.6844 12.4313C11.999 12.5471 12.3394 12.5739 12.6682 12.5089ZM10.9381 9.52904L13.9423 11.4964C14.1095 11.1026 14.133 10.6626 14.0088 10.2533C13.8845 9.84398 13.6204 9.49133 13.2625 9.25698C12.9046 9.02263 12.4758 8.92148 12.0509 8.97121C11.6261 9.02094 11.2322 9.21838 10.9381 9.52904ZM4.63783 10.0064C4.49562 10.2236 4.3976 10.4667 4.34937 10.7218C4.30113 10.9769 4.30363 11.239 4.35672 11.4931C4.4098 11.7473 4.51244 11.9885 4.65875 12.2029C4.80507 12.4174 4.99221 12.6009 5.20947 12.743L5.38279 12.8555C5.59999 12.9977 5.84309 13.0958 6.09819 13.144C6.35328 13.1922 6.61539 13.1897 6.86952 13.1366C7.12365 13.0836 7.36483 12.9809 7.57929 12.8346C7.79375 12.6883 7.97727 12.5011 8.11939 12.2839L11.9871 6.3637C12.1293 6.1465 12.2273 5.9034 12.2756 5.6483C12.3238 5.39321 12.3213 5.13111 12.2682 4.87698C12.2151 4.62284 12.1125 4.38166 11.9662 4.1672C11.8199 3.95275 11.6327 3.76922 11.4155 3.6271L11.2422 3.5146C11.025 3.37239 10.7819 3.27437 10.5268 3.22614C10.2717 3.1779 10.0096 3.1804 9.75543 3.23349C9.5013 3.28657 9.26012 3.3892 9.04566 3.53552C8.8312 3.68184 8.64767 3.86898 8.50556 4.08624L4.63783 10.0064ZM5.65341 12.3295C5.71023 12.3681 5.7691 12.4037 5.82977 12.4359C6.13563 12.591 6.4879 12.6281 6.81936 12.54C7.15081 12.452 7.43824 12.245 7.6268 11.9585L11.4945 6.03835C11.6371 5.81867 11.715 5.5633 11.7193 5.30144C11.7236 5.03958 11.6542 4.78179 11.5189 4.55754C11.5457 4.85061 11.4728 5.14416 11.3121 5.39069C10.6568 6.39345 9.95148 7.36262 9.19883 8.29453L7.27105 7.03569L6.9913 7.46746L8.97686 8.75975L7.01563 11.7609C6.87059 11.9809 6.66314 12.1525 6.41989 12.2538C6.17665 12.3551 5.90869 12.3815 5.65037 12.3295H5.65341ZM3.06884 4.35078L6.07302 6.31809C6.24023 5.92435 6.26376 5.48438 6.1395 5.07505C6.01525 4.66572 5.75111 4.31307 5.39325 4.07872C5.03538 3.84437 4.60654 3.74322 4.18167 3.79295C3.7568 3.84268 3.36291 4.04012 3.06884 4.35078Z" fill="#009836"/>
</svg>
