<svg width="16" height="20" viewBox="0 0 16 20" xmlns="http://www.w3.org/2000/svg">
<path d="M14.9351 0H2.59741C2.23877 0 1.94805 0.319796 1.94805 0.714299V2.85715H0.649363C0.290724 2.85715 0 3.17695 0 3.57145V19.2857C0 19.6802 0.290724 20 0.649363 20H12.3377C12.6963 20 12.987 19.6802 12.987 19.2857V18.5714H14.9351C15.2937 18.5714 15.5844 18.2516 15.5844 17.8571V0.714257C15.5844 0.319796 15.2937 0 14.9351 0ZM11.6883 18.5714H1.29873V4.28571H8.44157V7.14287C8.44157 7.53737 8.73229 7.85716 9.09093 7.85716H11.6883V18.5714H11.6883ZM9.74025 6.42857V5.2957L10.7701 6.42857H9.74025ZM14.2857 17.1428H12.987V7.14287C12.9862 6.95327 12.9176 6.77168 12.7961 6.63716L9.54937 3.06571C9.4272 2.93295 9.26264 2.85812 9.09093 2.85715H3.24678V1.42856H14.2857V17.1428Z"/>
<path d="M9.74001 9.28564H3.24653C2.88789 9.28564 2.59717 9.60544 2.59717 9.99994C2.59717 10.3944 2.88789 10.7142 3.24653 10.7142H9.74005C10.0987 10.7142 10.3894 10.3944 10.3894 9.9999C10.3894 9.6054 10.0986 9.28564 9.74001 9.28564Z"/>
<path d="M9.74001 12.1428H3.24653C2.88789 12.1428 2.59717 12.4626 2.59717 12.8571C2.59717 13.2516 2.88789 13.5714 3.24653 13.5714H9.74005C10.0987 13.5714 10.3894 13.2516 10.3894 12.8571C10.3894 12.4626 10.0986 12.1428 9.74001 12.1428Z"/>
<path d="M9.74001 15H3.24653C2.88789 15 2.59717 15.3198 2.59717 15.7143C2.59717 16.1088 2.88789 16.4286 3.24653 16.4286H9.74005C10.0987 16.4286 10.3894 16.1088 10.3894 15.7143C10.3894 15.3198 10.0986 15 9.74001 15Z"/>
</svg>
