<svg width="122" height="122" viewBox="0 0 122 122" fill="none" xmlns="http://www.w3.org/2000/svg">
<path d="M81.1299 61.0038L118.872 23.2615C123.042 19.0914 123.042 12.3306 118.872 8.16694L113.841 3.13542C109.669 -1.03602 102.908 -1.03602 98.7448 3.13542L61.0038 40.8764L23.2615 3.1276C19.0914 -1.04253 12.3306 -1.04253 8.16694 3.1276L3.1276 8.15912C-1.04253 12.3306 -1.04253 19.0914 3.1276 23.255L40.8764 61.0038L3.13542 98.7448C-1.03602 102.916 -1.03602 109.677 3.13542 113.841L8.16694 118.872C12.3371 123.042 19.0979 123.042 23.2615 118.872L61.0038 81.1299L98.7448 118.872C102.916 123.042 109.677 123.042 113.841 118.872L118.872 113.841C123.042 109.669 123.042 102.908 118.872 98.7448L81.1299 61.0038Z" fill="#C12D2C"/>
</svg>
