<svg xmlns="http://www.w3.org/2000/svg" width="14" height="14" fill="none">
    <path fill="#7CC622" d="M8.115 10.503c.755.259 1.422.424 2.38.718-.368 4.65-4.766 2.804-2.38-.718zm3.927-4.272c-.05-1.397-.296-3.229-2.255-2.941-.919.24-1.597 1.248-1.916 2.988-.176.957-.074 2.3.133 3.105.189.567.125.533.328.64.785.177 1.562.373 2.354.573.805-.568 1.465-3.584 1.356-4.365zm-6.047-.107c.207-.806.309-2.149.134-3.105-.32-1.74-.998-2.75-1.917-2.99-1.959-.286-2.205 1.546-2.254 2.942-.11.782.55 3.797 1.355 4.365.792-.2 1.57-.395 2.355-.572.203-.108.138-.073.327-.64zM3.505 7.96c.367 4.651 4.765 2.804 2.38-.717-.756.258-1.423.423-2.38.717z"/>
</svg>
