<svg width="20" height="20" viewBox="0 0 20 20" fill="none" xmlns="http://www.w3.org/2000/svg">
    <g clip-path="url(#clip0_2922_4773)">
        <path d="M9.50391 0.505371C4.25326 0.505371 0.00390625 4.75425 0.00390625 10.0054C0.00390625 15.2559 4.25278 19.5054 9.50391 19.5054C14.7545 19.5054 19.0039 15.2565 19.0039 10.0054C19.0039 4.7548 14.755 0.505371 9.50391 0.505371ZM9.50391 18.1798C4.99653 18.1798 1.32949 14.5128 1.32949 10.0054C1.32949 5.49796 4.99653 1.83096 9.50391 1.83096C14.0113 1.83096 17.6783 5.49796 17.6783 10.0054C17.6783 14.5128 14.0113 18.1798 9.50391 18.1798Z" fill="#7CC622"/>
        <path d="M9.50389 8.42432C8.94117 8.42432 8.54102 8.66196 8.54102 9.01209V13.7764C8.54102 14.0766 8.94117 14.3766 9.50389 14.3766C10.0416 14.3766 10.4792 14.0766 10.4792 13.7764V9.01202C10.4792 8.66193 10.0416 8.42432 9.50389 8.42432Z" fill="#7CC622"/>
        <path d="M9.50389 5.48584C8.92865 5.48584 8.47852 5.8985 8.47852 6.37368C8.47852 6.8489 8.92869 7.27407 9.50389 7.27407C10.0666 7.27407 10.5168 6.8489 10.5168 6.37368C10.5168 5.8985 10.0666 5.48584 9.50389 5.48584Z" fill="#7CC622"/>
    </g>
    <defs>
        <clipPath id="clip0_2922_4773">
            <rect width="19" height="19" fill="white" transform="translate(0.00390625 0.505371)"/>
        </clipPath>
    </defs>
</svg>
