<svg width="18" height="17" viewBox="0 0 18 17" fill="none" xmlns="http://www.w3.org/2000/svg">
    <g clip-path="url(#clip0_2402_6740)">
        <path d="M14.6087 0.00427246H2.62208C1.17617 0.00427246 0 1.09643 0 2.43906V10.0912C0 11.4338 1.17617 12.526 2.62208 12.526H10.7078L14.3435 15.9027C14.4154 15.9688 14.5113 16.0043 14.6087 16.0043C14.6567 16.0043 14.7054 15.9952 14.7518 15.9778C14.8919 15.9242 14.9833 15.7969 14.9833 15.6564V12.5016C16.2524 12.3319 17.2308 11.3156 17.2308 10.0912V2.43906C17.2308 1.09643 16.0546 0.00427246 14.6087 0.00427246ZM16.4816 10.0912C16.4816 11.0505 15.641 11.8303 14.6087 11.8303C14.4019 11.8303 14.2341 11.9862 14.2341 12.1782V14.8168L11.1281 11.9319C11.0577 11.8672 10.9625 11.8303 10.8629 11.8303H2.62208C1.58975 11.8303 0.749187 11.0505 0.749187 10.0912V2.43906C0.749187 1.47975 1.58975 0.699946 2.62208 0.699946H14.6087C15.641 0.699946 16.4816 1.47978 16.4816 2.43906V10.0912Z" fill="#C12D2C"/>
        <path d="M8.61496 8.35205C7.99539 8.35205 7.49121 8.82021 7.49121 9.39553C7.49121 9.97084 7.99539 10.439 8.61496 10.439C9.23453 10.439 9.7387 9.97084 9.7387 9.39553C9.7387 8.82021 9.23453 8.35205 8.61496 8.35205ZM8.61496 9.74336C8.40819 9.74336 8.24036 9.58684 8.24036 9.39553C8.24036 9.20421 8.40819 9.04769 8.61496 9.04769C8.82173 9.04769 8.98955 9.20421 8.98955 9.39553C8.98955 9.58684 8.82173 9.74336 8.61496 9.74336Z" fill="#C12D2C"/>
        <path d="M9.81242 2.4237C9.60042 2.21223 9.30073 2.09119 8.98984 2.09119H8.24068C7.92979 2.09119 7.63088 2.21223 7.41884 2.4237C7.20684 2.63448 7.09818 2.92039 7.11992 3.21397L7.43682 6.64143C7.48026 7.21049 7.99571 7.65638 8.61524 7.65638C9.22955 7.65638 9.745 7.21045 9.7877 6.64698L10.1106 3.20908C10.1331 2.92111 10.0244 2.6352 9.81242 2.4237ZM9.36443 3.15413L9.04079 6.59275C9.02506 6.79936 8.83778 6.96074 8.60927 6.96074C8.38603 6.96074 8.19949 6.79936 8.18299 6.58717L7.86683 3.15971C7.85935 3.06162 7.89453 2.96839 7.96645 2.89744C8.03837 2.82648 8.13575 2.78683 8.24065 2.78683H8.98984C9.09473 2.78683 9.19211 2.82648 9.26403 2.89744C9.33595 2.96839 9.37117 3.06162 9.36443 3.15413Z" fill="#C12D2C"/>
    </g>
    <defs>
        <clipPath id="clip0_2402_6740">
            <rect width="17.2308" height="16" fill="white" transform="translate(0 0.00427246)"/>
        </clipPath>
    </defs>
</svg>
