<svg xmlns="http://www.w3.org/2000/svg" viewBox="0 0 480 480">
    <path d="M240 0C107.452 0 0 107.452 0 240s107.452 240 240 240 240-107.452 240-240C479.85 107.514 372.486.15 240 0zm0 464C116.288 464 16 363.712 16 240S116.288 16 240 16s224 100.288 224 224c-.141 123.653-100.347 223.859-224 224z"/>
    <path d="M440 232a8 8 0 00-8 8c-.123 105.987-86.013 191.877-192 192a8 8 0 000 16c114.822-.128 207.872-93.178 208-208a8 8 0 00-8-8zM240 32c-114.822.128-207.872 93.178-208 208a8 8 0 0016 0c.123-105.987 86.013-191.877 192-192a8 8 0 000-16zM240 120c-13.255 0-24 10.745-24 24s10.745 24 24 24 24-10.745 24-24-10.745-24-24-24zm0 32a8 8 0 110-16 8 8 0 010 16zM280 320h-16V184h-80v24c0 8.837 7.163 16 16 16h16v136h80v-24c0-8.837-7.163-16-16-16zm0 24h-48V208h-32v-8h48v136h32v8z"/>
</svg>