<svg width="52" height="52" viewBox="0 0 52 52" xmlns="http://www.w3.org/2000/svg">
<path d="M48.2411 24.9845H40.7243V1.0157C40.7243 0.604986 40.4768 0.234587 40.0973 0.077368C39.7177 -0.0799524 39.2809 0.00718826 38.9905 0.297454L36.1133 3.17452L33.2364 0.297556C32.8398 -0.0990461 32.1967 -0.0990461 31.8 0.297556L28.9229 3.17462L26.0461 0.297556C25.6495 -0.0990461 25.0064 -0.0990461 24.6097 0.297556L21.7327 3.17462L18.8555 0.297556C18.4589 -0.0990461 17.8158 -0.0990461 17.4192 0.297556L14.5422 3.17462L11.6653 0.297556C11.2687 -0.0990461 10.6256 -0.0990461 10.2289 0.297556L7.35184 3.17462L4.47488 0.297556C4.08072 -0.0966087 3.44321 -0.0986399 3.04559 0.29197C2.83678 0.497228 2.73552 0.770736 2.74253 1.04242V46.719C2.74253 49.631 5.11157 52 8.02357 52H43.9743C43.9745 52 43.9746 52 43.9748 52C43.9751 52 43.9754 52 43.9757 52C46.8877 52 49.2567 49.631 49.2567 46.719V26C49.2567 25.4391 48.802 24.9845 48.2411 24.9845ZM8.02357 49.9688C6.2315 49.9688 4.77368 48.5108 4.77368 46.7189V3.46895L6.63369 5.32896C7.03029 5.72557 7.67339 5.72557 8.07009 5.32896L10.9472 2.4519L13.8242 5.32896C14.2208 5.72557 14.8639 5.72557 15.2606 5.32896L18.1377 2.4519L21.0148 5.32896C21.4114 5.72557 22.0545 5.72557 22.4511 5.32896L25.3282 2.4519L28.2053 5.32896C28.6019 5.72557 29.245 5.72557 29.6417 5.32896L32.5187 2.4519L35.3958 5.32896C35.7925 5.72557 36.4356 5.72557 36.8321 5.32896L38.6936 3.46753V26C38.6936 26.0092 38.6947 26.0183 38.695 26.0275V46.7189C38.695 47.9439 39.1155 49.0719 39.818 49.9688H8.02357ZM47.2255 46.7189C47.2255 48.5108 45.7676 49.9688 43.9756 49.9688C42.1836 49.9688 40.7257 48.5108 40.7257 46.7189V27.0156H47.2255V46.7189Z"/>
<path d="M21.7343 16.1337C20.7263 16.1337 19.9063 15.4315 19.9063 14.5686C19.9063 13.7055 20.7264 13.0033 21.7343 13.0033C22.7423 13.0033 23.5623 13.7055 23.5623 14.5686C23.5623 15.1295 24.017 15.5842 24.5779 15.5842C25.1389 15.5842 25.5935 15.1295 25.5935 14.5686C25.5935 12.913 24.3866 11.5161 22.7499 11.0995V10.4115C22.7499 9.85057 22.2952 9.39587 21.7343 9.39587C21.1733 9.39587 20.7186 9.85057 20.7186 10.4115V11.0995C19.0819 11.5161 17.875 12.9131 17.875 14.5686C17.875 16.5516 19.6063 18.1649 21.7343 18.1649C22.7423 18.1649 23.5623 18.8671 23.5623 19.7302C23.5623 20.5932 22.7423 21.2953 21.7343 21.2953C20.7263 21.2953 19.9063 20.5931 19.9063 19.7302C19.9063 19.1692 19.4516 18.7145 18.8906 18.7145C18.3297 18.7145 17.875 19.1692 17.875 19.7302C17.875 21.3857 19.082 22.7826 20.7186 23.1992V24.028C20.7186 24.5889 21.1733 25.0436 21.7343 25.0436C22.2952 25.0436 22.7499 24.5889 22.7499 24.028V23.1992C24.3867 22.7826 25.5935 21.3857 25.5935 19.7302C25.5935 17.7472 23.8622 16.1337 21.7343 16.1337Z"/>
<path d="M31.9375 16.1339H29.958C29.3971 16.1339 28.9424 16.5886 28.9424 17.1495C28.9424 17.7105 29.3971 18.1652 29.958 18.1652H31.9375C32.4984 18.1652 32.9531 17.7105 32.9531 17.1495C32.9531 16.5886 32.4984 16.1339 31.9375 16.1339Z"/>
<path d="M13.5097 16.1339H11.5303C10.9693 16.1339 10.5146 16.5886 10.5146 17.1495C10.5146 17.7105 10.9693 18.1652 11.5303 18.1652H13.5097C14.0707 18.1652 14.5254 17.7105 14.5254 17.1495C14.5254 16.5886 14.0707 16.1339 13.5097 16.1339Z"/>
<path d="M32.4512 27.4226H16.3613C15.8004 27.4226 15.3457 27.8773 15.3457 28.4382C15.3457 28.9992 15.8004 29.4539 16.3613 29.4539H32.4512C33.0121 29.4539 33.4668 28.9992 33.4668 28.4382C33.4667 27.8773 33.0121 27.4226 32.4512 27.4226Z"/>
<path d="M11.7346 27.7202C11.5457 27.5313 11.2837 27.4226 11.0166 27.4226C10.7495 27.4226 10.4875 27.5313 10.2986 27.7202C10.1096 27.9091 10.001 28.1711 10.001 28.4382C10.001 28.7053 10.1096 28.9674 10.2986 29.1563C10.4875 29.3452 10.7495 29.4539 11.0166 29.4539C11.2837 29.4539 11.5457 29.3452 11.7346 29.1563C11.9236 28.9674 12.0322 28.7053 12.0322 28.4382C12.0322 28.1711 11.9236 27.9091 11.7346 27.7202Z"/>
<path d="M32.4512 34.1255H16.3613C15.8004 34.1255 15.3457 34.5802 15.3457 35.1411C15.3457 35.702 15.8004 36.1567 16.3613 36.1567H32.4512C33.0121 36.1567 33.4668 35.702 33.4668 35.1411C33.4667 34.5802 33.0121 34.1255 32.4512 34.1255Z"/>
<path d="M11.7346 34.4231C11.5457 34.2342 11.2837 34.1255 11.0166 34.1255C10.7495 34.1255 10.4875 34.2342 10.2986 34.4231C10.1096 34.612 10.001 34.874 10.001 35.1411C10.001 35.4082 10.1096 35.6703 10.2986 35.8592C10.4875 36.0481 10.7495 36.1567 11.0166 36.1567C11.2837 36.1567 11.5457 36.0481 11.7346 35.8592C11.9236 35.6703 12.0322 35.4082 12.0322 35.1411C12.0322 34.874 11.9236 34.612 11.7346 34.4231Z"/>
<path d="M32.4512 40.8285H16.3613C15.8004 40.8285 15.3457 41.2832 15.3457 41.8441C15.3457 42.405 15.8004 42.8597 16.3613 42.8597H32.4512C33.0121 42.8597 33.4668 42.405 33.4668 41.8441C33.4668 41.2832 33.0121 40.8285 32.4512 40.8285Z"/>
<path d="M11.7346 41.1261C11.5457 40.9372 11.2837 40.8285 11.0166 40.8285C10.7495 40.8285 10.4875 40.9372 10.2986 41.1261C10.1096 41.315 10.001 41.577 10.001 41.8441C10.001 42.1112 10.1096 42.3733 10.2986 42.5622C10.4875 42.7511 10.7495 42.8597 11.0166 42.8597C11.2837 42.8597 11.5457 42.7511 11.7346 42.5622C11.9236 42.3733 12.0322 42.1112 12.0322 41.8441C12.0322 41.577 11.9236 41.315 11.7346 41.1261Z"/>
</svg>
