<svg width="48" height="49" viewBox="0 0 48 49" xmlns="http://www.w3.org/2000/svg">
<path d="M33.3125 3.24067H26.8125C26.8125 3.02518 26.7269 2.81852 26.5745 2.66615C26.4222 2.51377 26.2155 2.42817 26 2.42817H21.8319C21.6501 1.73267 21.2429 1.11707 20.6739 0.677701C20.1049 0.238334 19.4064 0 18.6875 0C17.9686 0 17.2701 0.238334 16.7011 0.677701C16.1321 1.11707 15.7249 1.73267 15.5431 2.42817H11.375C11.1595 2.42817 10.9528 2.51377 10.8005 2.66615C10.6481 2.81852 10.5625 3.02518 10.5625 3.24067H4.0625C2.98506 3.24067 1.95175 3.66868 1.18988 4.43055C0.428012 5.19241 0 6.22573 0 7.30317V44.6782C0 45.7556 0.428012 46.7889 1.18988 47.5508C1.95175 48.3127 2.98506 48.7407 4.0625 48.7407H33.3125C33.846 48.7407 34.3743 48.6356 34.8672 48.4314C35.36 48.2273 35.8079 47.928 36.1851 47.5508C36.5624 47.1736 36.8616 46.7257 37.0658 46.2328C37.2699 45.7399 37.375 45.2117 37.375 44.6782V7.30317C37.375 6.76967 37.2699 6.2414 37.0658 5.74852C36.8616 5.25563 36.5624 4.80779 36.1851 4.43055C35.8079 4.05331 35.36 3.75407 34.8672 3.54991C34.3743 3.34575 33.846 3.24067 33.3125 3.24067ZM12.1875 4.05317H16.25C16.4655 4.05317 16.6722 3.96757 16.8245 3.81519C16.9769 3.66282 17.0625 3.45616 17.0625 3.24067C17.0625 2.80969 17.2337 2.39637 17.5385 2.09162C17.8432 1.78687 18.2565 1.61567 18.6875 1.61567C19.1185 1.61567 19.5318 1.78687 19.8365 2.09162C20.1413 2.39637 20.3125 2.80969 20.3125 3.24067C20.3125 3.45616 20.3981 3.66282 20.5505 3.81519C20.7028 3.96757 20.9095 4.05317 21.125 4.05317H25.1875V8.11567C25.1875 8.33116 25.1019 8.53782 24.9495 8.69019C24.7972 8.84257 24.5905 8.92817 24.375 8.92817H13C12.7845 8.92817 12.5778 8.84257 12.4255 8.69019C12.2731 8.53782 12.1875 8.33116 12.1875 8.11567V4.05317ZM13 10.5532H24.375C25.0209 10.5512 25.6397 10.2938 26.0964 9.83711C26.5531 9.38041 26.8106 8.76154 26.8125 8.11567H32.5V37.3657H27.625C27.1944 37.367 26.7818 37.5386 26.4774 37.843C26.1729 38.1475 26.0013 38.5601 26 38.9907V43.8657H4.875V8.11567H10.5625C10.5644 8.76154 10.8219 9.38041 11.2786 9.83711C11.7353 10.2938 12.3541 10.5512 13 10.5532ZM31.3544 38.9907L27.625 42.72V38.9907H31.3544ZM35.75 44.6782C35.7481 45.324 35.4906 45.9429 35.0339 46.3996C34.5772 46.8563 33.9584 47.1137 33.3125 47.1157H4.0625C3.41663 47.1137 2.79776 46.8563 2.34106 46.3996C1.88436 45.9429 1.62693 45.324 1.625 44.6782V7.30317C1.62693 6.6573 1.88436 6.03843 2.34106 5.58173C2.79776 5.12502 3.41663 4.8676 4.0625 4.86567H10.5625V6.49067H4.0625C3.84701 6.49067 3.64035 6.57627 3.48798 6.72865C3.3356 6.88102 3.25 7.08768 3.25 7.30317V44.6782C3.25 44.8937 3.3356 45.1003 3.48798 45.2527C3.64035 45.4051 3.84701 45.4907 4.0625 45.4907H26.8125C27.0279 45.4891 27.2344 45.4047 27.3894 45.255L33.8894 38.755C34.039 38.6001 34.1234 38.3936 34.125 38.1782V7.30317C34.125 7.08768 34.0394 6.88102 33.887 6.72865C33.7347 6.57627 33.528 6.49067 33.3125 6.49067H26.8125V4.86567H33.3125C33.9584 4.8676 34.5772 5.12502 35.0339 5.58173C35.4906 6.03843 35.7481 6.6573 35.75 7.30317V44.6782Z"/>
<path d="M14.625 28.4282V29.2407C14.625 29.4562 14.5394 29.6629 14.387 29.8152C14.2347 29.9676 14.028 30.0532 13.8125 30.0532H8.9375C8.72201 30.0532 8.51535 29.9676 8.36298 29.8152C8.2106 29.6629 8.125 29.4562 8.125 29.2407V24.3657C8.125 24.1502 8.2106 23.9436 8.36298 23.7912C8.51535 23.6388 8.72201 23.5532 8.9375 23.5532H12.9594C13.1749 23.5532 13.3815 23.6388 13.5339 23.7912C13.6863 23.9436 13.7719 24.1502 13.7719 24.3657C13.7719 24.5812 13.6863 24.7879 13.5339 24.9402C13.3815 25.0926 13.1749 25.1782 12.9594 25.1782H9.75V28.4282H13C13 28.2127 13.0856 28.0061 13.238 27.8537C13.3903 27.7013 13.597 27.6157 13.8125 27.6157C14.028 27.6157 14.2347 27.7013 14.387 27.8537C14.5394 28.0061 14.625 28.2127 14.625 28.4282Z"/>
<path d="M15.6758 22.9786L12.1877 26.4666L11.1372 25.4161C11.0622 25.3385 10.9726 25.2766 10.8734 25.234C10.7743 25.1914 10.6677 25.169 10.5598 25.1681C10.4519 25.1671 10.3449 25.1877 10.2451 25.2285C10.1452 25.2694 10.0545 25.3297 9.97821 25.406C9.90192 25.4823 9.84159 25.573 9.80074 25.6729C9.75989 25.7727 9.73933 25.8797 9.74027 25.9876C9.7412 26.0955 9.76362 26.2021 9.8062 26.3012C9.84878 26.4003 9.91068 26.49 9.98828 26.5649L11.6133 28.1899C11.7656 28.3423 11.9723 28.4278 12.1877 28.4278C12.4032 28.4278 12.6098 28.3423 12.7622 28.1899L16.8247 24.1274C16.9727 23.9742 17.0546 23.769 17.0527 23.5559C17.0509 23.3429 16.9654 23.1391 16.8148 22.9885C16.6641 22.8378 16.4603 22.7524 16.2473 22.7505C16.0343 22.7487 15.829 22.8306 15.6758 22.9786Z"/>
<path d="M9.75 35.7407V34.9282H12.9569C13.1724 34.9282 13.3791 34.8426 13.5315 34.6902C13.6838 34.5379 13.7694 34.3312 13.7694 34.1157C13.7694 33.9002 13.6838 33.6936 13.5315 33.5412C13.3791 33.3888 13.1724 33.3032 12.9569 33.3032H8.9375C8.72201 33.3032 8.51535 33.3888 8.36298 33.5412C8.2106 33.6936 8.125 33.9002 8.125 34.1157V38.9907C8.125 39.2062 8.2106 39.4129 8.36298 39.5652C8.51535 39.7176 8.72201 39.8032 8.9375 39.8032H13.8125C14.028 39.8032 14.2347 39.7176 14.387 39.5652C14.5394 39.4129 14.625 39.2062 14.625 38.9907V38.1782C14.625 37.9627 14.5394 37.7561 14.387 37.6037C14.2347 37.4513 14.028 37.3657 13.8125 37.3657C13.597 37.3657 13.3903 37.4513 13.238 37.6037C13.0856 37.7561 13 37.9627 13 38.1782H9.75V35.7407Z"/>
<path d="M15.6758 32.7286L12.1877 36.2166L11.1372 35.1661C11.0622 35.0885 10.9726 35.0266 10.8734 34.984C10.7743 34.9414 10.6677 34.919 10.5598 34.9181C10.4519 34.9171 10.3449 34.9377 10.2451 34.9785C10.1452 35.0194 10.0545 35.0797 9.97821 35.156C9.90192 35.2323 9.84159 35.323 9.80074 35.4229C9.75989 35.5227 9.73933 35.6297 9.74027 35.7376C9.7412 35.8455 9.76362 35.9521 9.8062 36.0512C9.84878 36.1503 9.91068 36.24 9.98828 36.3149L11.6133 37.9399C11.7656 38.0923 11.9723 38.1778 12.1877 38.1778C12.4032 38.1778 12.6098 38.0923 12.7622 37.9399L16.8247 33.8774C16.9727 33.7242 17.0546 33.519 17.0527 33.3059C17.0509 33.0929 16.9654 32.8891 16.8148 32.7385C16.6641 32.5878 16.4603 32.5024 16.2473 32.5005C16.0343 32.4987 15.829 32.5806 15.6758 32.7286Z"/>
<path d="M18.6875 21.9282C19.6517 21.9282 20.5942 21.6423 21.3959 21.1066C22.1976 20.571 22.8224 19.8096 23.1914 18.9188C23.5604 18.028 23.6569 17.0478 23.4688 16.1022C23.2807 15.1565 22.8164 14.2879 22.1346 13.6061C21.4529 12.9243 20.5842 12.46 19.6386 12.2719C18.6929 12.0838 17.7127 12.1803 16.8219 12.5493C15.9311 12.9183 15.1698 13.5431 14.6341 14.3448C14.0984 15.1465 13.8125 16.089 13.8125 17.0532C13.8138 18.3458 14.3278 19.585 15.2418 20.4989C16.1557 21.4129 17.395 21.9269 18.6875 21.9282ZM18.6875 13.8032C19.3303 13.8032 19.9586 13.9938 20.4931 14.3509C21.0276 14.7081 21.4441 15.2156 21.6901 15.8095C21.9361 16.4034 22.0004 17.0568 21.875 17.6873C21.7496 18.3177 21.4401 18.8968 20.9856 19.3513C20.5311 19.8058 19.952 20.1154 19.3215 20.2408C18.6911 20.3662 18.0376 20.3018 17.4438 20.0558C16.8499 19.8098 16.3423 19.3933 15.9852 18.8588C15.6281 18.3244 15.4375 17.696 15.4375 17.0532C15.4375 16.1913 15.7799 15.3646 16.3894 14.7551C16.9989 14.1456 17.8255 13.8032 18.6875 13.8032Z"/>
<path d="M17.875 19.4907H19.5V17.8657H21.125V16.2407H19.5V14.6157H17.875V16.2407H16.25V17.8657H17.875V19.4907Z"/>
<path d="M17.875 25.1782C17.875 25.3937 17.9606 25.6004 18.113 25.7527C18.2653 25.9051 18.472 25.9907 18.6875 25.9907H28.4375C28.653 25.9907 28.8597 25.9051 29.012 25.7527C29.1644 25.6004 29.25 25.3937 29.25 25.1782C29.25 24.9627 29.1644 24.7561 29.012 24.6037C28.8597 24.4513 28.653 24.3657 28.4375 24.3657H18.6875C18.472 24.3657 18.2653 24.4513 18.113 24.6037C17.9606 24.7561 17.875 24.9627 17.875 25.1782Z"/>
<path d="M28.4375 34.1157H18.6875C18.472 34.1157 18.2653 34.2013 18.113 34.3537C17.9606 34.5061 17.875 34.7127 17.875 34.9282C17.875 35.1437 17.9606 35.3504 18.113 35.5027C18.2653 35.6551 18.472 35.7407 18.6875 35.7407H28.4375C28.653 35.7407 28.8597 35.6551 29.012 35.5027C29.1644 35.3504 29.25 35.1437 29.25 34.9282C29.25 34.7127 29.1644 34.5061 29.012 34.3537C28.8597 34.2013 28.653 34.1157 28.4375 34.1157Z"/>
<path d="M23.5625 37.3657H18.6875C18.472 37.3657 18.2653 37.4513 18.113 37.6037C17.9606 37.7561 17.875 37.9627 17.875 38.1782C17.875 38.3937 17.9606 38.6004 18.113 38.7527C18.2653 38.9051 18.472 38.9907 18.6875 38.9907H23.5625C23.778 38.9907 23.9847 38.9051 24.137 38.7527C24.2894 38.6004 24.375 38.3937 24.375 38.1782C24.375 37.9627 24.2894 37.7561 24.137 37.6037C23.9847 37.4513 23.778 37.3657 23.5625 37.3657Z"/>
<path d="M28.4375 27.6157H18.6875C18.472 27.6157 18.2653 27.7013 18.113 27.8537C17.9606 28.0061 17.875 28.2127 17.875 28.4282C17.875 28.6437 17.9606 28.8504 18.113 29.0027C18.2653 29.1551 18.472 29.2407 18.6875 29.2407H28.4375C28.653 29.2407 28.8597 29.1551 29.012 29.0027C29.1644 28.8504 29.25 28.6437 29.25 28.4282C29.25 28.2127 29.1644 28.0061 29.012 27.8537C28.8597 27.7013 28.653 27.6157 28.4375 27.6157Z"/>
<path d="M45.5 6.49072H43.875C43.2291 6.49265 42.6103 6.75008 42.1536 7.20678C41.6969 7.66348 41.4394 8.28235 41.4375 8.92822V11.3657C40.7916 11.3677 40.1728 11.6251 39.7161 12.0818C39.2594 12.5385 39.0019 13.1574 39 13.8032V21.9282C39 22.1437 39.0856 22.3504 39.238 22.5027C39.3903 22.6551 39.597 22.7407 39.8125 22.7407C40.028 22.7407 40.2347 22.6551 40.387 22.5027C40.5394 22.3504 40.625 22.1437 40.625 21.9282V13.8032C40.625 13.5877 40.7106 13.3811 40.863 13.2287C41.0153 13.0763 41.222 12.9907 41.4375 12.9907V41.4282C41.4375 41.4363 41.4456 41.4445 41.4456 41.4607C41.4472 41.5462 41.4609 41.631 41.4863 41.7126L43.9319 48.2126C43.9907 48.3677 44.0952 48.5012 44.2316 48.5955C44.368 48.6898 44.5298 48.7405 44.6956 48.7407C44.8604 48.7403 45.0211 48.6895 45.1562 48.5951C45.2913 48.5007 45.3942 48.3672 45.4512 48.2126L47.8887 41.7126C47.9147 41.6283 47.9284 41.5408 47.9294 41.4526C47.9294 41.4445 47.9375 41.4363 47.9375 41.4282V8.92822C47.9356 8.28235 47.6781 7.66348 47.2214 7.20678C46.7647 6.75008 46.1459 6.49265 45.5 6.49072ZM44.6875 45.6126L43.42 42.2407H45.955L44.6875 45.6126ZM46.3125 40.6157H43.0625V38.9907H46.3125V40.6157ZM46.3125 37.3657H43.0625V35.7407H46.3125V37.3657ZM46.3125 34.1157H43.0625V32.4907H46.3125V34.1157ZM46.3125 30.8657H43.0625V12.9907H46.3125V30.8657ZM46.3125 11.3657H43.0625V8.92822C43.0625 8.71273 43.1481 8.50607 43.3005 8.3537C43.4528 8.20133 43.6595 8.11572 43.875 8.11572H45.5C45.7155 8.11572 45.9222 8.20133 46.0745 8.3537C46.2269 8.50607 46.3125 8.71273 46.3125 8.92822V11.3657Z"/>
</svg>
