<svg width="52" height="52" viewBox="0 0 52 52" fill="none" xmlns="http://www.w3.org/2000/svg">
<path d="M45.5 1.625H13C11.9226 1.625 10.8893 2.05301 10.1274 2.81488C9.36555 3.57675 8.93754 4.61006 8.93754 5.6875V30.1031C6.93322 30.3043 5.07509 31.2429 3.7237 32.7367C2.37232 34.2305 1.62402 36.1731 1.62402 38.1875C1.62402 40.2019 2.37232 42.1445 3.7237 43.6383C5.07509 45.1321 6.93322 46.0707 8.93754 46.2719V47.9375C8.93841 48.0635 8.96816 48.1876 9.0245 48.3003C9.08084 48.413 9.16227 48.5112 9.26254 48.5875L11.4319 50.2125C11.572 50.3192 11.7433 50.3771 11.9194 50.3771C12.0955 50.3771 12.2668 50.3192 12.4069 50.2125L14.0807 48.9531L15.7544 50.2125C15.8945 50.3192 16.0658 50.3771 16.2419 50.3771C16.418 50.3771 16.5893 50.3192 16.7294 50.2125L18.4113 48.9531L20.085 50.2125C20.2251 50.3192 20.3964 50.3771 20.5725 50.3771C20.7487 50.3771 20.9199 50.3192 21.06 50.2125L22.7419 48.9531L24.4157 50.2125C24.5558 50.3192 24.727 50.3771 24.9032 50.3771C25.0793 50.3771 25.2506 50.3192 25.3907 50.2125L27.0725 48.9531L28.7463 50.2125C28.8864 50.3192 29.0577 50.3771 29.2338 50.3771C29.4099 50.3771 29.5812 50.3192 29.7213 50.2125L31.4032 48.9531L33.085 50.2125C33.2251 50.3192 33.3964 50.3771 33.5725 50.3771C33.7487 50.3771 33.9199 50.3192 34.06 50.2125L35.7338 48.9531L37.4157 50.2125C37.5558 50.3192 37.727 50.3771 37.9032 50.3771C38.0793 50.3771 38.2506 50.3192 38.3907 50.2125L40.0807 48.9531L41.7625 50.2125C41.9039 50.3165 42.0745 50.3734 42.25 50.375C42.3776 50.3773 42.5036 50.3465 42.6157 50.2856C42.7504 50.219 42.8637 50.1159 42.9427 49.9881C43.0217 49.8602 43.0632 49.7128 43.0625 49.5625V19.5H48.75C48.9655 19.5 49.1722 19.4144 49.3246 19.262C49.4769 19.1097 49.5625 18.903 49.5625 18.6875V5.6875C49.5625 4.61006 49.1345 3.57675 48.3727 2.81488C47.6108 2.05301 46.5775 1.625 45.5 1.625ZM3.25004 38.1875C3.25004 36.9019 3.63126 35.6452 4.34549 34.5763C5.05972 33.5074 6.07488 32.6743 7.2626 32.1823C8.45032 31.6903 9.75725 31.5616 11.0181 31.8124C12.279 32.0632 13.4372 32.6823 14.3462 33.5913C15.2553 34.5003 15.8743 35.6585 16.1251 36.9194C16.3759 38.1803 16.2472 39.4872 15.7553 40.6749C15.2633 41.8627 14.4302 42.8778 13.3612 43.5921C12.2923 44.3063 11.0356 44.6875 9.75004 44.6875C8.02686 44.6851 6.37493 43.9996 5.15646 42.7811C3.93798 41.5626 3.2524 39.9107 3.25004 38.1875ZM41.4375 5.6875V47.9375L40.5682 47.2875C40.4281 47.1808 40.2568 47.1229 40.0807 47.1229C39.9045 47.1229 39.7333 47.1808 39.5932 47.2875L37.9032 48.5469L36.2213 47.2875C36.0812 47.1808 35.9099 47.1229 35.7338 47.1229C35.5577 47.1229 35.3864 47.1808 35.2463 47.2875L33.5725 48.5469L31.8907 47.2875C31.7506 47.1808 31.5793 47.1229 31.4032 47.1229C31.227 47.1229 31.0558 47.1808 30.9157 47.2875L29.2338 48.5469L27.56 47.2875C27.4199 47.1808 27.2487 47.1229 27.0725 47.1229C26.8964 47.1229 26.7251 47.1808 26.585 47.2875L24.9032 48.5469L23.2294 47.2875C23.0893 47.1808 22.918 47.1229 22.7419 47.1229C22.5658 47.1229 22.3945 47.1808 22.2544 47.2875L20.5725 48.5469L18.8988 47.2875C18.7587 47.1808 18.5874 47.1229 18.4113 47.1229C18.2352 47.1229 18.0639 47.1808 17.9238 47.2875L16.2419 48.5469L14.5682 47.2875C14.4281 47.1808 14.2568 47.1229 14.0807 47.1229C13.9045 47.1229 13.7333 47.1808 13.5932 47.2875L11.9194 48.5469L10.5625 47.5312V46.2719C12.5669 46.0707 14.425 45.1321 15.7764 43.6383C17.1278 42.1445 17.8761 40.2019 17.8761 38.1875C17.8761 36.1731 17.1278 34.2305 15.7764 32.7367C14.425 31.2429 12.5669 30.3043 10.5625 30.1031V5.6875C10.5645 5.04163 10.8219 4.42276 11.2786 3.96606C11.7353 3.50936 12.3542 3.25193 13 3.25H42.2744C41.7342 3.94795 41.44 4.80493 41.4375 5.6875ZM47.9375 17.875H43.0625V5.6875C43.0625 5.04103 43.3193 4.42105 43.7765 3.96393C44.2336 3.50681 44.8536 3.25 45.5 3.25C46.1465 3.25 46.7665 3.50681 47.2236 3.96393C47.6807 4.42105 47.9375 5.04103 47.9375 5.6875V17.875Z"/>
<path d="M30.0625 7.3125H28.4375V5.6875C28.4375 5.47201 28.3519 5.26535 28.1995 5.11298C28.0472 4.9606 27.8405 4.875 27.625 4.875H24.375C24.1595 4.875 23.9528 4.9606 23.8005 5.11298C23.6481 5.26535 23.5625 5.47201 23.5625 5.6875V7.3125H21.9375C21.722 7.3125 21.5153 7.3981 21.363 7.55048C21.2106 7.70285 21.125 7.90951 21.125 8.125V11.375C21.125 11.5905 21.2106 11.7972 21.363 11.9495C21.5153 12.1019 21.722 12.1875 21.9375 12.1875H23.5625V13.8125C23.5625 14.028 23.6481 14.2347 23.8005 14.387C23.9528 14.5394 24.1595 14.625 24.375 14.625H27.625C27.8405 14.625 28.0472 14.5394 28.1995 14.387C28.3519 14.2347 28.4375 14.028 28.4375 13.8125V12.1875H30.0625C30.278 12.1875 30.4847 12.1019 30.637 11.9495C30.7894 11.7972 30.875 11.5905 30.875 11.375V8.125C30.875 7.90951 30.7894 7.70285 30.637 7.55048C30.4847 7.3981 30.278 7.3125 30.0625 7.3125ZM29.25 10.5625H27.625C27.4095 10.5625 27.2028 10.6481 27.0505 10.8005C26.8981 10.9528 26.8125 11.1595 26.8125 11.375V13H25.1875V11.375C25.1875 11.1595 25.1019 10.9528 24.9495 10.8005C24.7972 10.6481 24.5905 10.5625 24.375 10.5625H22.75V8.9375H24.375C24.5905 8.9375 24.7972 8.8519 24.9495 8.69952C25.1019 8.54715 25.1875 8.34049 25.1875 8.125V6.5H26.8125V8.125C26.8125 8.34049 26.8981 8.54715 27.0505 8.69952C27.2028 8.8519 27.4095 8.9375 27.625 8.9375H29.25V10.5625Z"/>
<path d="M37.375 16.25H14.625C14.4095 16.25 14.2028 16.3356 14.0505 16.488C13.8981 16.6403 13.8125 16.847 13.8125 17.0625V30.0625C13.8125 30.278 13.8981 30.4847 14.0505 30.637C14.2028 30.7894 14.4095 30.875 14.625 30.875H37.375C37.5905 30.875 37.7972 30.7894 37.9495 30.637C38.1019 30.4847 38.1875 30.278 38.1875 30.0625V17.0625C38.1875 16.847 38.1019 16.6403 37.9495 16.488C37.7972 16.3356 37.5905 16.25 37.375 16.25ZM17.0625 29.25H15.4375V21.125H17.0625V29.25ZM17.0625 19.5H15.4375V17.875H17.0625V19.5ZM36.5625 29.25H18.6875V21.125H36.5625V29.25ZM36.5625 19.5H18.6875V17.875H36.5625V19.5Z"/>
<path d="M10.5625 43.0625V42.1688C11.9771 41.9031 13 40.9687 13 39.8125C13 38.4459 11.5724 37.375 9.75 37.375C8.75794 37.375 8.125 36.894 8.125 36.5625C8.125 36.231 8.75794 35.75 9.75 35.75C10.7421 35.75 11.375 36.231 11.375 36.5625C11.375 36.778 11.4606 36.9847 11.613 37.137C11.7653 37.2894 11.972 37.375 12.1875 37.375C12.403 37.375 12.6097 37.2894 12.762 37.137C12.9144 36.9847 13 36.778 13 36.5625C13 35.4079 11.9771 34.4736 10.5625 34.2062V33.3125C10.5625 33.097 10.4769 32.8903 10.3245 32.738C10.1722 32.5856 9.96549 32.5 9.75 32.5C9.53451 32.5 9.32785 32.5856 9.17548 32.738C9.0231 32.8903 8.9375 33.097 8.9375 33.3125V34.2062C7.52294 34.4719 6.5 35.4063 6.5 36.5625C6.5 37.9291 7.92756 39 9.75 39C10.7421 39 11.375 39.481 11.375 39.8125C11.375 40.144 10.7421 40.625 9.75 40.625C8.75794 40.625 8.125 40.144 8.125 39.8125C8.125 39.597 8.0394 39.3903 7.88702 39.238C7.73465 39.0856 7.52799 39 7.3125 39C7.09701 39 6.89035 39.0856 6.73798 39.238C6.5856 39.3903 6.5 39.597 6.5 39.8125C6.5 40.9671 7.52294 41.9014 8.9375 42.1688V43.0625C8.9375 43.278 9.0231 43.4847 9.17548 43.637C9.32785 43.7894 9.53451 43.875 9.75 43.875C9.96549 43.875 10.1722 43.7894 10.3245 43.637C10.4769 43.4847 10.5625 43.278 10.5625 43.0625Z"/>
<path d="M37.375 34.125H24.375C24.1595 34.125 23.9528 34.2106 23.8005 34.363C23.6481 34.5153 23.5625 34.722 23.5625 34.9375C23.5625 35.153 23.6481 35.3597 23.8005 35.512C23.9528 35.6644 24.1595 35.75 24.375 35.75H37.375C37.5905 35.75 37.7972 35.6644 37.9495 35.512C38.1019 35.3597 38.1875 35.153 38.1875 34.9375C38.1875 34.722 38.1019 34.5153 37.9495 34.363C37.7972 34.2106 37.5905 34.125 37.375 34.125Z"/>
<path d="M37.375 37.375H24.375C24.1595 37.375 23.9528 37.4606 23.8005 37.613C23.6481 37.7653 23.5625 37.972 23.5625 38.1875C23.5625 38.403 23.6481 38.6097 23.8005 38.762C23.9528 38.9144 24.1595 39 24.375 39H37.375C37.5905 39 37.7972 38.9144 37.9495 38.762C38.1019 38.6097 38.1875 38.403 38.1875 38.1875C38.1875 37.972 38.1019 37.7653 37.9495 37.613C37.7972 37.4606 37.5905 37.375 37.375 37.375Z"/>
<path d="M37.375 40.625H24.375C24.1595 40.625 23.9528 40.7106 23.8005 40.863C23.6481 41.0153 23.5625 41.222 23.5625 41.4375C23.5625 41.653 23.6481 41.8597 23.8005 42.012C23.9528 42.1644 24.1595 42.25 24.375 42.25H37.375C37.5905 42.25 37.7972 42.1644 37.9495 42.012C38.1019 41.8597 38.1875 41.653 38.1875 41.4375C38.1875 41.222 38.1019 41.0153 37.9495 40.863C37.7972 40.7106 37.5905 40.625 37.375 40.625Z"/>
<path d="M21.125 34.125H20.3125C20.097 34.125 19.8903 34.2106 19.738 34.363C19.5856 34.5153 19.5 34.722 19.5 34.9375C19.5 35.153 19.5856 35.3597 19.738 35.512C19.8903 35.6644 20.097 35.75 20.3125 35.75H21.125C21.3405 35.75 21.5472 35.6644 21.6995 35.512C21.8519 35.3597 21.9375 35.153 21.9375 34.9375C21.9375 34.722 21.8519 34.5153 21.6995 34.363C21.5472 34.2106 21.3405 34.125 21.125 34.125Z"/>
<path d="M21.125 37.375H20.3125C20.097 37.375 19.8903 37.4606 19.738 37.613C19.5856 37.7653 19.5 37.972 19.5 38.1875C19.5 38.403 19.5856 38.6097 19.738 38.762C19.8903 38.9144 20.097 39 20.3125 39H21.125C21.3405 39 21.5472 38.9144 21.6995 38.762C21.8519 38.6097 21.9375 38.403 21.9375 38.1875C21.9375 37.972 21.8519 37.7653 21.6995 37.613C21.5472 37.4606 21.3405 37.375 21.125 37.375Z"/>
<path d="M21.125 40.625H20.3125C20.097 40.625 19.8903 40.7106 19.738 40.863C19.5856 41.0153 19.5 41.222 19.5 41.4375C19.5 41.653 19.5856 41.8597 19.738 42.012C19.8903 42.1644 20.097 42.25 20.3125 42.25H21.125C21.3405 42.25 21.5472 42.1644 21.6995 42.012C21.8519 41.8597 21.9375 41.653 21.9375 41.4375C21.9375 41.222 21.8519 41.0153 21.6995 40.863C21.5472 40.7106 21.3405 40.625 21.125 40.625Z"/>
</svg>
