<svg width="16" height="16" viewBox="0 0 16 16" fill="none" xmlns="http://www.w3.org/2000/svg">
    <g clip-path="url(#clip0_2624_2079)">
        <path d="M8 -0.00012207C4.89838 -0.00012207 2.375 2.52325 2.375 5.62488C2.375 6.67282 2.66528 7.6955 3.21466 8.58275L7.67981 15.7783C7.76534 15.9161 7.91603 15.9999 8.07809 15.9999C8.07934 15.9999 8.08056 15.9999 8.08181 15.9999C8.24528 15.9986 8.39628 15.9123 8.48025 15.772L12.8316 8.50675C13.3507 7.63825 13.625 6.64172 13.625 5.62488C13.625 2.52325 11.1016 -0.00012207 8 -0.00012207ZM12.0271 8.02544L8.071 14.6307L4.01147 8.08882C3.55419 7.35032 3.30625 6.49832 3.30625 5.62488C3.30625 3.04019 5.41531 0.931128 8 0.931128C10.5847 0.931128 12.6906 3.04019 12.6906 5.62488C12.6906 6.47241 12.459 7.30263 12.0271 8.02544Z" fill="#CCCCCC"/>
        <path d="M8 2.81238C6.44919 2.81238 5.1875 4.07407 5.1875 5.62488C5.1875 7.16578 6.42866 8.43738 8 8.43738C9.59072 8.43738 10.8125 7.14885 10.8125 5.62488C10.8125 4.07407 9.55081 2.81238 8 2.81238ZM8 7.50613C6.96072 7.50613 6.11875 6.66135 6.11875 5.62488C6.11875 4.591 6.96613 3.74363 8 3.74363C9.03387 3.74363 9.87813 4.591 9.87813 5.62488C9.87813 6.64622 9.05575 7.50613 8 7.50613Z" fill="#CCCCCC"/>
    </g>
    <defs>
        <clipPath id="clip0_2624_2079">
            <rect width="16" height="16" fill="white"/>
        </clipPath>
    </defs>
</svg>
