<svg width="17" height="16" viewBox="0 0 17 16" fill="none" xmlns="http://www.w3.org/2000/svg">
    <path d="M8.01251 0C4.81243 0 2.20898 2.59944 2.20898 5.79456C2.20898 9.75981 7.40257 15.581 7.62369 15.8269C7.83138 16.0579 8.19401 16.0575 8.40132 15.8269C8.62245 15.581 13.816 9.75981 13.816 5.79456C13.816 2.59944 11.2126 0 8.01251 0ZM8.01251 8.70997C6.40247 8.70997 5.09264 7.40213 5.09264 5.79456C5.09264 4.187 6.4025 2.87919 8.01251 2.87919C9.62252 2.87919 10.9323 4.18703 10.9323 5.79459C10.9323 7.40216 9.62252 8.70997 8.01251 8.70997Z" fill="#7CC622"/>
</svg>
