<svg id="Слой_1" data-name="Слой 1" xmlns="http://www.w3.org/2000/svg" xmlns:xlink="http://www.w3.org/1999/xlink" viewBox="0 0 190 190"><defs><style>.cls-1{fill:none;}.cls-2{fill:#636363;}.cls-3{fill:#fef8c8;}.cls-4{fill:#e7eec3;}.cls-5{fill:#feecd8;}.cls-6{fill:#e4e5e4;}.cls-7{clip-path:url(#clip-path);}</style><clipPath id="clip-path"><polygon class="cls-1" points="89.82 53.96 92.08 60.96 90.95 66.58 85.91 68.21 85.91 76.83 94.04 81.21 97.16 87.76 97.16 134.21 96.08 140.71 89.29 143.71 84.66 146.16 90.91 149.21 133.72 147.46 141.41 80.33 131.72 33.83 124.04 18.96 103.29 14.08 88.29 22.21 89.82 47.08 89.82 53.96"/></clipPath></defs><title>иконки</title><path class="cls-2" d="M55.76,180.69H52.81v-18.8h2.95V170h3.36v-8.06h3v18.8h-3v-8.05H55.76Z"/><path class="cls-2" d="M73.84,180.69h-3l-.51-3.41H66.72l-.51,3.41H63.5l3-18.8h4.32Zm-6.74-6h2.84l-1.42-9.51Z"/><path class="cls-2" d="M83.77,173.68v2.5c0,3-1.5,4.73-4.4,4.73S75,179.19,75,176.18v-9.77c0-3,1.51-4.73,4.41-4.73s4.4,1.72,4.4,4.73v1.82H81v-2c0-1.34-.59-1.86-1.53-1.86s-1.53.52-1.53,1.86v10.15c0,1.34.59,1.83,1.53,1.83s1.53-.49,1.53-1.83v-2.69Z"/><path class="cls-2" d="M84.71,161.89h9.13v2.69H90.75v16.11h-3V164.58H84.71Z"/><path class="cls-2" d="M94.89,166.41c0-3,1.58-4.73,4.49-4.73s4.48,1.72,4.48,4.73v9.77c0,3-1.58,4.73-4.48,4.73s-4.49-1.72-4.49-4.73Zm3,10c0,1.34.6,1.85,1.54,1.85s1.53-.51,1.53-1.85V166.22c0-1.34-.59-1.86-1.53-1.86s-1.54.52-1.54,1.86Z"/><path class="cls-2" d="M108.8,180.69h-3v-18.8h2.63v11.9l1.07-4.14,2.42-7.76h3.25v18.8h-2.66V167.45l-1.21,4.62Zm3-23c-.08,1-.54,1.24-1.35,1.24s-1.18-.24-1.26-1.24H107.4a2.78,2.78,0,0,0,3.09,3c2.1,0,3.14-1.16,3.14-3Z"/><path class="cls-2" d="M121.15,173.2l-.91,1.72v5.77h-2.95v-18.8h2.95v8.19l3.87-8.19h3L123,170.27l4.11,10.42h-3Z"/><path class="cls-2" d="M138,180.69h-3l-.51-3.41h-3.62l-.51,3.41h-2.71l3-18.8H135Zm-6.74-6h2.85l-1.42-9.51Z"/><polygon class="cls-3" points="96.36 86.08 131.72 86.08 131.72 132.5 129 139.33 122.67 143.67 95.08 143.67 93.97 142.16 97.16 138.83 96.67 129.67 96.36 86.08"/><polygon class="cls-4" points="50.5 110 63.67 110.83 78.5 108.17 89.82 107.17 96.5 108.85 97.16 134.21 95.08 141.65 90.5 143.67 80.33 143.67 56.5 143.67 52.58 141.65 50.5 136.67 50.5 110"/><polygon class="cls-5" points="64.83 44 62.34 49.67 62.34 53 84.66 53 84.66 48.5 80.67 43.33 70.17 43.33 64.83 44"/><path class="cls-6" d="M86.83,75.82v-6h.72a6.27,6.27,0,0,0,6.27-6.27V57.37a6.27,6.27,0,0,0-6.27-6.27h-.72V49.47A8.46,8.46,0,0,0,78.38,41H69.29a8.47,8.47,0,0,0-8.46,8.45V51.1h-.72a6.28,6.28,0,0,0-6.27,6.27v6.21a6.28,6.28,0,0,0,6.27,6.27h.72v6A14,14,0,0,0,48.58,89.71v47.48A8.48,8.48,0,0,0,57,145.65H90.63a8.47,8.47,0,0,0,8.45-8.46V89.71A14,14,0,0,0,86.83,75.82Zm-22-26.35A4.46,4.46,0,0,1,69.29,45h9.09a4.45,4.45,0,0,1,4.45,4.45V51.1h-18ZM60.11,65.85a2.27,2.27,0,0,1-2.27-2.27V57.37a2.27,2.27,0,0,1,2.27-2.27H87.55a2.27,2.27,0,0,1,2.27,2.27v6.21a2.27,2.27,0,0,1-2.27,2.27H60.11Zm2.47,13.86h2.25V69.85h18v9.86h2.25a10,10,0,0,1,10,10V106.1c-6-1.77-15.65-1.44-23.36,1-6.44,2.06-15.37,1.78-19.14,1.55v-19A10,10,0,0,1,62.58,79.71Zm28.05,61.94H57a4.46,4.46,0,0,1-4.46-4.46V112.7c1.31.08,3.1.16,5.17.16,4.54,0,10.39-.38,15.19-1.92,8.12-2.6,17.66-2.39,22.14-.63v26.88A4.46,4.46,0,0,1,90.63,141.65Z"/><path class="cls-6" d="M64.61,99.43a7.34,7.34,0,1,0-7.33-7.33A7.34,7.34,0,0,0,64.61,99.43Zm0-11.67a4.34,4.34,0,1,1-4.33,4.34A4.35,4.35,0,0,1,64.61,87.76Z"/><g class="cls-7"><path class="cls-6" d="M119.72,146.16H94a14,14,0,0,1-14-14V69.25a14,14,0,0,1,14-14h3.37V48.48h20.38v6.77h2a14,14,0,0,1,14,14v62.91A14,14,0,0,1,119.72,146.16ZM94,59.25a10,10,0,0,0-10,10v62.91a10,10,0,0,0,10,10h25.75a10,10,0,0,0,10-10V69.25a10,10,0,0,0-10-10h-6V52.48H101.34v6.77Z"/><path class="cls-6" d="M118,52.48H97.24a5.17,5.17,0,0,1-5.16-5.16V31.56a11,11,0,0,1,11-11h9.11a11,11,0,0,1,11,11V47.32A5.16,5.16,0,0,1,118,52.48Zm-15-27.92a7,7,0,0,0-7,7V47.32a1.17,1.17,0,0,0,1.16,1.16H118a1.17,1.17,0,0,0,1.15-1.16V31.56a7,7,0,0,0-7-7Z"/><rect class="cls-6" x="81.97" y="84.39" width="49.75" height="4"/><path class="cls-6" d="M115.54,106.83a7,7,0,1,1,7-7A7,7,0,0,1,115.54,106.83Zm0-11a4,4,0,1,0,4,4A4,4,0,0,0,115.54,95.83Z"/><path class="cls-6" d="M121.85,114.5a3.66,3.66,0,1,1,3.66-3.65A3.65,3.65,0,0,1,121.85,114.5Zm0-5.31a1.66,1.66,0,1,0,1.66,1.66A1.67,1.67,0,0,0,121.85,109.19Z"/></g></svg>