<svg width="52" height="52" viewBox="0 0 52 52" fill="none" xmlns="http://www.w3.org/2000/svg">
<path d="M14.2632 16.0219C13.6633 15.4831 12.8806 15.1781 12.0571 15.1781C11.254 15.1781 10.4813 15.4831 9.89169 16.0219C8.55993 14.8121 6.50636 14.9138 5.29658 16.2456C4.08681 17.5773 4.18847 19.6309 5.52024 20.8407C6.76051 21.9691 8.65142 21.9691 9.89169 20.8407C11.2235 22.0504 13.277 21.9488 14.4868 20.617C15.6966 19.2852 15.5949 17.2317 14.2632 16.0219ZM7.7263 19.5191C7.12649 19.5191 6.63852 19.0311 6.63852 18.4313C6.63852 17.8315 7.12649 17.3435 7.7263 17.3435C8.3261 17.3435 8.81408 17.8315 8.81408 18.4313C8.80391 19.0311 8.3261 19.5191 7.7263 19.5191ZM12.0571 19.5191C11.4573 19.5191 10.9693 19.0311 10.9693 18.4313C10.9693 17.8315 11.4573 17.3435 12.0571 17.3435C12.6569 17.3435 13.1449 17.8315 13.1449 18.4313C13.1449 19.0311 12.6569 19.5191 12.0571 19.5191Z" fill="black"/>
<path d="M37.0049 19.5801V8.67175H45.6766C46.2764 8.67175 46.7644 9.15973 46.7644 9.75953V16.9064L45.3615 15.5034L43.8365 17.0283L47.0897 20.2815C47.5167 20.6983 48.1978 20.6983 48.6146 20.2815L51.8678 17.0283L50.3429 15.5034L48.9298 16.9064V9.75953C48.9298 7.96012 47.476 6.50635 45.6766 6.50635H37.0049V1.08778C37.0049 0.487977 36.5169 0 35.9171 0H1.21994C0.620135 0 0.132158 0.487977 0.132158 1.08778V24.9478C0.132158 25.5476 0.620135 26.0356 1.21994 26.0356H22.9044C18.1771 32.2166 18.5533 40.8985 23.8092 46.6424H12.0571C11.4573 46.6424 10.9693 46.1544 10.9693 45.5546V38.4078L12.3722 39.8108L13.8972 38.2858L10.644 35.0326C10.217 34.6158 9.53587 34.6158 9.11906 35.0326L5.86588 38.2858L7.39081 39.8108L8.80391 38.4078V45.5445C8.80391 47.3439 10.2577 48.7977 12.0571 48.7977H26.1576V48.7468C28.9126 50.8207 32.2573 51.9695 35.7138 52H36.1306C45.0972 51.512 51.9797 43.8467 51.4917 34.8802C51.0545 26.92 44.9243 20.4442 37.0049 19.5801ZM46.3781 27.1132H41.7017L41.6305 26.9607C41.4373 26.5134 41.2035 26.0864 40.9799 25.6594C40.8782 25.4866 40.807 25.3036 40.7054 25.141C40.3699 24.5412 40.0039 23.9718 39.6176 23.4025L39.4244 23.1484C39.1194 22.7316 38.8246 22.3249 38.4891 21.9386C41.8541 22.5689 44.2737 24.409 46.3781 27.1132ZM30.5494 34.6972C30.5494 34.4023 30.5494 34.1075 30.5494 33.833C30.5494 33.5586 30.6104 33.4061 30.6409 33.2027C30.6917 32.7758 30.7527 32.3488 30.834 31.9218C30.834 31.6676 30.956 31.4338 31.017 31.1797C31.078 30.9255 31.2 30.4274 31.3118 30.0919C31.4236 29.7564 31.4846 29.5836 31.5761 29.3294H40.2581C40.3495 29.5836 40.441 29.8276 40.5224 30.0919C40.5935 30.3562 40.7257 30.8442 40.8172 31.1797C40.9087 31.5152 40.9494 31.6676 41.0002 31.9218C41.0917 32.3488 41.1425 32.7656 41.1933 33.2027C41.1933 33.4162 41.2543 33.6297 41.2848 33.833C41.3052 34.0364 41.2848 34.4125 41.2848 34.6972H30.5494ZM41.2848 36.8727C41.2848 37.1675 41.2848 37.4624 41.2848 37.7369C41.2848 38.0113 41.2238 38.1638 41.1933 38.3672C41.1425 38.7941 41.0815 39.2211 41.0002 39.6481C41.0002 39.9022 40.8782 40.1361 40.8172 40.3902C40.7562 40.6444 40.6342 41.1425 40.5224 41.478C40.4105 41.8135 40.3495 41.9863 40.2581 42.2405H31.5761C31.4846 41.9863 31.3931 41.7423 31.3118 41.478C31.2407 41.2137 31.1085 40.7257 31.017 40.3902C30.9255 40.0547 30.8848 39.9022 30.834 39.6481C30.7425 39.2211 30.6917 38.8043 30.6409 38.3672C30.6409 38.1537 30.5799 37.9402 30.5494 37.7369C30.529 37.5335 30.5494 37.1574 30.5494 36.8727H41.2848ZM30.2037 26.9607L30.1325 27.1132H24.8563C26.9607 24.4192 29.98 22.5791 33.3451 21.9386C33.0197 22.3249 32.7148 22.7417 32.4098 23.1484L32.2166 23.4025C31.8303 23.9617 31.4541 24.5412 31.1288 25.141C31.0272 25.3138 30.9458 25.4866 30.8543 25.6594C30.6205 26.0864 30.407 26.5236 30.2037 26.9607ZM35.5714 22.7112L35.9171 22.3554L36.2627 22.7112L36.8524 23.372C37.076 23.6465 37.2997 23.921 37.5132 24.2057C37.7267 24.4903 37.8588 24.6733 38.0215 24.9071C38.1842 25.141 38.4078 25.5069 38.5806 25.8119C38.7535 26.1169 38.8755 26.2999 39.0178 26.5541C39.1601 26.8082 39.2008 26.92 39.2923 27.103H32.5623C32.6639 26.92 32.7351 26.737 32.8367 26.5541C32.9384 26.3711 33.1214 26.0661 33.2739 25.8119C33.4264 25.5578 33.6399 25.202 33.833 24.9071C34.0262 24.6123 34.1685 24.4293 34.3413 24.2057C34.5142 23.982 34.7785 23.6465 35.0021 23.372L35.5714 22.7112ZM2.29755 2.1654H34.8293V4.33079H2.29755V2.1654ZM2.29755 6.50635H34.8293V8.67175H2.29755V6.50635ZM2.29755 23.86V10.8473H34.8293V19.5902C31.139 19.8444 27.6418 21.349 24.9275 23.86H2.29755ZM23.4432 29.2786H29.3192C29.3192 29.4006 29.2684 29.5124 29.2176 29.6344C29.0956 30.0512 28.9939 30.468 28.8923 30.8848C28.8414 31.139 28.7703 31.383 28.7296 31.6473C28.6381 32.1048 28.5771 32.5724 28.5161 33.0401C28.5161 33.2536 28.4551 33.4874 28.4246 33.7009C28.4043 33.9144 28.4246 34.3718 28.3738 34.7073H21.8166C21.9894 32.7961 22.5384 30.956 23.4432 29.2786ZM23.4432 42.2913C22.5384 40.6139 21.9793 38.7738 21.8166 36.8727H28.323C28.323 37.2082 28.323 37.5437 28.3738 37.8792C28.4246 38.2147 28.4246 38.3265 28.4653 38.54C28.5161 39.0076 28.5975 39.4753 28.6788 39.9327C28.6788 40.1971 28.7906 40.4411 28.8414 40.6952C28.9431 41.1222 29.0448 41.5288 29.1668 41.9457C29.1668 42.0676 29.2176 42.1795 29.2684 42.3015L23.4432 42.2913ZM24.8461 44.4567H24.8563H30.1325L30.2037 44.6092C30.3969 45.0565 30.6307 45.4835 30.8543 45.9105C30.956 46.0833 31.0272 46.2663 31.1288 46.4289C31.4643 47.0287 31.8303 47.598 32.2166 48.1674L32.4098 48.4215C32.7046 48.8383 33.0096 49.245 33.3451 49.6313C29.98 49.001 26.9505 47.1609 24.8461 44.4567ZM37.5132 47.3541C37.2997 47.6387 37.076 47.9132 36.8524 48.1877L36.2627 48.8485L35.9171 49.2043L35.5714 48.8485L34.9818 48.1877C34.7582 47.9132 34.5345 47.6387 34.321 47.3541C34.1075 47.0694 33.9754 46.8864 33.8127 46.6526C33.65 46.4188 33.4264 46.0528 33.2536 45.7478C33.0807 45.4428 32.9587 45.2598 32.8164 45.0057C32.6741 44.7515 32.6639 44.6397 32.5521 44.4567H39.2719C39.1703 44.6397 39.0991 44.8227 38.9974 45.0057C38.8958 45.1887 38.7128 45.4936 38.5603 45.7478C38.4078 46.002 38.1943 46.3578 38.0012 46.6526C37.808 46.9474 37.6657 47.1304 37.4928 47.3541H37.5132ZM38.5013 49.6288C38.8259 49.2431 39.1303 48.8273 39.4346 48.4215L39.6277 48.1674C40.0141 47.6082 40.3902 47.0287 40.7155 46.4289C40.8172 46.2561 40.8985 46.0833 40.99 45.9105C41.2137 45.4733 41.4373 45.0565 41.6407 44.6092L41.7118 44.4567H46.3781C44.2661 47.1576 41.8599 48.9964 38.5013 49.6288ZM47.781 42.2913H42.5251C42.5251 42.1693 42.5759 42.0575 42.6268 41.9355C42.7488 41.5187 42.8504 41.1019 42.9521 40.685C43.0029 40.4309 43.0741 40.1869 43.1147 39.9226C43.2062 39.4651 43.2672 38.9975 43.3282 38.5298C43.3282 38.3163 43.3892 38.0825 43.4197 37.869C43.4401 37.6555 43.4197 37.198 43.4706 36.8626H49.3669C49.2043 38.7636 48.6655 40.6139 47.781 42.2913ZM43.5112 34.6972C43.5112 34.3617 43.5112 34.0262 43.4604 33.6907C43.4096 33.3552 43.4096 33.2434 43.3689 33.0299C43.3181 32.5623 43.2367 32.0946 43.1554 31.6371C43.1554 31.383 43.0436 31.1288 42.9928 30.8747C42.8911 30.4477 42.7894 30.0411 42.6674 29.6242C42.6674 29.5022 42.6166 29.3904 42.5658 29.2684H47.781V29.2786C48.6858 30.956 49.245 32.7961 49.4076 34.6972H43.5112Z" fill="black"/>
</svg>
