<svg width="18" height="18" viewBox="0 0 18 18" fill="none" xmlns="http://www.w3.org/2000/svg">
    <path d="M13.4795 5.48006C14.0097 5.48006 14.4395 5.05025 14.4395 4.52006C14.4395 3.98987 14.0097 3.56006 13.4795 3.56006C12.9493 3.56006 12.5195 3.98987 12.5195 4.52006C12.5195 5.05025 12.9493 5.48006 13.4795 5.48006Z" stroke="#7CC622" stroke-width="2" stroke-miterlimit="10" stroke-linecap="round"/>
    <path d="M16.04 2.75996C16.04 2.31804 15.682 1.95996 15.24 1.95996C15.1901 1.95996 10.4797 1.9606 10.4797 1.9606C10.0541 1.9606 9.64676 1.9382 9.4106 2.17436L2.13732 9.44732C1.90084 9.68348 1.90084 10.0668 2.13732 10.303L7.697 15.8627C7.93316 16.0988 8.31652 16.0988 8.55268 15.8627L15.8256 8.5894C16.0618 8.35356 16.0394 7.9558 16.0394 7.5206C16.0394 7.5206 16.04 2.80988 16.04 2.75996Z" stroke="#7CC622" stroke-width="2" stroke-miterlimit="10" stroke-linecap="round"/>
</svg>
