<svg xmlns="http://www.w3.org/2000/svg" width="18" height="17" fill="none">
  <g fill="#C12D2C">
    <path d="M14.609.004H2.622C1.176.004 0 1.097 0 2.44v7.652c0 1.343 1.176 2.435 2.622 2.435h8.086l3.636 3.377a.393.393 0 00.408.075.349.349 0 00.231-.322v-3.154c1.27-.17 2.248-1.186 2.248-2.41V2.438c0-1.343-1.176-2.435-2.622-2.435zm1.873 10.087c0 .96-.841 1.74-1.873 1.74-.207 0-.375.155-.375.347v2.639l-3.106-2.885a.393.393 0 00-.265-.102h-8.24c-1.033 0-1.874-.78-1.874-1.739V2.44C.75 1.48 1.59.7 2.622.7H14.61c1.032 0 1.873.78 1.873 1.74v7.651z"/>
    <path d="M8.615 8.352c-.62 0-1.123.468-1.123 1.044 0 .575.504 1.043 1.123 1.043.62 0 1.124-.468 1.124-1.043 0-.576-.504-1.044-1.124-1.044zm0 1.391c-.206 0-.374-.156-.374-.347 0-.192.168-.348.374-.348.207 0 .375.156.375.348 0 .191-.168.347-.375.347zM9.812 2.424a1.17 1.17 0 00-.822-.333h-.75c-.31 0-.61.121-.821.333-.212.21-.32.496-.3.79l.318 3.427c.043.57.559 1.015 1.178 1.015.615 0 1.13-.445 1.173-1.009l.323-3.438a1.001 1.001 0 00-.299-.785zm-.448.73l-.323 3.439c-.016.206-.203.368-.432.368a.417.417 0 01-.426-.374L7.867 3.16a.329.329 0 01.1-.263.388.388 0 01.274-.11h.749c.105 0 .202.04.274.11.072.071.107.165.1.257z"/>
  </g>
</svg>