<?xml version="1.0" encoding="utf-8"?>
<!-- Generator: Adobe Illustrator 20.0.0, SVG Export Plug-In . SVG Version: 6.00 Build 0)  -->
<svg version="1.1" id="Layer_1" xmlns="http://www.w3.org/2000/svg" xmlns:xlink="http://www.w3.org/1999/xlink" x="0px" y="0px"
	 width="77px" height="77px" viewBox="0 0 77 77" style="enable-background:new 0 0 77 77;" xml:space="preserve">
<style type="text/css">
	.st0{opacity:0.2;}
	.st1{fill:#008BD2;}
	.st2{fill:#FFFFFF;}
</style>
<title>Asset 1</title>
<g id="Layer_2">
	<g id="Layer_1-2">
		<g class="st0">
			<circle class="st1" cx="38.5" cy="38.5" r="38.5"/>
		</g>
		<path class="st2" d="M38.5,49.3c-6,0-10.8-4.8-10.8-10.8s4.8-10.8,10.8-10.8s10.8,4.8,10.8,10.8S44.5,49.3,38.5,49.3z"/>
		<path class="st1" d="M38.5,28.9c5.3,0,9.6,4.3,9.6,9.6s-4.3,9.6-9.6,9.6s-9.6-4.3-9.6-9.6S33.2,28.9,38.5,28.9 M38.5,26.5
			c-6.6,0-12,5.4-12,12s5.4,12,12,12s12-5.4,12-12S45.1,26.5,38.5,26.5z"/>
		<circle class="st1" cx="38.5" cy="38.5" r="6"/>
	</g>
</g>
</svg>
