<?xml version="1.0" encoding="utf-8"?>
<!-- Generator: Adobe Illustrator 20.0.0, SVG Export Plug-In . SVG Version: 6.00 Build 0)  -->
<svg version="1.1" id="Layer_1" xmlns="http://www.w3.org/2000/svg" xmlns:xlink="http://www.w3.org/1999/xlink" x="0px" y="0px"
	 width="42px" height="47.3px" viewBox="0 0 42 47.3" style="enable-background:new 0 0 42 47.3;" xml:space="preserve">
<style type="text/css">
	.st0{fill:#FEFEFE;}
	.st1{fill:#FFDD00;}
	.st2{fill:#52AE32;}
	.st3{fill:#E30613;}
	.st4{fill:#008BD2;}
</style>
<g id="Layer_x0020_1">
	<path class="st0" d="M31.8,36.3L21,47.3L10.3,36.3C-32.5-12.1,74.5-12.1,31.8,36.3z"/>
	<g id="Слой_2">
		<g id="_1">
			<path class="st1" d="M7.2,22.2c-1-2.1-1.6-4.5-1.6-6.8c0-4.5,3.5-8.2,7.7-8.2c3.3,0,5.2,1,6.9,3.9v11.1L7.2,22.2z"/>
			<path class="st2" d="M20.2,39c-4.8-5.1-9.5-10.1-12.2-15.2h12.2V39z"/>
			<path class="st3" d="M34,23.8c-2.7,5.1-7.4,10.1-12.2,15.2V23.8H34z"/>
			<path class="st4" d="M21.8,11.1c1.7-2.9,3.6-3.9,6.9-3.9c4.3,0,7.7,3.7,7.7,8.2c0,2.4-0.6,4.7-1.6,6.8h-13V11.1z"/>
		</g>
	</g>
</g>
</svg>
