<svg xmlns="http://www.w3.org/2000/svg" viewBox="0 0 146.51 14.75"><defs><style>.cls-1{fill:#cfcfcf;}</style></defs><title>Logo_grey</title><g id="Layer_2" data-name="Layer 2"><g id="Layer_1-2" data-name="Layer 1"><g id="Слой_2" data-name="Слой 2"><g id="_1" data-name=" 1"><path class="cls-1" d="M79.85,7a7.67,7.67,0,0,1-.75-3.18A3.69,3.69,0,0,1,82.67,0a3.22,3.22,0,0,1,3.2,1.8V6.95Z"/><path class="cls-1" d="M85.87,14.75a36.23,36.23,0,0,1-5.64-7.05h5.64Z"/><path class="cls-1" d="M92.27,7.7a37,37,0,0,1-5.64,7.05V7.7Z"/><path class="cls-1" d="M86.62,1.8A3.23,3.23,0,0,1,89.82,0a3.68,3.68,0,0,1,3.57,3.79,7.67,7.67,0,0,1-.75,3.16h-6Z"/></g></g><path class="cls-1" d="M10.35,13.59l-1.59-4H3l-1.57,4H0L5.06.81H6.75L11.8,13.59ZM6.71,4.42,6,2H5.84L5.09,4.42,3.44,8.58H8.36Z"/><path class="cls-1" d="M23.09,13.59V2H15.62V13.59h-1.4V.81H24.49V13.59Z"/><path class="cls-1" d="M31,13.59V1.95H26.5l.2-1.13H37.1l-.2,1.13H32.38V13.59Z"/><path class="cls-1" d="M38.89,13.59V.81h9.44l-.2,1.13H40.3V6.41h6.35V7.54H40.3v4.9h8l-.2,1.15Z"/><path class="cls-1" d="M59.44,13.59,55.21,7.78H52v5.81h-1.4V.81H52V6.65h3.17L59.44.81h1.85L58.88,4,56.45,7.2q1.22,1.59,2.43,3.21l2.41,3.18Z"/><path class="cls-1" d="M73.57,13.59,72,9.59H66.25l-1.57,4H63.22L68.27.81H70L75,13.59ZM69.93,4.42,69.18,2h-.12l-.75,2.41L66.66,8.58h4.92Z"/><path class="cls-1" d="M108.44,13.59l-1.59-4h-5.72l-1.57,4H98.1L103.15.81h1.69l5.06,12.78ZM104.8,4.42,104.06,2h-.12l-.75,2.41-1.65,4.16h4.92Z"/><path class="cls-1" d="M112.32,13.59V.81h4.52a16.62,16.62,0,0,1,2.62.19,4.23,4.23,0,0,1,2,.85,4.17,4.17,0,0,1,1.28,1.91,10.16,10.16,0,0,1,.45,3.36,11.73,11.73,0,0,1-.4,3.41,4.16,4.16,0,0,1-1.19,2,4,4,0,0,1-1.93.89,14.76,14.76,0,0,1-2.64.21Zm4.52-1.15a14.11,14.11,0,0,0,2.3-.16,2.76,2.76,0,0,0,1.51-.72,3.28,3.28,0,0,0,.83-1.61,12.61,12.61,0,0,0,.26-2.85,9.08,9.08,0,0,0-.37-2.94,3.17,3.17,0,0,0-1-1.53A3.16,3.16,0,0,0,118.77,2a18.11,18.11,0,0,0-2-.1h-3.07V12.44Z"/><path class="cls-1" d="M126.17,13.59V.81h9.44l-.2,1.13h-7.83V6.41h6.35V7.54h-6.35v4.9h8l-.2,1.15Z"/><path class="cls-1" d="M137.59,13.59V.81H139V12.44h7.51l-.2,1.15Z"/></g></g></svg>