<?xml version="1.0" encoding="utf-8"?>
<!-- Generator: Adobe Illustrator 20.0.0, SVG Export Plug-In . SVG Version: 6.00 Build 0)  -->
<svg version="1.1" id="Layer_1" xmlns="http://www.w3.org/2000/svg" xmlns:xlink="http://www.w3.org/1999/xlink" x="0px" y="0px"
	 width="84px" height="24px" viewBox="0 0 84 24" style="enable-background:new 0 0 84 24;" xml:space="preserve">
<style type="text/css">
	.st0{fill:#EC2027;}
	.st1{fill:#FFFFFF;}
	.st2{fill:#E2231A;}
	.st3{opacity:0.7;fill:#FFF200;enable-background:new    ;}
	.st4{fill:#FFF200;}
	.st5{fill:#EEDC00;}
</style>
<g id="Layer_2">
	<g id="Ñëîé_1">
		<rect class="st0" width="24" height="24"/>
		<path class="st1" d="M13.7,3.8H12c1.8,3.2,1.6,6.4,1.6,8.2c-0.1,2.9-0.9,5.8-2.4,8.3H13c0.7-1.1,1.3-2.3,1.8-3.6
			c0.6-1.5,0.9-3.1,1-4.6c0.1-1.9-0.3-3.9-1-5.7C14.6,5.5,14.2,4.6,13.7,3.8L13.7,3.8z"/>
		<polygon class="st1" points="11.4,10.2 11.5,7.8 8.6,7.8 8.6,10.2 11.4,10.2 		"/>
		<polygon class="st1" points="11.1,16.9 11.2,14.5 8.3,14.5 8.2,16.9 11.1,16.9 		"/>
	</g>
</g>
<g id="Layer_2_1_">
	<g id="Ñëîé_1_1_">
		<polygon class="st2" points="30,24 54,24 54,0 30,0 30,24 		"/>
		<path class="st1" d="M42,2.4c3.4,0,7.1,6.1,7.1,11.4c0,4.1-2.4,7.7-7.1,7.7S35,18,35,13.8C35,8.6,38.6,2.4,42,2.4"/>
	</g>
</g>
<g>
	<rect x="60" y="0" width="24" height="24"/>
	<polygon class="st3" points="67.4,5.1 72,9.7 72,14.3 67.4,14.3 62.9,9.7 	"/>
	<polygon class="st4" points="76.6,5.1 81.2,9.7 76.6,14.3 72,14.3 72,9.7 	"/>
	<rect x="68.8" y="11.1" transform="matrix(0.7071 -0.7071 0.7071 0.7071 10.9931 55.1125)" class="st5" width="6.5" height="6.5"/>
</g>
</svg>
