<svg width="27" height="24" viewBox="0 0 27 24" xmlns="http://www.w3.org/2000/svg">
<path d="M22.2133 0H4.12634C1.94456 0 0.1698 1.63824 0.1698 3.65219V15.1305C0.1698 17.1444 1.94456 18.7826 4.12634 18.7826H16.3271L21.8131 23.8476C21.9217 23.9468 22.0664 24 22.2133 24C22.2856 24 22.3591 23.9865 22.4292 23.9603C22.6406 23.88 22.7785 23.689 22.7785 23.4782V18.7461C24.6935 18.4915 26.1699 16.9669 26.1699 15.1304V3.65219C26.1698 1.63824 24.395 0 22.2133 0ZM25.0393 15.1304C25.0393 16.5694 23.771 17.7391 22.2133 17.7391C21.9013 17.7391 21.648 17.9728 21.648 18.2608V22.2187L16.9612 17.8914C16.855 17.7944 16.7114 17.7391 16.5611 17.7391H4.12634C2.56862 17.7391 1.30027 16.5693 1.30027 15.1304V3.65219C1.30027 2.21322 2.56862 1.04351 4.12634 1.04351H22.2133C23.771 1.04351 25.0393 2.21326 25.0393 3.65219V15.1304Z"/>
<path d="M13.1698 12.5217C12.2349 12.5217 11.4741 13.224 11.4741 14.0869C11.4741 14.9499 12.2349 15.6522 13.1698 15.6522C14.1047 15.6522 14.8654 14.9499 14.8654 14.0869C14.8654 13.224 14.1047 12.5217 13.1698 12.5217ZM13.1698 14.6087C12.8578 14.6087 12.6045 14.3739 12.6045 14.0869C12.6045 13.8 12.8578 13.5652 13.1698 13.5652C13.4818 13.5652 13.735 13.8 13.735 14.0869C13.735 14.3739 13.4818 14.6087 13.1698 14.6087Z"/>
<path d="M14.9762 3.6292C14.6563 3.312 14.2041 3.13043 13.735 3.13043H12.6046C12.1355 3.13043 11.6844 3.312 11.3645 3.6292C11.0446 3.94537 10.8806 4.37424 10.9134 4.8146L11.3916 9.9558C11.4571 10.8094 12.2349 11.4782 13.1698 11.4782C14.0967 11.4782 14.8745 10.8093 14.9389 9.96412L15.4261 4.80727C15.4601 4.37532 15.2961 3.94645 14.9762 3.6292ZM14.3002 4.72485L13.8119 9.88277C13.7881 10.1927 13.5056 10.4348 13.1608 10.4348C12.8239 10.4348 12.5424 10.1927 12.5175 9.87441L12.0405 4.73321C12.0292 4.58608 12.0823 4.44624 12.1908 4.33981C12.2993 4.23337 12.4462 4.17389 12.6045 4.17389H13.735C13.8933 4.17389 14.0402 4.23337 14.1487 4.33981C14.2573 4.44624 14.3104 4.58608 14.3002 4.72485Z"/>
</svg>
